<?xml version="1.0" encoding="UTF-8" standalone="no"?>
<!-- Created with Fritzing (http://www.fritzing.org/) -->

<svg
   xmlns:dc="http://purl.org/dc/elements/1.1/"
   xmlns:cc="http://creativecommons.org/ns#"
   xmlns:rdf="http://www.w3.org/1999/02/22-rdf-syntax-ns#"
   xmlns:svg="http://www.w3.org/2000/svg"
   xmlns="http://www.w3.org/2000/svg"
   xmlns:sodipodi="http://sodipodi.sourceforge.net/DTD/sodipodi-0.dtd"
   xmlns:inkscape="http://www.inkscape.org/namespaces/inkscape"
   version="1.2"
   x="0in"
   y="0in"
   width="7.2404113in"
   height="2.2824595in"
   viewBox="0 0 521.30996 164.3368"
   id="svg3730"
   inkscape:version="0.91 r13725"
   sodipodi:docname="ArduinoAndRaspberryPi.svg">
  <metadata
     id="metadata5005">
    <rdf:RDF>
      <cc:Work
         rdf:about="">
        <dc:format>image/svg+xml</dc:format>
        <dc:type
           rdf:resource="http://purl.org/dc/dcmitype/StillImage" />
        <dc:title></dc:title>
      </cc:Work>
    </rdf:RDF>
  </metadata>
  <defs
     id="defs5003" />
  <sodipodi:namedview
     pagecolor="#ffffff"
     bordercolor="#666666"
     borderopacity="1"
     objecttolerance="10"
     gridtolerance="10"
     guidetolerance="10"
     inkscape:pageopacity="0"
     inkscape:pageshadow="2"
     inkscape:window-width="1920"
     inkscape:window-height="1017"
     id="namedview5001"
     showgrid="false"
     inkscape:zoom="0.70809917"
     inkscape:cx="104.15576"
     inkscape:cy="227.85041"
     inkscape:window-x="1912"
     inkscape:window-y="-8"
     inkscape:window-maximized="1"
     inkscape:current-layer="svg3730"
     fit-margin-top="0"
     fit-margin-left="0"
     fit-margin-right="0"
     fit-margin-bottom="0" />
  <g
     id="_x30_.1.5.0.0.0.0.0.5"
     transform="matrix(-1,2.54711e-6,-2.54711e-6,-1,-254.09269,50.403243)" />
  <g
     id="_x30_.1.5.0.0.0.0.0.10"
     transform="matrix(-1,2.54711e-6,-2.54711e-6,-1,-257.22679,47.268243)" />
  <g
     id="_x30_.1.5.0.0.0.0.0.12"
     transform="matrix(-1,2.54711e-6,-2.54711e-6,-1,-250.87029,53.624143)" />
  <g
     id="_x30_.1.6.0.0.0.0.0.5"
     transform="matrix(-1,2.54711e-6,-2.54711e-6,-1,-162.41479,68.443045)" />
  <g
     id="_x30_.1.6.0.0.0.0.0.10"
     transform="matrix(-1,2.54711e-6,-2.54711e-6,-1,-165.54809,65.306745)" />
  <g
     id="_x30_.1.6.0.0.0.0.0.12"
     transform="matrix(-1,2.54711e-6,-2.54711e-6,-1,-159.19209,71.663745)" />
  <g
     id="_x30_.1.10.0.0.0.0.0.5"
     transform="matrix(-1,2.57889e-6,-2.57889e-6,-1,-251.66407,74.706145)" />
  <g
     id="_x30_.1.10.0.0.0.0.0.10"
     transform="matrix(-1,2.57889e-6,-2.57889e-6,-1,-248.52807,71.571145)" />
  <g
     id="_x30_.1.10.0.0.0.0.0.12"
     transform="matrix(-1,2.57889e-6,-2.57889e-6,-1,-254.88497,77.928045)" />
  <g
     id="_x30_.1.11.0.0.0.0.0.5"
     transform="matrix(-1,2.57889e-6,-2.57889e-6,-1,-251.66547,68.226145)" />
  <g
     id="_x30_.1.11.0.0.0.0.0.10"
     transform="matrix(-1,2.57889e-6,-2.57889e-6,-1,-248.52857,65.090145)" />
  <g
     id="_x30_.1.11.0.0.0.0.0.12"
     transform="matrix(-1,2.57889e-6,-2.57889e-6,-1,-254.88517,71.447845)" />
  <g
     id="_x30_.1.13.0.0.0.0.0.0.0.2"
     transform="matrix(-1,0,0,-1,-414.14355,219.47794)" />
  <g
     transform="translate(-635.07139,163.84425)"
     partID="59650"
     id="g59549" />
  <g
     id="g59639"
     transform="matrix(1.0021532,0,0,1,274.81111,-197.65963)">
    <path
       style="fill:#007300"
       inkscape:connector-curvature="0"
       id="path59393"
       d="m 232.441,197.65943 -223.937,0 c -4.678,0 -8.504,3.827 -8.504,8.504 l 0,141.731 c 0,4.679 3.827,8.505 8.504,8.505 l 223.938,0 c 4.679,0 8.504,-3.826 8.504,-8.505 l 0,-141.731 c -0.001,-4.677 -3.827,-8.504 -8.505,-8.504 z m -222.52,152.716 c -2.152,0 -3.897,-1.744 -3.897,-3.898 0,-2.152 1.745,-3.896 3.897,-3.896 2.153,0 3.898,1.744 3.898,3.896 0,2.154 -1.746,3.898 -3.898,3.898 z m 0,-138.897 c -2.152,0 -3.897,-1.745 -3.897,-3.898 0,-2.152 1.745,-3.897 3.897,-3.897 2.153,0 3.898,1.745 3.898,3.897 0,2.153 -1.746,3.898 -3.898,3.898 z m 164.411,138.897 c -2.151,0 -3.897,-1.744 -3.897,-3.898 0,-2.152 1.746,-3.896 3.897,-3.896 2.152,0 3.896,1.744 3.896,3.896 0,2.154 -1.744,3.898 -3.896,3.898 z m 0,-138.897 c -2.151,0 -3.897,-1.745 -3.897,-3.898 0,-2.152 1.746,-3.897 3.897,-3.897 2.152,0 3.896,1.745 3.896,3.897 0,2.153 -1.744,3.898 -3.896,3.898 z" />
    <path
       style="fill:#b3b3b3;fill-opacity:1"
       d="m 217.96577,205.71392 c -0.0746,0 -0.19967,0.0612 -0.30313,0.15157 -0.004,0.004 -0.007,0.007 -0.011,0.0109 -0.0849,0.0775 -0.15357,0.17415 -0.15625,0.27813 l 0,1.44218 -6.90625,0 0,6.7172 -0.7375,0 0,2.35625 0.7375,0 0,2.93906 -0.7375,0 0,2.35469 0.7375,0 0,2.35313 -0.7375,0 0,2.35313 0.7375,0 0,2.93906 -0.7375,0 0,2.35625 0.7375,0 0,6.71719 6.90625,0 0,1.45938 c 0.006,0.234 0.33031,0.43906 0.47031,0.43906 l 0,-0.0188 c 0.023,0.003 0.0434,0.0125 0.0672,0.0125 l 0.58594,0 0,0.006 1.71094,0 0,-1.17968 0,-0.71875 22.31095,0 0,-0.32188 c 0.0521,0.007 0.11968,0.006 0.16406,0.0172 0.059,0.014 0.11235,0.0312 0.15625,0.05 0.0788,0.0348 0.14373,0.0744 0.17657,0.125 0.021,0.059 0.0891,0.52007 0.0891,0.83907 l 0.56094,0 0.27031,0 0.0484,0 0.12813,0 0.7,0 c 0,-0.29493 -0.0343,-0.61096 -0.0875,-0.87032 5e-4,2.7e-4 0.004,-2.6e-4 0.005,0 -0.006,-0.0243 -0.0118,-0.0355 -0.0172,-0.0578 -0.0209,-0.0919 -0.0443,-0.16898 -0.0703,-0.23594 -0.004,-0.01 -0.007,-0.0176 -0.011,-0.0266 -0.0146,-0.0345 -0.0278,-0.0804 -0.0438,-0.10469 -0.009,-0.0131 -0.0206,-0.0218 -0.0297,-0.0344 -0.0239,-0.0368 -0.0449,-0.0581 -0.0687,-0.0828 -0.0395,-0.0446 -0.0807,-0.0852 -0.125,-0.12188 -0.003,-0.003 -0.006,-0.007 -0.009,-0.009 -0.002,-0.002 -0.004,-0.003 -0.006,-0.005 -0.0831,-0.0664 -0.17446,-0.10979 -0.26719,-0.15312 -0.0474,-0.0223 -0.0923,-0.0452 -0.14063,-0.0625 -0.0853,-0.0303 -0.16345,-0.0546 -0.24687,-0.0719 -0.0413,-0.009 -0.0711,-0.0139 -0.11094,-0.0203 -0.16967,-0.0266 -0.32809,-0.0409 -0.43593,-0.0422 l -0.002,0 -0.0859,0 -0.54063,0 0,-0.1375 1.14689,0 0,-28.43127 -1.14689,0 0,-0.15 0.009,0 -0.005,0.005 0.62188,0 0.002,-0.002 c 0.11337,-10e-4 0.28237,-0.018 0.46249,-0.0484 0.0187,-0.003 0.0325,-0.006 0.0516,-0.009 0.10037,-0.0193 0.19664,-0.0479 0.3,-0.0859 0.0329,-0.0123 0.0628,-0.0292 0.0953,-0.0437 0.16161,-0.0717 0.31641,-0.16212 0.44218,-0.30625 0.0223,-0.0235 0.0434,-0.0436 0.0656,-0.0781 0.007,-0.0102 0.0164,-0.0176 0.0234,-0.0281 0.013,-0.0202 0.0238,-0.0589 0.0359,-0.0859 0.01,-0.0219 0.0186,-0.043 0.0282,-0.0688 0.0208,-0.058 0.0405,-0.12252 0.0578,-0.19687 0.008,-0.031 0.0158,-0.0493 0.0234,-0.0844 -6.6e-4,4.1e-4 -0.006,0.001 -0.006,0.002 0.0523,-0.25858 0.0859,-0.57083 0.0859,-0.8625 l -0.7,0 -0.12813,0 -0.0484,0 -0.27031,0 -0.56095,0 c 0,0.32 -0.0681,0.78863 -0.089,0.84063 -0.0272,0.0411 -0.0754,0.0756 -0.13438,0.10625 -0.0531,0.0283 -0.1271,0.0481 -0.20469,0.0656 -0.043,0.0101 -0.10766,0.0102 -0.15782,0.0172 l 0,-0.31407 -22.31095,0 0,-0.70156 0,-1.18125 -1.71093,0 -0.58594,0 c -0.0239,0 -0.0442,0.0111 -0.0672,0.0141 l 0,-0.0141 z m 0,50.51879 c -0.0746,0 -0.19967,0.0612 -0.30313,0.15156 -0.004,0.004 -0.007,0.007 -0.011,0.0109 -0.0849,0.0775 -0.15357,0.17415 -0.15625,0.27813 l 0,1.44375 -6.90625,0 0,6.71563 -0.7375,0 0,2.35625 0.7375,0 0,2.93907 -0.7375,0 0,2.35469 0.7375,0 0,2.35312 -0.7375,0 0,2.35469 0.7375,0 0,2.93751 -0.7375,0 0,2.35781 0.7375,0 0,6.71562 6.90625,0 0,1.45938 c 0.006,0.233 0.33031,0.43907 0.47031,0.43907 l 0,-0.0203 c 0.023,0.003 0.0434,0.0125 0.0672,0.0125 l 0.58594,0 0,0.008 1.71094,0 0,-1.18125 0,-0.7172 22.31095,0 0,-0.32187 c 0.0521,0.007 0.11968,0.006 0.16406,0.0172 0.059,0.014 0.11235,0.0311 0.15625,0.05 0.0788,0.0348 0.14373,0.0743 0.17657,0.12499 0.021,0.06 0.0891,0.52007 0.0891,0.83907 l 0.56094,0 0.27031,0 0.0484,0 0.12813,0 0.7,0 c 0,-0.29434 -0.0346,-0.60965 -0.0875,-0.86875 5e-4,2.7e-4 0.004,-2.7e-4 0.005,0 -0.005,-0.0228 -0.0106,-0.0337 -0.0156,-0.0547 -0.021,-0.0932 -0.0441,-0.1712 -0.0703,-0.23906 -0.005,-0.0119 -0.009,-0.0218 -0.0141,-0.0328 -0.0139,-0.0323 -0.0271,-0.0754 -0.0422,-0.0984 -0.008,-0.0122 -0.0182,-0.0211 -0.0266,-0.0328 -0.0257,-0.0399 -0.0494,-0.063 -0.075,-0.0891 -0.0386,-0.0432 -0.0788,-0.083 -0.12188,-0.11875 -0.003,-0.002 -0.006,-0.006 -0.009,-0.009 -0.002,-0.002 -0.004,-0.003 -0.006,-0.005 -0.0816,-0.0653 -0.17148,-0.10707 -0.2625,-0.15 -0.0516,-0.0246 -0.10039,-0.0501 -0.15313,-0.0687 -0.0787,-0.0275 -0.15093,-0.0492 -0.22813,-0.0656 -0.0463,-0.0102 -0.0804,-0.0179 -0.125,-0.025 -0.16832,-0.0262 -0.32567,-0.0393 -0.4328,-0.0406 l -0.002,0 -0.0859,0 -0.54063,0 0,-0.1375 1.14689,0 0,-28.43127 -1.14689,0 0,-0.15 0.009,0 -0.005,0.005 0.62188,0 0.002,-0.002 c 0.1153,-0.001 0.28812,-0.0167 0.47187,-0.0484 0.0125,-0.002 0.0218,-0.005 0.0344,-0.008 0.10273,-0.0194 0.20178,-0.0485 0.30782,-0.0875 0.0329,-0.0123 0.0628,-0.0292 0.0953,-0.0437 0.16161,-0.0717 0.31641,-0.16212 0.44218,-0.30625 0.0223,-0.0235 0.0434,-0.0436 0.0656,-0.0781 0.007,-0.0102 0.0164,-0.0176 0.0234,-0.0281 0.013,-0.0202 0.0238,-0.0589 0.0359,-0.0859 0.01,-0.0218 0.0186,-0.043 0.0282,-0.0688 0.0208,-0.058 0.0405,-0.12253 0.0578,-0.19687 0.008,-0.031 0.0158,-0.0492 0.0234,-0.0844 -6.6e-4,4e-4 -0.006,10e-4 -0.006,0.002 0.0523,-0.25858 0.0859,-0.57083 0.0859,-0.8625 l -0.7,0 -0.12813,0 -0.0484,0 -0.27031,0 -0.56095,0 c 0,0.32 -0.0681,0.78863 -0.089,0.84063 -0.0298,0.0449 -0.0856,0.0817 -0.15313,0.11406 -0.0482,0.0237 -0.11151,0.0407 -0.17813,0.0563 -0.0448,0.0107 -0.11296,0.0114 -0.16562,0.0187 l 0,-0.3125 -22.31095,0 0,-0.70313 0,-1.18125 -1.71094,0 -0.58594,0 c -0.0239,0 -0.0442,0.0111 -0.0672,0.0141 l 0,-0.0141 z m 16.66095,51.27346 0,0.006 -0.003,0 0,0.32188 0.0156,0 c 1.45455,0.10602 3.93281,0.65937 3.93281,0.65937 0,0 0.77,8e-4 1.575,0 -0.005,-0.002 -0.02,-0.005 -0.025,-0.006 0.12833,8e-4 0.70069,0.007 1.42657,0.006 -0.336,-0.117 -1.57813,-0.32968 -1.57813,-0.32968 0,0 -2.47894,-0.54388 -3.93594,-0.64688 l 0,0.16563 c -8e-4,-1.7e-4 -0.002,1.6e-4 -0.003,0 l 0,-0.17032 -1.35156,0 c -0.0159,-0.002 -0.0374,-0.005 -0.0531,-0.006 z m -39.93441,0.97189 0,0.6 0,2.30781 0,32.83908 0,0.60313 0,0.0125 43.87972,0 c 0,0 -2.49231,0.55582 -3.94531,0.65782 l -0.003,0 0,0.32187 0.003,0 0,0.008 c 0.0194,-0.002 0.0458,-0.006 0.0656,-0.008 l 1.33906,0 0,-0.17031 c 8e-4,-1.6e-4 0.002,1.6e-4 0.003,0 l 0,0.16719 c 1.457,-0.101 3.93594,-0.64844 3.93594,-0.64844 0,0 1.24213,-0.20913 1.57813,-0.32813 l 3.72187,0 0,-0.008 0.002,0 0,-8.98751 0.0969,0 c 0.329,0 0.6,-0.27112 0.6,-0.60312 l 0,-2.19844 c 0,-0.332 -0.276,-0.60313 -0.6,-0.60313 l -0.0969,0 0,-11.54219 0,-0.002 0.0969,0 c 0.329,-10e-6 0.6,-0.27269 0.6,-0.60469 l 0,-2.19531 c 0,-0.334 -0.276,-0.60313 -0.6,-0.60313 l -0.0969,0 0,-0.005 0,-8.99219 -0.002,0 -8.65938,0 0,-0.0187 -41.31409,0 -0.60469,0 z m -50.1969,12.64532 -1.72032,4.04062 0,2.21563 0,3.70938 0,27.1297 2.28282,0 13.70469,0 2.28282,0 0,-27.1297 0,-3.70938 0,-2.21563 -1.71875,-4.04062 -14.83126,0 z m -67.475046,5.40312 0,0.27813 0,1.99844 -1.785939,0 0,0.0766 -5.718754,0 c -0.4565,0 -0.872563,0.187 -1.173439,0.4875 -0.22521,0.22525 -0.386581,0.51388 -0.453125,0.8375 -2.04e-4,8e-4 2.04e-4,0.002 0,0.003 -0.02181,0.10708 -0.03438,0.21781 -0.03438,0.33125 l 0,0.003 0,0.41093 0,3.49688 -0.0125,0 0,27.5469 0.548438,0 1.396876,0 0.01094,0 41.801589,0 1.39218,0 0.55313,0 0,-1.14688 0,-20.83908 0.005,0 0,-0.82969 -0.005,0 0,-1.51406 0.005,0 0,-0.83125 -0.005,0 0,-2.38594 -0.0172,0 0,-3.90781 0,-0.003 c 0,-0.11344 -0.0126,-0.22417 -0.0344,-0.33125 -2.1e-4,-8e-4 2e-4,-0.002 0,-0.003 -0.0663,-0.32362 -0.22664,-0.61381 -0.45157,-0.83906 -0.3005,-0.3005 -0.717,-0.48594 -1.175,-0.48594 l -5.69532,0 0,-0.0766 -1.78436,0 0,-1.99844 0,-0.27813 -0.93595,0 0,0.27813 0,1.99844 -0.26406,0 0,-2.27657 -0.93594,0 0,0.27813 0,1.99844 -0.26562,0 0,-2.27657 -0.93438,0 0,0.27813 0,1.99844 -0.27031,0 0,-2.27657 -0.932808,0 0,0.27813 0,1.99844 -0.268752,0 0,-2.27657 -0.934377,0 0,0.27813 0,1.99844 -0.265624,0 0,-2.27657 -0.934376,0 0,0.27813 0,1.99844 -0.267185,0 0,-2.27657 -0.934376,0 0,0.27813 0,1.99844 -0.265624,0 0,-2.27657 -0.935945,0 0,0.27813 0,1.99844 -0.265624,0 0,-2.27657 -0.934377,0 0,0.27813 0,1.99844 -0.268744,0 0,-2.27657 -0.934377,0 0,0.27813 0,1.99844 -0.268752,0 0,-2.27657 -0.932808,0 0,0.27813 0,1.99844 -0.265633,0 0,-2.27657 -0.934368,0 0,0.27813 0,1.99844 -0.264064,0 0,-2.27657 -0.937505,0 0,0.27813 0,1.99844 -0.265624,0 0,-2.27657 -0.935937,0 0,0.27813 0,1.99844 -0.265624,0 0,-2.27657 -0.935937,0 0,0.27813 0,1.99844 -0.267192,0 0,-2.27657 -0.934376,0 0,0.27813 0,1.99844 -0.267185,0 0,-2.27657 -0.934376,0 0,0.27813 0,1.99844 -0.265624,0 0,-2.27657 -0.934377,0 0,0.27813 0,1.99844 -0.267192,0 0,-2.27657 -0.935937,0 0,0.27813 0,1.99844 -0.264064,0 0,-2.27657 -0.935937,0 0,0.27813 0,1.99844 -0.265624,0 0,-2.27657 -0.935935,0 0,0.27813 0,1.99844 -0.26875,0 0,-2.27657 -0.932813,0 0,0.27813 0,1.99844 -0.268751,0 0,-2.27657 -0.934375,0 z m -50.387534,17.69532 0,0.005 0,0.78751 -2.239063,0 -2.284377,0 0,0.45156 -0.0078,0.0203 0,5.02031 -0.83125,0 0,2.52344 0.83125,0 0,5.79688 -0.83125,1.29531 0.301562,0 0.529688,-0.45156 0.0016,-0.44844 -0.0016,0 0,-0.0906 0.0078,0 0,0.002 15.995322,0 0,0.0891 -0.0047,0 0.0047,0.44844 0.529689,0.45156 0.3,0 -0.829689,-1.29532 0,-13.8125 -0.164062,0 -0.0016,0 -4.36719,0 0,-0.78751 -0.748438,0 0,-0.005 -0.07344,0 0,0.7922 -0.707814,0 0,-0.78751 -0.746874,0 0,-0.005 -0.07187,0 0,0.79219 -0.710938,0 0,-0.7875 -0.748438,0 0,-0.005 -0.07344,0 0,0.79219 -0.709375,0 0,-0.7875 -0.745313,0 0,-0.005 -0.07187,0 0,0.79219 -0.709376,0 0,-0.7875 -0.748438,0 0,-0.005 -0.07344,0 z m 11.473445,6.28438 0,2.52344 0.826564,0 0,-2.52344 -0.826564,0 z"
       id="path59399"
       inkscape:connector-curvature="0" />
    <g
       transform="matrix(1.4940015,0,0,1.4940015,21.85458,-136.65768)"
       id="g59635">
      <path
         inkscape:connector-curvature="0"
         id="path59397"
         d="m 41.219731,300.15599 0,4.62657 0.52344,0 0.0359,-0.15469 c 0.13679,0.0753 0.27488,0.13451 0.41563,0.17813 0.14074,0.0456 0.30542,0.0688 0.49374,0.0688 0.2022,0 0.38776,-0.0383 0.55626,-0.11563 0.1685,-0.0793 0.32331,-0.19808 0.46406,-0.35469 0.13281,-0.15065 0.23831,-0.33578 0.31563,-0.55781 0.0793,-0.22202 0.11874,-0.47247 0.11874,-0.75 0,-0.54911 -0.11421,-0.97368 -0.34218,-1.275 -0.22599,-0.30132 -0.53563,-0.45312 -0.92813,-0.45312 -0.22004,0 -0.41889,0.0417 -0.59531,0.125 -0.17644,0.0813 -0.34184,0.18677 -0.49844,0.31562 l 0,-1.65313 -0.55937,0 z m 36.81877,0 0,1.43907 c -0.14868,-0.0773 -0.2902,-0.13308 -0.425,-0.16876 -0.1348,-0.0377 -0.28961,-0.0578 -0.46406,-0.0578 -0.19228,0 -0.37898,0.041 -0.55937,0.12031 -0.17842,0.0793 -0.33551,0.19309 -0.47031,0.34375 -0.13679,0.15463 -0.2453,0.34246 -0.32657,0.5625 -0.0793,0.22004 -0.11874,0.47007 -0.11874,0.75156 -1e-5,0.54119 0.11493,0.96504 0.34687,1.27032 0.23392,0.30528 0.55041,0.45781 0.94687,0.45781 0.20419,0 0.39274,-0.0383 0.56719,-0.11562 0.17445,-0.0773 0.34255,-0.18624 0.50312,-0.325 l 0,0.34843 0.55782,0 0,-4.62656 -0.55782,0 z m 5.2922,0 0,4.62657 0.55937,0 0,-4.62657 -0.55937,0 z m 5.07343,0.10625 c -0.22004,0 -0.44847,0.03 -0.68436,0.0875 -0.23393,0.0575 -0.42177,0.11968 -0.56251,0.18906 l 0,0.625 0.0297,0 c 0.20022,-0.13083 0.40549,-0.22719 0.61563,-0.29062 0.21012,-0.0634 0.40554,-0.0953 0.58593,-0.0953 0.27159,0 0.48372,0.0645 0.63438,0.19531 0.15264,0.12885 0.22813,0.30911 0.22813,0.53906 0,0.25176 -0.0702,0.48663 -0.21094,0.70469 -0.14075,0.21608 -0.4022,0.50785 -0.78282,0.87656 -0.18039,0.17643 -0.37424,0.35441 -0.58437,0.53282 l -0.625,0.53437 0,0.62188 2.99688,0 0,-0.50782 -2.38126,0 c 0.19626,-0.16651 0.40683,-0.34791 0.63282,-0.54218 0.22599,-0.19626 0.4457,-0.39811 0.65781,-0.60625 0.14868,-0.14472 0.27504,-0.27638 0.37812,-0.39532 0.10507,-0.11894 0.19613,-0.23959 0.27344,-0.3625 0.0833,-0.13083 0.1459,-0.26935 0.1875,-0.41406 0.0436,-0.14669 0.0641,-0.30337 0.0641,-0.47187 0,-0.37467 -0.12823,-0.67101 -0.38594,-0.88907 -0.2577,-0.22004 -0.61323,-0.33125 -1.06719,-0.33125 z m -25.16251,0.0625 0,0.58125 0.62969,0 0,-0.58125 -0.62969,0 z m 34.80783,0.0156 c -0.008,0.12885 -0.0386,0.23206 -0.0922,0.30937 -0.0515,0.0753 -0.12287,0.13794 -0.21407,0.1875 -0.0734,0.0397 -0.1807,0.0704 -0.32343,0.0922 -0.14273,0.0198 -0.27668,0.0297 -0.40157,0.0297 l 0,0.40469 0.92188,0 0,2.96719 -0.92188,0 0,0.45156 2.39688,0 0,-0.45156 -0.90468,0 0,-3.99063 -0.46095,0 z m 6.090639,0 c -0.008,0.12885 -0.0386,0.23206 -0.0922,0.30937 -0.0515,0.0753 -0.12288,0.13794 -0.21407,0.1875 -0.0734,0.0397 -0.18226,0.0704 -0.325,0.0922 -0.14272,0.0198 -0.27666,0.0297 -0.40156,0.0297 l 0,0.40469 0.92187,0 0,2.96719 -0.92187,0 0,0.45156 2.39687,0 0,-0.45156 -0.90312,0 0,-3.99063 -0.46093,0 z m -77.625052,0.0141 0,4.42813 0.589056,0 0,-1.75937 0.829689,0 1.481257,1.75937 0.764056,0 -1.665625,-1.93594 c 0.281496,-0.10903 0.503496,-0.27028 0.664064,-0.48438 0.160568,-0.21607 0.240625,-0.48396 0.240625,-0.80312 0,-0.2359 -0.04632,-0.43017 -0.137497,-0.58282 -0.08921,-0.15462 -0.214432,-0.28171 -0.375,-0.38281 -0.142728,-0.0892 -0.30284,-0.15067 -0.481248,-0.18437 -0.178416,-0.0357 -0.401136,-0.0547 -0.668753,-0.0547 l -1.240624,0 z m 33.125023,0 0,4.42813 0.58905,0 0,-1.65 0.58907,0 c 0.31718,0 0.57935,-0.0372 0.7875,-0.1125 0.20815,-0.0773 0.38954,-0.19267 0.54219,-0.34531 0.12291,-0.12291 0.21697,-0.26786 0.28437,-0.43438 0.0694,-0.1685 0.10469,-0.35062 0.10469,-0.54687 0,-0.25771 -0.0459,-0.47057 -0.13906,-0.63907 -0.0912,-0.1685 -0.22212,-0.31044 -0.39063,-0.42343 -0.14272,-0.0952 -0.30626,-0.1642 -0.49062,-0.20782 -0.18436,-0.0456 -0.40936,-0.0688 -0.675,-0.0688 l -1.20156,0 z m 7.47032,0 0,4.42813 0.55,0 0,-3.81406 1.22187,2.59531 0.35156,0 1.23126,-2.59531 0,3.81406 0.58749,0 0,-4.42813 -0.81718,0 -1.1422,2.46563 -1.17968,-2.46563 -0.80312,0 z m -40.006287,0.50625 0.693752,0 c 0.158593,0 0.295545,0.0122 0.412505,0.0359 0.11696,0.0218 0.21788,0.0613 0.30312,0.11875 0.10308,0.0674 0.176704,0.15088 0.220312,0.25 0.0456,0.0971 0.06872,0.20907 0.06872,0.33594 0,0.16652 -0.022,0.30347 -0.0656,0.4125 -0.0416,0.10704 -0.107672,0.20268 -0.196872,0.28594 -0.09714,0.0892 -0.21436,0.15067 -0.353128,0.18437 -0.138768,0.0317 -0.301161,0.0484 -0.487505,0.0484 l -0.595312,0 0,-1.67188 z m 33.125017,0 0.58282,0 c 0.18634,0 0.34001,0.0144 0.46094,0.0422 0.12291,0.0258 0.23297,0.0682 0.32813,0.12969 0.10901,0.0714 0.19021,0.16356 0.24375,0.27656 0.0535,0.11299 0.0797,0.24579 0.0797,0.39844 0,0.13083 -0.0197,0.24962 -0.0594,0.35468 -0.0377,0.10507 -0.10371,0.20485 -0.19688,0.3 -0.0932,0.0932 -0.21383,0.16108 -0.3625,0.20469 -0.14868,0.0416 -0.34181,0.0625 -0.57969,0.0625 l -0.49688,0 0,-1.76876 z m -21.15001,0.50782 c -0.21012,0 -0.40897,0.0429 -0.59531,0.12812 -0.18436,0.0833 -0.35132,0.18761 -0.500002,0.3125 l 0,-0.34844 -0.557808,0 0,4.54688 0.557808,0 0,-1.39062 c 0.144712,0.0793 0.287802,0.13733 0.426572,0.175 0.14074,0.0377 0.29628,0.0562 0.46874,0.0562 0.19824,0 0.38608,-0.0394 0.56251,-0.11874 0.17841,-0.0813 0.33323,-0.1955 0.46406,-0.34219 0.14075,-0.15463 0.24926,-0.3436 0.32656,-0.56563 0.0773,-0.224 0.11562,-0.46946 0.11562,-0.73906 0,-0.53722 -0.11192,-0.9565 -0.33593,-1.25781 -0.22202,-0.30331 -0.53238,-0.45625 -0.93282,-0.45625 z m 7.31407,0 c -0.48369,0 -0.87452,0.16052 -1.17187,0.47968 -0.29538,0.31916 -0.4422,0.75059 -0.4422,1.29376 0,0.54911 0.15482,0.97254 0.46407,1.27187 0.30925,0.29735 0.73954,0.44688 1.29062,0.44688 0.21608,0 0.4225,-0.0277 0.61876,-0.0813 0.19625,-0.0535 0.38824,-0.11915 0.57656,-0.19844 l 0,-0.60938 -0.0297,0 c -0.0971,0.0872 -0.26067,0.176 -0.49063,0.26719 -0.22797,0.0892 -0.45526,0.13438 -0.68125,0.13438 -0.17048,0 -0.32758,-0.0243 -0.47031,-0.0719 -0.14074,-0.0476 -0.26253,-0.1189 -0.36562,-0.21406 -0.10703,-0.0971 -0.19166,-0.22121 -0.25313,-0.37187 -0.0614,-0.15264 -0.0922,-0.33176 -0.0922,-0.53594 l 2.44844,0 0,-0.30313 c 0,-0.48171 -0.1218,-0.85239 -0.36564,-1.11406 -0.24184,-0.26167 -0.58792,-0.39375 -1.03593,-0.39375 z m 27.11095,0 c -0.46981,0 -0.84433,0.15824 -1.12187,0.47343 -0.27554,0.31322 -0.4125,0.74007 -0.4125,1.28126 0,0.54118 0.13696,0.96803 0.4125,1.28125 0.27754,0.31321 0.65206,0.47031 1.12187,0.47031 0.46586,0 0.83654,-0.1571 1.11407,-0.47031 0.27753,-0.31322 0.41719,-0.74007 0.41719,-1.28125 0,-0.54119 -0.13966,-0.96804 -0.41719,-1.28126 -0.27753,-0.31519 -0.64821,-0.47343 -1.11407,-0.47343 z m 7.57345,0 c -0.4837,0 -0.87452,0.16052 -1.17187,0.47968 -0.29538,0.31916 -0.44376,0.75059 -0.44376,1.29376 0,0.54911 0.15482,0.97254 0.46407,1.27187 0.30925,0.29735 0.73952,0.44688 1.29062,0.44688 0.21607,0 0.4225,-0.0277 0.61876,-0.0813 0.19624,-0.0535 0.38823,-0.11915 0.57656,-0.19844 l 0,-0.60938 -0.0297,0 c -0.0971,0.0872 -0.26068,0.176 -0.49063,0.26719 -0.22797,0.0892 -0.45526,0.13438 -0.68125,0.13438 -0.17048,0 -0.32601,-0.0243 -0.46875,-0.0719 -0.14074,-0.0476 -0.26411,-0.1189 -0.36718,-0.21406 -0.10704,-0.0971 -0.1901,-0.22121 -0.25157,-0.37187 -0.0614,-0.15264 -0.0922,-0.33176 -0.0922,-0.53594 l 2.44688,0 0,-0.30313 c 0,-0.48171 -0.12179,-0.85239 -0.36563,-1.11406 -0.24184,-0.26167 -0.58636,-0.39375 -1.03437,-0.39375 z m -49.354722,0.0125 c -0.200216,0 -0.404768,0.0174 -0.610936,0.0531 -0.206169,0.0357 -0.362849,0.0687 -0.471873,0.0984 l 0,0.56875 0.02968,0 c 0.192288,-0.0734 0.378977,-0.12952 0.559369,-0.16719 0.1804,-0.0396 0.343936,-0.0594 0.490632,-0.0594 0.12092,0 0.235856,0.008 0.346872,0.0234 0.111008,0.0159 0.20664,0.0466 0.285936,0.0922 0.08326,0.0476 0.147017,0.11362 0.190625,0.19688 0.0456,0.0833 0.06872,0.18875 0.06872,0.31562 l 0,0.0859 c -0.325105,0.0159 -0.630585,0.0386 -0.914065,0.0703 -0.283472,0.0317 -0.52592,0.092 -0.72812,0.18125 -0.200225,0.0892 -0.355041,0.21215 -0.464065,0.36875 -0.107048,0.15462 -0.160936,0.35918 -0.160936,0.61094 0,0.30726 0.104352,0.55958 0.312496,0.75781 0.208144,0.19824 0.461601,0.29688 0.760937,0.29688 0.162552,0 0.30564,-0.0152 0.426568,-0.0469 0.12092,-0.0297 0.227136,-0.0685 0.320312,-0.11406 0.07928,-0.0357 0.160488,-0.0827 0.243744,-0.14219 0.08524,-0.0615 0.153569,-0.10848 0.203129,-0.14218 l 0,0.35312 0.554688,0 0,-2.25312 c 0,-0.2141 -0.03144,-0.39436 -0.09687,-0.53907 -0.06544,-0.14471 -0.161056,-0.26193 -0.285944,-0.35312 -0.126872,-0.0932 -0.277112,-0.15921 -0.451561,-0.19688 -0.172464,-0.0396 -0.375456,-0.0594 -0.609376,-0.0594 z m 3.659378,0 c -0.212112,0 -0.404096,0.0273 -0.57656,0.0828 -0.170488,0.0535 -0.310864,0.12715 -0.42188,0.22032 -0.114976,0.0952 -0.201888,0.20407 -0.259368,0.325 -0.05552,0.12092 -0.08282,0.24915 -0.08282,0.38593 0,0.21806 0.06032,0.40247 0.181248,0.55313 0.122912,0.14868 0.330472,0.26175 0.62188,0.33906 0.105064,0.0277 0.22,0.0528 0.346872,0.0766 0.128856,0.0238 0.233208,0.0447 0.312497,0.0625 0.214096,0.0476 0.359048,0.10603 0.434376,0.17343 0.07536,0.0674 0.112504,0.16604 0.112504,0.29688 0,0.17048 -0.06904,0.29571 -0.207816,0.375 -0.13876,0.0793 -0.330744,0.11875 -0.576561,0.11875 -0.198232,0 -0.4058,-0.0383 -0.621872,-0.11563 -0.21608,-0.0793 -0.41264,-0.18593 -0.589064,-0.31875 l -0.02968,0 0,0.62813 c 0.13876,0.0694 0.31144,0.13271 0.515624,0.19219 0.206168,0.0575 0.432312,0.0875 0.678128,0.0875 0.434137,0 0.775225,-0.0979 1.025001,-0.29219 0.251752,-0.19427 0.37812,-0.44358 0.37812,-0.74688 0,-0.24184 -0.07016,-0.43611 -0.210936,-0.58281 -0.140744,-0.14471 -0.341872,-0.24678 -0.60156,-0.30625 -0.08524,-0.0198 -0.191464,-0.0418 -0.320312,-0.0656 -0.126873,-0.0238 -0.242233,-0.0465 -0.345313,-0.0703 -0.186344,-0.0436 -0.321432,-0.10093 -0.404688,-0.17031 -0.08525,-0.0694 -0.128128,-0.17259 -0.128128,-0.30937 0,-0.15463 0.07016,-0.26957 0.210936,-0.34688 0.140752,-0.0793 0.314568,-0.11875 0.518752,-0.11875 0.196257,0 0.395817,0.036 0.600001,0.10938 0.204184,0.0714 0.377584,0.15899 0.520312,0.26406 l 0.02968,0 0,-0.59688 c -0.1348,-0.0694 -0.303632,-0.12742 -0.507816,-0.175 -0.2022,-0.0496 -0.40332,-0.075 -0.601561,-0.075 z m 13.259384,0.0797 0,3.32188 0.55938,0 0,-2.35782 c 0.14867,-0.12092 0.30349,-0.21842 0.46406,-0.29375 0.16056,-0.0773 0.32597,-0.11719 0.49843,-0.11719 0.10705,0 0.19925,0.006 0.27657,0.0156 0.0793,0.008 0.16049,0.0224 0.24375,0.0422 l 0.0297,0 0,-0.575 c -0.0872,-0.0139 -0.15172,-0.0226 -0.19532,-0.0266 -0.0436,-0.006 -0.1138,-0.009 -0.21093,-0.009 -0.17643,0 -0.34983,0.0387 -0.52031,0.11406 -0.1685,0.0733 -0.36392,0.19815 -0.58594,0.37656 l 0,-0.49062 -0.55938,0 z m 2.60469,0 0,3.32188 0.55938,0 0,-2.35782 c 0.14868,-0.12092 0.30349,-0.21842 0.46406,-0.29375 0.16057,-0.0773 0.32597,-0.11719 0.49843,-0.11719 0.10705,0 0.19925,0.006 0.27657,0.0156 0.0793,0.008 0.16205,0.0224 0.24531,0.0422 l 0.0297,0 0,-0.575 c -0.0872,-0.0139 -0.15328,-0.0226 -0.19688,-0.0266 -0.0436,-0.006 -0.1138,-0.009 -0.21093,-0.009 -0.17643,0 -0.34983,0.0387 -0.52031,0.11406 -0.16851,0.0733 -0.36392,0.19815 -0.58594,0.37656 l 0,-0.49062 -0.55938,0 z m 2.23594,0 1.32344,3.16094 -0.61875,1.38594 0.59844,0 1.93906,-4.54688 -0.58594,0 -1.02969,2.4625 -1.02031,-2.4625 -0.60625,0 z m 9.79532,0 0,3.32188 0.55937,0 0,-3.32188 -0.55937,0 z m 29.49064,0 1.33594,3.32188 0.5625,0 1.34375,-3.32188 -0.58593,0 -1.02032,2.64375 -1.02812,-2.64375 -0.60782,0 z m -46.40472,0.36875 c 0.29735,0 0.51935,0.0816 0.66407,0.24219 0.14668,0.16057 0.21988,0.3863 0.22187,0.67968 l -1.90312,0 c 0.0238,-0.26167 0.12513,-0.47982 0.30156,-0.65625 0.17841,-0.17643 0.41629,-0.26562 0.71562,-0.26562 z m 34.6844,0 c 0.29736,0 0.51779,0.0816 0.66251,0.24219 0.14668,0.16057 0.22143,0.3863 0.22343,0.67968 l -1.90312,0 c 0.0238,-0.26167 0.12356,-0.47982 0.3,-0.65625 0.1784,-0.17643 0.41785,-0.26562 0.71718,-0.26562 z m -7.54376,0.0219 c 0.29934,0 0.53307,0.10394 0.70157,0.31406 0.1685,0.20815 0.25156,0.52765 0.25156,0.95782 0,0.42026 -0.0842,0.73747 -0.25469,0.95156 -0.16849,0.21211 -0.40108,0.31875 -0.69844,0.31875 -0.30132,0 -0.53774,-0.10778 -0.70624,-0.32187 -0.1685,-0.21608 -0.25156,-0.53215 -0.25156,-0.94844 0,-0.43017 0.0835,-0.74967 0.25,-0.95782 0.16849,-0.21012 0.4045,-0.31406 0.7078,-0.31406 z m 3.74064,0.0297 c 0.14074,0 0.27011,0.0133 0.38905,0.0391 0.11895,0.0258 0.25404,0.0717 0.40469,0.13907 l 0,1.90625 c -0.14074,0.11101 -0.29213,0.20207 -0.45469,0.27343 -0.16255,0.0694 -0.32421,0.10313 -0.4828,0.10313 -0.29736,0 -0.51364,-0.10207 -0.64844,-0.30625 -0.1348,-0.20617 -0.20156,-0.50551 -0.20156,-0.9 0,-0.40044 0.0865,-0.71007 0.26093,-0.92813 0.17445,-0.21806 0.4196,-0.32656 0.73282,-0.32656 z m -38.3094,0.0203 c 0.28348,0 0.49446,0.0986 0.63125,0.29688 0.13678,0.19823 0.20468,0.498 0.20468,0.89844 0,0.41233 -0.0865,0.72424 -0.26093,0.93437 -0.17445,0.21013 -0.41847,0.31406 -0.72969,0.31406 -0.14471,0 -0.27409,-0.0117 -0.38907,-0.0375 -0.113,-0.0258 -0.24922,-0.0755 -0.407812,-0.14688 l 0,-1.88125 c 0.148682,-0.11299 0.304642,-0.20405 0.467192,-0.27344 0.16255,-0.0694 0.32381,-0.10468 0.48438,-0.10468 z m 3.80156,0 c 0.29141,0 0.50198,0.10321 0.63282,0.30938 0.13084,0.20418 0.19531,0.50509 0.19531,0.90156 0,0.43414 -0.0876,0.75207 -0.26407,0.95625 -0.17444,0.2022 -0.41575,0.30469 -0.725,0.30469 -0.14471,0 -0.27565,-0.0144 -0.39062,-0.0422 -0.113,-0.0277 -0.24767,-0.0771 -0.40626,-0.14843 l 0,-1.90313 c 0.14274,-0.11101 0.29755,-0.20093 0.46407,-0.27031 0.16652,-0.0714 0.3312,-0.10782 0.49375,-0.10782 z m -10.125007,1.13907 0,0.925 c -0.138768,0.10704 -0.290569,0.19925 -0.453129,0.27656 -0.162552,0.0753 -0.34124,0.1125 -0.537496,0.1125 -0.235904,0 -0.411584,-0.047 -0.52656,-0.14219 -0.114984,-0.0971 -0.17188,-0.24094 -0.17188,-0.43125 0,-0.1685 0.04936,-0.30016 0.14844,-0.39531 0.09912,-0.0971 0.228488,-0.16847 0.389064,-0.21406 0.1348,-0.0377 0.31692,-0.0661 0.546872,-0.0859 0.231936,-0.0198 0.434209,-0.0354 0.604689,-0.0453 z m 68.209416,0.89531 0,0.84687 0.71094,0 0,-0.84687 -0.71094,0 z"
         style="font-size:6.08979988px;font-family:DroidSans;fill:#ffffff" />
      <path
         inkscape:connector-curvature="0"
         id="path59403"
         d="m 57.498788,247.79051 c -0.239976,0.008 -0.496092,0.0981 -0.789064,0.32813 -0.715927,-0.27701 -1.413439,-0.37239 -2.034376,0.19062 -0.959902,-0.125 -1.2704,0.13225 -1.509376,0.43125 -0.206979,-0.004 -1.57719,-0.21626 -2.203126,0.71875 -1.57384,-0.187 -2.074445,0.92505 -1.512501,1.96407 -0.319968,0.49801 -0.652049,0.99004 0.09688,1.93906 -0.263974,0.53001 -0.100811,1.10243 0.528125,1.79844 -0.165983,0.74102 0.160373,1.26699 0.745313,1.675 -0.110989,1.01702 0.930783,1.60819 1.243751,1.81719 0.117988,0.59301 0.363935,1.15093 1.557814,1.46094 0.194979,0.88102 0.910508,1.03687 1.598438,1.22187 -2.285767,1.32803 -4.248251,3.07936 -4.231253,7.37345 l -0.335937,0.59531 c -2.624733,1.59903 -4.983938,6.72867 -1.295314,10.89376 0.244975,1.30802 0.645849,2.24223 1.007813,3.28125 0.535945,4.17808 4.052223,6.13306 4.978128,6.36407 1.360861,1.03901 2.805141,2.01911 4.760941,2.70313 1.845813,1.90403 3.843896,2.63168 5.854691,2.62968 l 0.0875,0 c 2.011795,0 4.008879,-0.72565 5.854691,-2.62968 1.9578,-0.68702 3.404642,-1.67012 4.762503,-2.70313 0.926905,-0.22901 4.440746,-2.18799 4.979691,-6.36407 0.358963,-1.03902 0.763713,-1.97523 1.004689,-3.28125 3.694622,-4.16609 1.33323,-9.29573 -1.287501,-10.89376 l -0.335938,-0.59531 c 0.015,-4.29309 -1.950736,-6.04442 -4.237503,-7.37345 0.696928,-0.186 1.405146,-0.33885 1.603126,-1.22187 1.186879,-0.30901 1.436263,-0.86793 1.556251,-1.46094 0.309968,-0.208 1.353302,-0.80117 1.245313,-1.81719 0.581941,-0.40801 0.906734,-0.93398 0.743751,-1.675 0.625936,-0.69401 0.789973,-1.26943 0.525,-1.79844 0.754923,-0.94902 0.420842,-1.44105 0.09687,-1.93906 0.561942,-1.04002 0.06958,-2.15007 -1.506251,-1.96407 -0.627936,-0.93401 -1.990711,-0.72075 -2.204688,-0.71875 -0.235977,-0.299 -0.548475,-0.55725 -1.509377,-0.43125 -0.620937,-0.56301 -1.317887,-0.46663 -2.032814,-0.19062 -0.853912,-0.67001 -1.416878,-0.13369 -2.057813,0.0703 -1.032894,-0.33601 -1.263929,0.1235 -1.771876,0.3125 -1.123886,-0.237 -1.465181,0.28055 -2.003127,0.82656 l -0.629688,-0.0141 c -1.695827,0.99902 -2.538969,3.03167 -2.83594,4.07969 -0.299967,-1.04602 -1.139549,-3.08067 -2.834376,-4.07969 l -0.625,0.0141 c -0.538945,-0.54601 -0.882367,-1.06356 -2.006252,-0.82656 -0.505949,-0.188 -0.742419,-0.64651 -1.770314,-0.3125 -0.424955,-0.134 -0.814923,-0.41444 -1.271875,-0.39844 z m 0.05625,1.20313 c 0.858913,0.32001 1.304798,0.72993 1.768751,1.13594 0.158983,-0.21201 0.400783,-0.36937 0.107813,-0.88438 0.610937,0.35101 1.070535,0.76568 1.4125,1.22969 0.379962,-0.241 0.226689,-0.56987 0.229689,-0.87188 0.635934,0.51801 1.0363,1.06568 1.53125,1.60469 0.100991,-0.074 0.188071,-0.3208 0.264063,-0.70781 1.513846,1.47103 3.659246,5.17516 0.551563,6.64219 -2.636731,-2.18204 -5.795113,-3.76723 -9.293756,-4.95625 4.49654,2.31804 7.113901,4.19428 8.543755,5.79532 -0.732924,2.93805 -4.562647,3.07362 -5.962504,2.99062 0.288971,-0.134 0.527384,-0.29249 0.609376,-0.5375 -0.350964,-0.25 -1.597716,-0.0265 -2.465627,-0.5125 0.335966,-0.07 0.488767,-0.13637 0.64375,-0.38437 -0.817915,-0.25901 -1.704616,-0.48687 -2.226564,-0.92188 0.281973,0.003 0.541977,0.0648 0.910939,-0.19219 -0.735924,-0.39401 -1.521313,-0.71117 -2.131251,-1.31719 0.379961,-0.009 0.79195,-0.004 0.910937,-0.14218 -0.672931,-0.41701 -1.242549,-0.88049 -1.7125,-1.3875 0.532944,0.062 0.756951,0.008 0.885937,-0.0844 -0.508947,-0.52101 -1.151406,-0.96224 -1.459375,-1.60625 0.393959,0.137 0.755652,0.1885 1.015625,-0.0125 -0.170982,-0.39101 -0.913106,-0.62124 -1.339063,-1.53125 0.419957,0.04 0.859884,0.092 0.946876,0 -0.192982,-0.78802 -0.524034,-1.23206 -0.850001,-1.68907 0.889909,-0.013 2.23812,0.005 2.178126,-0.0687 l -0.55,-0.56406 c 0.867912,-0.23201 1.760192,0.0366 2.403126,0.24062 0.29197,-0.229 -0.0029,-0.51793 -0.357813,-0.81094 0.740926,0.096 1.409001,0.269 2.010939,0.5 0.319969,-0.291 -0.209776,-0.58399 -0.46875,-0.875 1.140884,0.21701 1.626863,0.52212 2.107814,0.82813 0.348965,-0.33501 0.02035,-0.61737 -0.215625,-0.90938 z m 17.004698,0.002 c -0.236974,0.29201 -0.564463,0.57437 -0.212499,0.90938 0.478951,-0.30501 0.962805,-0.60856 2.104689,-0.82657 -0.258973,0.29101 -0.790155,0.58243 -0.467189,0.87344 0.60294,-0.23201 1.268016,-0.405 2.010939,-0.5 -0.357963,0.29301 -0.652033,0.58349 -0.364062,0.8125 0.646934,-0.204 1.539902,-0.47419 2.407814,-0.24219 l -0.55,0.56407 c -0.06299,0.074 1.287654,0.0557 2.176563,0.0687 -0.323965,0.45701 -0.65502,0.90104 -0.85,1.68906 0.08799,0.092 0.526356,0.04 0.945313,0 -0.424957,0.91002 -1.168644,1.14024 -1.340626,1.53125 0.261973,0.20101 0.624791,0.15107 1.018751,0.0141 -0.304969,0.64401 -0.95299,1.08367 -1.460939,1.60468 0.128988,0.092 0.352993,0.14638 0.885939,0.0844 -0.467953,0.50701 -1.035446,0.97049 -1.709377,1.3875 0.119987,0.138 0.528977,0.13319 0.910938,0.14219 -0.611938,0.60601 -1.393326,0.92318 -2.131251,1.31719 0.367963,0.257 0.626841,0.19518 0.907813,0.19218 -0.518948,0.43501 -1.405211,0.66287 -2.228126,0.92188 0.157984,0.248 0.314472,0.31494 0.648438,0.38594 -0.869911,0.48501 -2.115226,0.26205 -2.46719,0.51406 0.08099,0.245 0.321406,0.40194 0.609376,0.53594 -1.398857,0.083 -5.228017,-0.0516 -5.960942,-2.99063 1.431855,-1.60103 4.046341,-3.47727 8.546881,-5.79532 -3.500642,1.18903 -6.657588,2.77578 -9.295319,4.95782 -3.105683,-1.46903 -0.963719,-5.17272 0.553126,-6.64375 0.07399,0.387 0.159947,0.63225 0.260937,0.70625 0.494949,-0.53901 0.897441,-1.08668 1.534376,-1.60469 9.6e-4,0.302 -0.152961,0.63243 0.225,0.87344 0.341965,-0.46501 0.802126,-0.88125 1.414064,-1.23126 -0.29497,0.51501 -0.05118,0.67294 0.107813,0.88594 0.463953,-0.40501 0.906839,-0.81649 1.76875,-1.1375 z m 7.925006,10.38438 c -1.14827,0 -2.081251,0.93535 -2.081251,2.08281 0,1.14747 0.933087,2.07969 2.081251,2.07969 1.145421,0 2.079689,-0.93212 2.079689,-2.07969 0,-1.14746 -0.933439,-2.08172 -2.079689,-2.08281 z m 0,0.33438 c 0.965534,8.8e-4 1.743751,0.78186 1.743751,1.74843 0,0.96648 -0.779389,1.74376 -1.743751,1.74376 -0.967618,0 -1.748438,-0.77718 -1.748438,-1.74376 0,-0.96657 0.780925,-1.74843 1.748438,-1.74843 z m -1.387501,1.09062 0,0.24063 0.421875,0 0,1.18281 0.2875,0 0,-1.18281 0.420313,0 0,-0.24063 -1.129688,0 z m 1.310938,0 0,1.42344 0.267188,0 0,-1.12031 0.282813,1.12031 0.275,0 0.282813,-1.12031 0,1.12031 0.264062,0 0,-1.42344 -0.429687,0 -0.254688,0.97188 -0.25625,-0.97188 -0.431251,0 z m -16.417198,0.3 c 2.202775,-0.023 4.931315,1.6456 4.920316,3.21563 -0.006,1.38903 -1.911871,2.51206 -4.901566,2.48906 -2.926702,-0.036 -4.894502,-1.41122 -4.887503,-2.75625 0.005,-1.10302 2.386006,-3.01244 4.868753,-2.94844 z m -7.49688,0.93438 c 0.492499,-0.009 1.001679,0.0294 1.521876,0.11719 1.530844,0.26 -7.342706,8.01128 -7.479692,6.28125 -0.119863,-3.94808 2.510326,-6.33426 5.957816,-6.39844 z m 14.535947,0.13594 c 3.445535,0.0632 6.078742,2.44811 5.956254,6.39531 -0.132986,1.72804 -9.009973,-6.02312 -7.47813,-6.27813 0.519697,-0.088 1.029657,-0.12621 1.521876,-0.11718 z m -1.696876,4.81094 c 1.791843,-0.0204 3.685813,0.98921 4.881253,2.79531 1.733823,2.62805 1.331773,5.94266 -0.9,7.40469 -2.232772,1.46304 -5.44912,0.51924 -7.185943,-2.10781 -1.733822,-2.62605 -1.331772,-5.94266 0.900001,-7.40469 0.696804,-0.45658 1.490215,-0.67823 2.304689,-0.6875 z m -10.632819,0.27187 c 0.81249,0.008 1.604759,0.22874 2.301564,0.68125 2.236771,1.45403 2.649448,4.76739 0.915625,7.39844 -1.727823,2.63106 -4.94817,3.58416 -7.185942,2.12813 -0.005,-0.003 -0.01287,-0.007 -0.02187,-0.0156 -2.227772,-1.46703 -2.62151,-4.78633 -0.879688,-7.40938 1.196129,-1.79579 3.082837,-2.80089 4.870316,-2.78282 z m 18.782824,2.91094 c 0.06762,-10e-4 0.138727,0.008 0.214064,0.0281 3.999591,2.28504 3.305218,7.36441 1.148437,9.09844 -1.898556,0.84574 -3.458602,-9.09276 -1.362501,-9.12657 z m -27.425018,0.13594 c 2.09525,0.0337 0.535462,9.9723 -1.364063,9.12657 -2.15478,-1.73304 -2.848591,-6.8174 1.150001,-9.09845 0.0753,-0.0202 0.146474,-0.0292 0.214062,-0.0281 z m 14.046885,6.85157 c 2.976696,-0.007 5.394567,2.21332 5.401566,4.95937 l 0,0.0156 c -0.007,2.74406 -2.42487,4.96538 -5.401566,4.95938 -2.964698,-0.006 -5.369566,-2.22232 -5.376566,-4.95938 -0.005,-2.74505 2.400868,-4.973 5.376566,-4.975 z m 11.921883,1.85781 c 0.420675,-0.0103 0.815099,0.10862 1.170313,0.38438 0.956902,0.95001 1.518579,4.54046 -0.15625,6.6875 -2.303765,3.20206 -5.428185,3.32596 -6.589067,2.43594 -1.217875,-1.14602 -0.286704,-4.71146 1.378126,-6.6625 1.431604,-1.61853 2.93485,-2.81433 4.196878,-2.84532 z m -24.185954,0.76094 c 1.356659,0.0574 2.98195,1.12897 4.307816,2.66875 1.541842,1.86204 2.244244,5.12036 0.959375,6.08438 -1.214876,0.73102 -4.172094,0.43455 -6.271879,-2.5875 -1.418856,-2.53305 -1.235087,-5.10905 -0.242188,-5.86407 0.371712,-0.22651 0.794657,-0.32071 1.246876,-0.30156 z m 12.300008,8.89688 c 2.166779,-0.094 5.070004,0.69585 5.075004,1.74688 0.034,1.01801 -2.632581,3.32182 -5.220317,3.28281 -2.672726,0.11101 -5.298186,-2.1983 -5.26719,-2.99532 -0.036,-1.17202 3.263723,-2.08537 5.412503,-2.03437 z"
         style="fill:#ffffff" />
    </g>
    <path
       style="fill:#b8af82"
       d="m 9.9203194,198.79361 c -4.8520003,0 -8.7875062,3.9355 -8.7875062,8.7875 0,4.854 3.9355059,8.78751 8.7875062,8.78751 4.8539996,0 8.7875056,-3.93451 8.7875056,-8.78751 0,-4.853 -3.933506,-8.7875 -8.7875056,-8.7875 z m 164.4094806,0 c -4.852,0 -8.78438,3.9355 -8.78438,8.7875 0,4.854 3.93438,8.78751 8.78438,8.78751 4.85501,0 8.78907,-3.93451 8.78907,-8.78751 0,-4.853 -3.93406,-8.7875 -8.78907,-8.7875 z M 9.9203194,203.68267 c 2.1529996,0 3.8984406,1.74644 3.8984406,3.89844 0,2.153 -1.746441,3.89688 -3.8984406,3.89688 -2.1520003,0 -3.8968779,-1.74388 -3.8968779,-3.89688 0,-2.152 1.7448776,-3.89844 3.8968779,-3.89844 z m 164.4110406,0 c 2.152,0 3.89689,1.74644 3.89689,3.89844 0,2.153 -1.74489,3.89688 -3.89689,3.89688 -2.151,0 -3.89687,-1.74388 -3.89687,-3.89688 0,-2.152 1.74587,-3.89844 3.89687,-3.89844 z M 9.9203194,337.69057 c -4.8520003,0 -8.7875062,3.93595 -8.7875062,8.78594 0,4.85401 3.9355059,8.78907 8.7875062,8.78907 4.8539996,0 8.7875056,-3.93706 8.7875056,-8.78907 0,-4.85099 -3.933506,-8.78594 -8.7875056,-8.78594 z m 164.4094806,0 c -4.852,0 -8.78438,3.93595 -8.78438,8.78594 0,4.85401 3.93438,8.78907 8.78438,8.78907 4.85501,0 8.78907,-3.93706 8.78907,-8.78907 0,-4.85099 -3.93406,-8.78594 -8.78907,-8.78594 z M 9.9203194,342.5812 c 2.1529996,0 3.8984406,1.74488 3.8984406,3.89688 0,2.154 -1.746441,3.89688 -3.8984406,3.89688 -2.1520003,0 -3.8968779,-1.74288 -3.8968779,-3.89688 0,-2.152 1.7448776,-3.89688 3.8968779,-3.89688 z m 164.4110406,0 c 2.152,0 3.89689,1.74488 3.89689,3.89688 0,2.154 -1.74489,3.89688 -3.89689,3.89688 -2.151,0 -3.89687,-1.74288 -3.89687,-3.89688 0,-2.152 1.74587,-3.89688 3.89687,-3.89688 z"
       id="path59405"
       inkscape:connector-curvature="0" />
    <path
       style="fill:#404040"
       d="m 21.689077,199.29361 -1.565626,1.50937 0,3.92657 0,3.33594 0,3.92812 1.565626,1.50782 4.070315,0 1.564064,-1.50782 1.565626,1.50782 4.070315,0 1.564063,-1.50782 0,-3.92812 0,-3.33594 0,-3.92657 -1.564063,-1.50937 -4.070315,0 -1.565626,1.50937 -1.564064,-1.50937 -4.070315,0 z m 14.400009,0 -1.564063,1.50937 0,3.92657 0,3.33594 0,3.92812 1.564063,1.50782 4.070316,0 1.564063,-1.50782 0,-3.92812 0,-3.33594 0,-3.92657 -1.564063,-1.50937 -4.070316,0 z m 7.200005,0 -1.564063,1.50937 0,3.92657 0,3.33594 0,3.92812 1.564063,1.50782 4.070316,0 1.564063,-1.50782 0,-3.92812 0,-3.33594 0,-3.92657 -1.564063,-1.50937 -4.070316,0 z m 7.200005,0 -1.564064,1.50937 0,3.92657 0,3.33594 0,3.92812 1.564064,1.50782 4.070315,0 1.564064,-1.50782 0,-3.92812 0,-3.33594 0,-3.92657 -1.564064,-1.50937 -4.070315,0 z m 7.201567,0 -1.565626,1.50937 0,3.92657 0,3.33594 0,3.92812 1.565626,1.50782 4.068753,0 1.564064,-1.50782 0,-3.92812 0,-3.33594 0,-3.92657 -1.564064,-1.50937 -4.068753,0 z m 7.200005,0 -1.565626,1.50937 0,3.92657 0,3.33594 0,3.92812 1.565626,1.50782 4.068753,0 1.565626,-1.50782 0,-3.92812 0,-3.33594 0,-3.92657 -1.565626,-1.50937 -4.068753,0 z m 7.200005,0 -1.564064,1.50937 0,3.92657 0,3.33594 0,3.92812 1.564064,1.50782 4.068753,0 1.565625,-1.50782 0,-3.92812 0,-3.33594 0,-3.92657 -1.565625,-1.50937 -4.068753,0 z m 7.200004,0 -1.564063,1.50937 0,3.92657 0,3.33594 0,3.92812 1.564063,1.50782 4.070314,0 1.564065,-1.50782 0,-3.92812 0,-3.33594 0,-3.92657 -1.564065,-1.50937 -4.070314,0 z m 7.200004,0 -1.564065,1.50937 0,3.92657 0,3.33594 0,3.92812 1.564065,1.50782 4.070315,0 1.564065,-1.50782 0,-3.92812 0,-3.33594 0,-3.92657 -1.564065,-1.50937 -4.070315,0 z m 7.200005,0 -1.564065,1.50937 0,3.92657 0,3.33594 0,3.92812 1.564065,1.50782 4.070315,0 1.564065,-1.50782 0,-3.92812 0,-3.33594 0,-3.92657 -1.564065,-1.50937 -4.070315,0 z m 7.200004,0 -1.564064,1.50937 0,3.92657 0,3.33594 0,3.92812 1.564064,1.50782 4.07032,0 1.56562,-1.50782 1.56407,1.50782 4.07031,0 1.56563,-1.50782 1.56406,1.50782 4.07188,0 1.56406,-1.50782 1.56407,1.50782 4.07187,0 1.56406,-1.50782 1.56407,1.50782 4.07031,0 1.56563,-1.50782 0,-3.92812 0,-3.33594 0,-3.92657 -1.56563,-1.50937 -4.07031,0 -1.56407,1.50937 -1.56406,-1.50937 -4.07187,0 -1.56407,1.50937 -1.56406,-1.50937 -4.07188,0 -1.56406,1.50937 -1.56563,-1.50937 -4.07031,0 -1.56407,1.50937 -1.56562,-1.50937 -4.07032,0 z m 36.00158,0 -1.56405,1.50937 0,3.92657 0,3.33594 0,3.92812 1.56405,1.50782 4.07032,0 1.56406,-1.50782 1.56407,1.50782 4.07187,0 1.56407,-1.50782 0,-3.92812 0,-3.33594 0,-3.92657 -1.56407,-1.50937 -4.07187,0 -1.56407,1.50937 -1.56406,-1.50937 -4.07032,0 z m 14.40001,0 -1.56405,1.50937 0,3.92657 0,3.33594 0,3.92812 1.56405,1.50782 4.07032,0 1.56406,-1.50782 1.56563,1.50782 4.07031,0 1.56407,-1.50782 0,-3.92812 0,-3.33594 0,-3.92657 -1.56407,-1.50937 -4.07031,0 -1.56563,1.50937 -1.56406,-1.50937 -4.07032,0 z"
       id="path59407"
       inkscape:connector-curvature="0" />
    <path
       style="fill:#0f7391"
       inkscape:connector-curvature="0"
       d="m -73.565539,204.23014 4.32,4.32 0,32.4 7.199,7.2 0,92.879 -7.199,7.201 0,4.359 c 0,1.564 -1.271,2.837 -2.834,2.837 -0.002,0 -0.002,0 -0.002,0 l -181.530001,0 c -1.565,0 -2.834,-1.271 -2.834,-2.834 0,0 0,0 0,-0.003 l 0,-145.525 c 0,-1.565 1.269,-2.834 2.834,-2.834 l 0,0 180.046001,0 m -0.217,50.4 c -0.004,2.505 2.023,4.539 4.527,4.543 2.506,0.004 4.539,-2.023 4.545,-4.528 0,-0.005 0,-0.01 0,-0.016 0.004,-2.505 -2.023,-4.539 -4.528,-4.543 -2.505,-0.004 -4.539,2.022 -4.544,4.527 0,0.007 0,0.012 0,0.017 z m 0,79.2 c -0.004,2.505 2.023,4.539 4.527,4.543 2.506,0.004 4.539,-2.021 4.545,-4.527 0,-0.006 0,-0.011 0,-0.016 0.004,-2.505 -2.023,-4.539 -4.528,-4.543 -2.505,-0.006 -4.539,2.021 -4.544,4.527 0,0.004 0,0.01 0,0.016 z m -143.999001,-122.4 c -0.004,2.504 2.023,4.539 4.528,4.543 2.504,0.004 4.539,-2.022 4.543,-4.527 0,-0.005 0,-0.011 0,-0.016 0.004,-2.505 -2.024,-4.539 -4.529,-4.542 -2.505,-0.003 -4.539,2.024 -4.542,4.529 0,0.004 0,0.009 0,0.013 l 0,0 z m -3.6,136.8 c -0.003,2.504 2.024,4.537 4.529,4.541 2.505,0.004 4.539,-2.023 4.542,-4.528 0,-0.005 0,-0.009 0,-0.013 0.004,-2.506 -2.024,-4.539 -4.529,-4.543 -2.505,-0.004 -4.538,2.021 -4.542,4.524 0,0.01 0,0.016 0,0.019 z m 107.731,0 c -10e-4,0.664 0.536,1.205 1.202,1.207 0.664,0.002 1.205,-0.537 1.207,-1.203 0,-0.002 0,-0.004 0,-0.004 0.002,-0.666 -0.537,-1.207 -1.201,-1.209 -0.666,0 -1.207,0.537 -1.208,1.203 0,0.003 0,0.005 0,0.006 z m 7.2,0 c -0.002,0.664 0.537,1.205 1.201,1.207 0.666,0.002 1.207,-0.537 1.207,-1.203 0,-0.002 0,-0.004 0,-0.004 0.002,-0.666 -0.535,-1.207 -1.201,-1.209 -0.666,0 -1.207,0.537 -1.207,1.203 0,0.003 0,0.005 0,0.006 z m 7.200001,0 c 0,0.664 0.537,1.205 1.203,1.207 0.666,0.002 1.205,-0.537 1.207,-1.203 0,-0.002 0,-0.004 0,-0.004 0.002,-0.666 -0.537,-1.207 -1.201,-1.209 -0.666,0 -1.207,0.537 -1.209,1.203 0,0.003 0,0.005 0,0.006 z m 7.201,0 c -0.002,0.664 0.536,1.205 1.201,1.207 0.666,0.002 1.206,-0.537 1.207,-1.203 0,-0.002 0,-0.004 0,-0.004 0.002,-0.666 -0.535,-1.207 -1.201,-1.209 -0.666,0 -1.205,0.537 -1.207,1.203 0,0.003 0,0.005 0,0.006 z m 7.199,0 c -0.002,0.664 0.537,1.205 1.202,1.207 0.665,0.002 1.206,-0.537 1.208,-1.203 0,-0.002 0,-0.004 0,-0.004 0.001,-0.666 -0.537,-1.207 -1.203,-1.209 -0.665,0 -1.205,0.537 -1.207,1.203 0,0.003 0,0.005 0,0.006 z m 7.2,0 c -0.001,0.664 0.536,1.205 1.202,1.207 0.664,0.002 1.205,-0.537 1.207,-1.203 0,-0.002 0,-0.004 0,-0.004 0.002,-0.666 -0.537,-1.207 -1.201,-1.209 -0.666,0 -1.207,0.537 -1.208,1.203 0,0.003 0,0.005 0,0.006 z m 0.219,-79.2 c -0.001,0.744 0.601,1.348 1.345,1.349 0.744,10e-4 1.353,-0.601 1.353,-1.344 0,-0.001 0,-0.003 0,-0.004 0.002,-0.744 -0.604,-1.347 -1.349,-1.348 -0.745,-10e-4 -1.348,0.601 -1.349,1.344 0,0 0,0.002 0,0.003 z m 7.2,0 c -0.001,0.744 0.602,1.348 1.344,1.349 0.744,10e-4 1.348,-0.601 1.35,-1.344 0,-0.001 0,-0.003 0,-0.004 0,-0.744 -0.602,-1.347 -1.344,-1.348 -0.744,-10e-4 -1.349,0.601 -1.35,1.344 0,0 0,0.002 0,0.003 z m -7.2,7.2 c -0.001,0.744 0.601,1.347 1.345,1.349 0.744,10e-4 1.353,-0.601 1.353,-1.345 0,-0.001 0,-0.002 0,-0.004 0.002,-0.744 -0.604,-1.347 -1.349,-1.349 -0.744,-0.001 -1.348,0.601 -1.349,1.345 0,0.001 0,0.003 0,0.004 z m 7.2,0 c -0.001,0.744 0.602,1.347 1.344,1.349 0.744,10e-4 1.348,-0.601 1.35,-1.345 0,-0.001 0,-0.002 0,-0.004 0,-0.744 -0.602,-1.347 -1.344,-1.349 -0.744,-0.001 -1.349,0.601 -1.35,1.345 0,0.001 0,0.003 0,0.004 z m -7.2,7.2 c -0.001,0.744 0.601,1.348 1.345,1.35 0.744,0 1.353,-0.602 1.353,-1.346 0,0 0,-0.002 0,-0.004 0.002,-0.742 -0.604,-1.348 -1.349,-1.348 -0.744,-0.002 -1.348,0.6 -1.349,1.344 0,0.002 0,0.004 0,0.004 z m 7.2,0 c -0.001,0.744 0.602,1.348 1.344,1.35 0.744,0 1.348,-0.602 1.35,-1.346 0,0 0,-0.002 0,-0.004 0,-0.742 -0.602,-1.348 -1.344,-1.348 -0.744,-0.002 -1.349,0.6 -1.35,1.344 0,0.002 0,0.004 0,0.004 z m -128.520001,-62.64 c -0.001,0.744 0.601,1.347 1.344,1.349 0.744,0.001 1.348,-0.601 1.349,-1.345 0,-0.001 0,-0.002 0,-0.004 0.001,-0.744 -0.601,-1.348 -1.344,-1.349 -0.743,-10e-4 -1.348,0.601 -1.349,1.345 0,0.001 0,0.003 0,0.004 z m 0,7.2 c -0.001,0.743 0.601,1.347 1.344,1.348 0.744,10e-4 1.348,-0.601 1.349,-1.344 0,-10e-4 0,-0.003 0,-0.004 0.001,-0.744 -0.601,-1.348 -1.344,-1.349 -0.744,-0.001 -1.348,0.601 -1.349,1.344 0,0.002 0,0.004 0,0.005 z m -7.201,-7.2 c -0.001,0.744 0.601,1.347 1.344,1.349 0.744,0.001 1.348,-0.601 1.349,-1.345 0,-0.001 0,-0.002 0,-0.004 10e-4,-0.744 -0.601,-1.348 -1.345,-1.349 -0.743,-10e-4 -1.347,0.601 -1.348,1.345 0,0.001 0,0.003 0,0.004 z m 0,7.2 c -0.001,0.743 0.601,1.347 1.344,1.348 0.744,10e-4 1.348,-0.601 1.349,-1.344 0,-10e-4 0,-0.003 0,-0.004 10e-4,-0.744 -0.601,-1.348 -1.345,-1.349 -0.743,-0.001 -1.347,0.601 -1.348,1.344 0,0.002 0,0.004 0,0.005 z m -7.2,-7.2 c 0,0.744 0.603,1.346 1.347,1.346 0.744,0 1.346,-0.604 1.346,-1.346 0,-0.743 -0.603,-1.347 -1.346,-1.347 -0.743,0 -1.347,0.603 -1.347,1.347 z m 0,7.2 c 0,0.743 0.603,1.346 1.347,1.346 0.744,0 1.346,-0.603 1.346,-1.346 0,-0.744 -0.603,-1.347 -1.346,-1.347 -0.743,0 -1.347,0.603 -1.347,1.347 z m 73.582,-16.56 c -0.001,0.665 0.536,1.206 1.202,1.207 0.664,0.001 1.205,-0.537 1.207,-1.202 0,-10e-4 0,-0.003 0,-0.005 0.002,-0.666 -0.537,-1.206 -1.202,-1.208 -0.665,-0.002 -1.206,0.537 -1.207,1.202 0,0.003 0,0.004 0,0.006 z m -7.2,0 c -0.002,0.665 0.537,1.206 1.202,1.207 0.665,0.001 1.206,-0.537 1.208,-1.202 0,-10e-4 0,-0.003 0,-0.005 0.002,-0.666 -0.536,-1.207 -1.201,-1.209 -0.666,-0.002 -1.207,0.536 -1.209,1.201 0,0.003 0,0.005 0,0.008 l 0,0 z m -7.199,0 c -0.003,0.665 0.535,1.207 1.199,1.208 0.666,0.002 1.207,-0.535 1.209,-1.201 0,-0.002 0,-0.005 0,-0.008 0.002,-0.666 -0.535,-1.207 -1.199,-1.209 -0.666,-0.002 -1.207,0.536 -1.209,1.201 0,0.004 0,0.006 0,0.009 z m -7.201,0 c -0.002,0.665 0.535,1.207 1.201,1.208 0.666,0.002 1.207,-0.535 1.209,-1.201 0,-0.002 0,-0.005 0,-0.008 0.002,-0.666 -0.535,-1.207 -1.201,-1.209 -0.664,-0.002 -1.207,0.536 -1.209,1.201 0,0.004 0,0.006 0,0.009 z m -7.2,0 c -0.002,0.665 0.536,1.207 1.202,1.208 0.664,0.002 1.205,-0.535 1.209,-1.201 0,-0.002 0,-0.005 0,-0.008 0.002,-0.666 -0.537,-1.207 -1.201,-1.209 -0.666,-0.002 -1.207,0.536 -1.208,1.201 -0.002,0.004 -0.002,0.006 -0.002,0.009 z m -7.2,0 c -0.002,0.665 0.535,1.207 1.201,1.208 0.666,0.002 1.207,-0.535 1.208,-1.201 0,-0.002 0,-0.005 0,-0.008 0.002,-0.666 -0.535,-1.207 -1.201,-1.209 -0.665,-0.002 -1.207,0.536 -1.208,1.201 0,0.004 0,0.006 0,0.009 z m -7.201,0 c -0.002,0.665 0.536,1.207 1.201,1.208 0.666,0.002 1.207,-0.535 1.209,-1.201 0,-0.002 0,-0.005 0,-0.008 0.002,-0.666 -0.536,-1.207 -1.201,-1.209 -0.666,-0.002 -1.207,0.536 -1.209,1.201 0,0.004 0,0.006 0,0.009 z m -7.199,0 c -0.002,0.665 0.535,1.207 1.201,1.208 0.665,0.002 1.207,-0.535 1.208,-1.201 0,-0.002 0,-0.005 0,-0.008 0.002,-0.666 -0.535,-1.207 -1.201,-1.209 -0.665,-0.002 -1.207,0.536 -1.208,1.201 0,0.004 0,0.006 0,0.009 z m -7.2,0 c -0.002,0.665 0.536,1.207 1.201,1.208 0.666,0.002 1.207,-0.535 1.209,-1.201 0,-0.002 0,-0.005 0,-0.008 0.002,-0.666 -0.536,-1.207 -1.201,-1.209 -0.665,-0.002 -1.206,0.536 -1.208,1.201 -10e-4,0.004 -10e-4,0.006 -10e-4,0.009 z m -7.2,0 c -0.002,0.665 0.535,1.207 1.201,1.208 0.666,0.002 1.207,-0.535 1.209,-1.201 0,-0.002 0,-0.005 0,-0.008 0.002,-0.666 -0.536,-1.207 -1.201,-1.209 -0.666,-0.002 -1.207,0.536 -1.209,1.201 0,0.004 0,0.006 0,0.009 z m 126.720001,0 c -0.001,0.665 0.536,1.206 1.202,1.207 0.664,0.001 1.205,-0.537 1.207,-1.202 0,-10e-4 0,-0.003 0,-0.005 0.002,-0.666 -0.537,-1.206 -1.201,-1.208 -0.666,-0.001 -1.207,0.537 -1.208,1.202 0,0.003 0,0.004 0,0.006 z m -7.2,0 c -0.002,0.665 0.537,1.206 1.202,1.207 0.665,0.001 1.206,-0.537 1.208,-1.202 0,-10e-4 0,-0.003 0,-0.005 0.001,-0.666 -0.537,-1.206 -1.203,-1.208 -0.665,-0.001 -1.205,0.537 -1.207,1.202 0,0.003 0,0.004 0,0.006 z m -7.199,0 c -0.002,0.665 0.536,1.206 1.201,1.207 0.666,0.001 1.206,-0.537 1.207,-1.202 0,-10e-4 0,-0.003 0,-0.005 0.002,-0.666 -0.535,-1.206 -1.201,-1.208 -0.666,-0.001 -1.205,0.537 -1.207,1.202 0,0.003 0,0.004 0,0.006 z m -7.201,0 c 0,0.665 0.537,1.206 1.203,1.207 0.666,0.001 1.205,-0.537 1.207,-1.202 0,-10e-4 0,-0.003 0,-0.005 0.002,-0.666 -0.537,-1.206 -1.201,-1.208 -0.666,-0.002 -1.207,0.537 -1.209,1.202 0,0.003 0,0.004 0,0.006 z m -7.200001,0 c -0.002,0.665 0.537,1.206 1.201,1.207 0.666,0.001 1.207,-0.537 1.207,-1.202 0,-10e-4 0,-0.003 0,-0.005 0.002,-0.666 -0.535,-1.206 -1.201,-1.208 -0.666,-0.002 -1.207,0.537 -1.207,1.202 0,0.003 0,0.004 0,0.006 z m -7.2,0 c -10e-4,0.665 0.536,1.206 1.202,1.207 0.664,0.001 1.205,-0.537 1.207,-1.202 0,-10e-4 0,-0.003 0,-0.005 0.002,-0.666 -0.537,-1.206 -1.201,-1.208 -0.666,-0.001 -1.207,0.537 -1.208,1.202 0,0.003 0,0.004 0,0.006 z m -7.2,0 c -0.002,0.665 0.537,1.206 1.202,1.207 0.665,0.001 1.206,-0.537 1.208,-1.202 0,-10e-4 0,-0.003 0,-0.005 0.001,-0.666 -0.537,-1.206 -1.203,-1.208 -0.665,-0.001 -1.205,0.537 -1.207,1.202 0,0.003 0,0.004 0,0.006 z m -7.199,0 c -0.002,0.665 0.536,1.206 1.201,1.207 0.666,0.001 1.206,-0.537 1.207,-1.202 0,-10e-4 0,-0.003 0,-0.005 0.002,-0.666 -0.535,-1.206 -1.201,-1.208 -0.666,-0.001 -1.205,0.537 -1.207,1.202 0,0.003 0,0.004 0,0.006 z m -43.201,136.8 c -0.002,0.664 0.535,1.205 1.201,1.207 0.666,0.004 1.207,-0.535 1.208,-1.199 0,-0.004 0,-0.006 0,-0.008 0.002,-0.666 -0.535,-1.207 -1.2,-1.209 -0.666,-0.002 -1.207,0.535 -1.209,1.201 0,0.003 0,0.007 0,0.008 z m -7.199,0 c -0.002,0.664 0.535,1.205 1.201,1.207 0.666,0.004 1.207,-0.535 1.208,-1.199 0,-0.004 0,-0.006 0,-0.008 0.002,-0.666 -0.535,-1.207 -1.2,-1.209 -0.666,-0.002 -1.207,0.535 -1.209,1.201 0,0.003 0,0.007 0,0.008 z m 14.4,0 c -0.002,0.664 0.535,1.205 1.2,1.207 0.665,0.004 1.206,-0.535 1.208,-1.199 0,-0.004 0,-0.006 0,-0.008 0.003,-0.666 -0.535,-1.207 -1.199,-1.209 -0.666,-0.002 -1.207,0.535 -1.209,1.201 0,0.003 0,0.007 0,0.008 z m 7.199,0 c -0.002,0.664 0.535,1.205 1.201,1.207 0.665,0.004 1.206,-0.535 1.209,-1.199 0,-0.004 0,-0.006 0,-0.008 0.002,-0.666 -0.536,-1.207 -1.201,-1.209 -0.666,-0.002 -1.207,0.535 -1.209,1.201 0,0.003 0,0.007 0,0.008 z m 7.2,0 c -0.003,0.664 0.534,1.205 1.2,1.207 0.666,0.004 1.207,-0.535 1.209,-1.199 0,-0.004 0,-0.006 0,-0.008 0.002,-0.666 -0.535,-1.207 -1.201,-1.209 -0.664,-0.002 -1.206,0.535 -1.208,1.201 0,0.003 0,0.007 0,0.008 z m 7.2,0 c -0.002,0.664 0.537,1.205 1.201,1.207 0.666,0.002 1.207,-0.537 1.207,-1.203 0,-0.002 0,-0.004 0,-0.004 0.002,-0.666 -0.535,-1.207 -1.201,-1.209 -0.666,0 -1.207,0.537 -1.207,1.203 0,0.003 0,0.005 0,0.006 z m 7.2,0 c 0,0.664 0.537,1.205 1.203,1.207 0.666,0.002 1.205,-0.537 1.207,-1.203 0,-0.002 0,-0.004 0,-0.004 0.002,-0.666 -0.537,-1.207 -1.201,-1.209 -0.666,0 -1.207,0.537 -1.209,1.203 0,0.003 0,0.005 0,0.006 z m 7.201,0 c -0.002,0.664 0.536,1.205 1.201,1.207 0.666,0.002 1.206,-0.537 1.207,-1.203 0,-0.002 0,-0.004 0,-0.004 0.002,-0.666 -0.535,-1.207 -1.201,-1.209 -0.666,0 -1.205,0.537 -1.207,1.203 0,0.003 0,0.005 0,0.006 z"
       id="path59411" />
    <path
       inkscape:connector-curvature="0"
       id="path59413"
       d="m -172.73446,258.05385 c -4.50291,-0.10052 -8.61243,1.82032 -12.39301,5.20576 -1.45171,1.29782 -2.65729,2.87028 -4.2295,4.59453 -0.55436,-0.70083 -0.975,-1.22923 -1.38473,-1.76133 -3.8026,-4.84644 -8.67719,-8.06375 -14.91043,-8.00998 -9.41476,0.0797 -16.19169,7.37301 -15.63177,16.25749 0.42829,7.01002 6.84713,13.45759 13.86464,13.90812 7.15653,0.45794 12.48771,-2.60922 16.77606,-8.00998 0.419,-0.52098 0.85065,-1.01786 1.405,-1.66863 0.77314,0.94741 1.35622,1.69063 1.96991,2.40444 4.01025,4.64806 8.81844,7.51137 15.2204,7.29444 6.90811,-0.23546 13.23416,-5.24529 14.58019,-11.82523 1.45912,-7.13055 -2.16831,-14.12142 -8.87617,-16.94696 -2.21555,-0.93337 -4.34382,-1.397 -6.39059,-1.44267 z m 32.95823,0.23756 a 1.0530868,1.0530868 0 0 0 -1.05157,1.05158 1.0530868,1.0530868 0 0 0 1.05157,1.05447 1.0530868,1.0530868 0 0 0 1.05448,-1.05447 1.0530868,1.0530868 0 0 0 -1.05448,-1.05158 z m 2.52322,0 a 1.0530868,1.0530868 0 0 0 -1.04578,0.94728 1.0530868,1.0530868 0 0 0 -0.005,0.10432 1.0530868,1.0530868 0 0 0 0.94729,1.04868 1.0530868,1.0530868 0 0 0 0.10432,0.005 1.0530868,1.0530868 0 0 0 1.05447,-1.05446 1.0530868,1.0530868 0 0 0 -1.05447,-1.05159 z m 2.6246,0 a 1.0530868,1.0530868 0 0 0 -1.05158,1.05158 1.0530868,1.0530868 0 0 0 1.05158,1.05447 1.0530868,1.0530868 0 0 0 1.05448,-1.05447 1.0530868,1.0530868 0 0 0 -1.05448,-1.05158 z m 2.6304,0 a 1.0530868,1.0530868 0 0 0 -1.05448,1.05158 1.0530868,1.0530868 0 0 0 1.05448,1.05447 1.0530868,1.0530868 0 0 0 1.05449,-1.05447 1.0530868,1.0530868 0 0 0 -1.05449,-1.05158 z m 2.62461,0 a 1.0530868,1.0530868 0 0 0 -1.05157,1.05158 1.0530868,1.0530868 0 0 0 1.05157,1.05447 1.0530868,1.0530868 0 0 0 1.05448,-1.05447 1.0530868,1.0530868 0 0 0 -1.05448,-1.05158 z m 2.63041,0 a 1.0530868,1.0530868 0 0 0 -1.05449,1.05158 1.0530868,1.0530868 0 0 0 1.05449,1.05447 1.0530868,1.0530868 0 0 0 1.05159,-1.05447 1.0530868,1.0530868 0 0 0 -1.05159,-1.05158 z m 2.6246,0 a 1.0530868,1.0530868 0 0 0 -1.05448,1.05158 1.0530868,1.0530868 0 0 0 1.05448,1.05447 1.0530868,1.0530868 0 0 0 1.05158,-1.05447 1.0530868,1.0530868 0 0 0 -1.05158,-1.05158 z m 2.62752,0 a 1.0530868,1.0530868 0 0 0 -1.0516,1.05158 1.0530868,1.0530868 0 0 0 1.0516,1.05447 1.0530868,1.0530868 0 0 0 1.05446,-1.05447 1.0530868,1.0530868 0 0 0 -1.05446,-1.05158 z m 2.62749,0 a 1.0530868,1.0530868 0 0 0 -1.05157,1.05158 1.0530868,1.0530868 0 0 0 1.05157,1.05447 1.0530868,1.0530868 0 0 0 1.05448,-1.05447 1.0530868,1.0530868 0 0 0 -1.05448,-1.05158 z m 2.62751,0 a 1.0530868,1.0530868 0 0 0 -1.05159,1.05158 1.0530868,1.0530868 0 0 0 1.05159,1.05447 1.0530868,1.0530868 0 0 0 1.05446,-1.05447 1.0530868,1.0530868 0 0 0 -1.05446,-1.05158 z m 2.6275,0 a 1.0530868,1.0530868 0 0 0 -1.05158,1.05158 1.0530868,1.0530868 0 0 0 1.05158,1.05447 1.0530868,1.0530868 0 0 0 1.05448,-1.05447 1.0530868,1.0530868 0 0 0 -1.05448,-1.05158 z m 2.6275,0 a 1.0530868,1.0530868 0 0 0 -1.05447,1.05158 1.0530868,1.0530868 0 0 0 1.05447,1.05447 1.0530868,1.0530868 0 0 0 1.05448,-1.05447 1.0530868,1.0530868 0 0 0 -1.05448,-1.05158 z m 2.62751,0 a 1.0530868,1.0530868 0 0 0 -1.05448,1.05158 1.0530868,1.0530868 0 0 0 1.05448,1.05447 1.0530868,1.0530868 0 0 0 1.05158,-1.05447 1.0530868,1.0530868 0 0 0 -1.05158,-1.05158 z m 2.6275,0 a 1.0530868,1.0530868 0 0 0 -1.05447,1.05158 1.0530868,1.0530868 0 0 0 1.05447,1.05447 1.0530868,1.0530868 0 0 0 0.026,0 1.0530868,1.0530868 0 0 0 0.0464,-0.003 1.0530868,1.0530868 0 0 0 1.00812,-1.05158 1.0530868,1.0530868 0 0 0 -1.05448,-1.05158 1.0530868,1.0530868 0 0 0 -0.026,0 z m 2.57536,0 a 1.0530868,1.0530868 0 0 0 -1.05158,1.05158 1.0530868,1.0530868 0 0 0 1.05158,1.05447 1.0530868,1.0530868 0 0 0 0.0319,0 1.0530868,1.0530868 0 0 0 0.0203,0 1.0530868,1.0530868 0 0 0 1.05158,-1.05447 1.0530868,1.0530868 0 0 0 -1.05158,-1.05158 1.0530868,1.0530868 0 0 0 -0.0319,0 1.0530868,1.0530868 0 0 0 -0.0203,0 z m -39.10548,0.45771 a 1.0530868,1.0530868 0 0 0 -1.05449,1.05447 1.0530868,1.0530868 0 0 0 1.05449,1.05159 1.0530868,1.0530868 0 0 0 1.05157,-1.05159 1.0530868,1.0530868 0 0 0 -1.05157,-1.05447 z m 41.61422,0.0116 a 1.0530868,1.0530868 0 0 0 -1.05449,1.05157 1.0530868,1.0530868 0 0 0 1.05449,1.05449 1.0530868,1.0530868 0 0 0 1.051576,-1.05449 1.0530868,1.0530868 0 0 0 -1.051576,-1.05157 z m -43.96652,0.89804 a 1.0530868,1.0530868 0 0 0 -1.05449,1.05158 1.0530868,1.0530868 0 0 0 1.05449,1.05449 1.0530868,1.0530868 0 0 0 1.05157,-1.05449 1.0530868,1.0530868 0 0 0 -1.05157,-1.05158 z m 46.344877,0.0203 a 1.0530868,1.0530868 0 0 0 -1.051577,1.05158 1.0530868,1.0530868 0 0 0 1.051577,1.05448 1.0530868,1.0530868 0 0 0 1.054485,-1.05448 1.0530868,1.0530868 0 0 0 -1.054485,-1.05158 z m -48.503087,1.29782 a 1.0530868,1.0530868 0 0 0 -1.05158,1.05158 1.0530868,1.0530868 0 0 0 1.05158,1.05448 1.0530868,1.0530868 0 0 0 1.05448,-1.05448 1.0530868,1.0530868 0 0 0 -1.05448,-1.05158 z m 50.67288,0.0377 a 1.0530868,1.0530868 0 0 0 -1.051576,1.05449 1.0530868,1.0530868 0 0 0 1.051576,1.05157 1.0530868,1.0530868 0 0 0 1.054481,-1.05157 1.0530868,1.0530868 0 0 0 -1.054481,-1.05449 z m -52.54139,1.64835 a 1.0530868,1.0530868 0 0 0 -1.05447,1.05447 1.0530868,1.0530868 0 0 0 1.05447,1.05159 1.0530868,1.0530868 0 0 0 1.05158,-1.05159 1.0530868,1.0530868 0 0 0 -1.05158,-1.05447 z m 54.430183,0.0666 a 1.0512327,1.0512327 0 0 0 -1.051575,1.05158 1.0512327,1.0512327 0 0 0 1.051575,1.05158 1.0512327,1.0512327 0 0 0 1.05159,-1.05158 1.0512327,1.0512327 0 0 0 -1.05159,-1.05158 z m -78.425353,0.24044 c 4.15488,0.29294 7.6357,2.07965 9.59169,6.12699 1.84291,3.82671 1.20963,7.50012 -1.57881,10.60561 -3.10921,3.46147 -7.05947,4.6302 -11.5703,3.21558 -4.6536,-1.46097 -7.57347,-4.92732 -9.91325,-8.97464 -0.20209,-0.35784 -0.19607,-1.03792 0.005,-1.40502 2.59008,-4.66102 6.03835,-8.31021 11.53552,-9.42077 0.55806,-0.11124 1.13583,-0.0922 1.92935,-0.14775 z m -32.11814,0.0434 c 3.22045,0.15758 6.64681,1.91938 9.15717,5.06381 4.5164,5.65291 4.68659,4.66774 -0.058,10.36516 -3.08882,3.72104 -7.18653,5.85467 -12.31479,4.74226 -5.20612,-1.12911 -8.98811,-5.89187 -8.52274,-10.65487 0.52276,-5.36925 5.25664,-9.52748 11.7383,-9.51636 z m 100.7635,1.17035 c -1.07534,0 -2.06828,0.2138 -2.96934,0.64022 -0.8992,0.42642 -1.67755,1.02898 -2.33203,1.80768 -0.65446,0.77869 -1.16697,1.71717 -1.52665,2.81289 -0.35968,1.09574 -0.54463,2.31337 -0.54463,3.65012 0,1.33491 0.18484,2.55231 0.54463,3.64433 0.35968,1.09573 0.87033,2.0363 1.52665,2.81869 0.65633,0.78241 1.43469,1.38809 2.33203,1.81638 0.90663,0.42642 1.894,0.64021 2.96934,0.64021 1.06792,0 2.06411,-0.21379 2.95775,-0.64021 0.90106,-0.42643 1.677322,-1.03397 2.326231,-1.81638 0.648909,-0.78239 1.15645,-1.72111 1.517986,-2.81869 0.363393,-1.09388 0.54751,-2.30942 0.54751,-3.64433 0,-1.33675 -0.184096,-2.55624 -0.54751,-3.65012 -0.361536,-1.09572 -0.859806,-2.0342 -1.517986,-2.81289 -0.648909,-0.7787 -1.421461,-1.3794 -2.326231,-1.80768 -0.90291,-0.42828 -1.88983,-0.64022 -2.95775,-0.64022 z m -39.15764,0.40267 0,9.71047 c 0,0.67487 0.0358,1.30895 0.084,1.90038 0.0574,0.59144 0.14833,1.14659 0.27811,1.66571 0.254,1.02899 0.8379,1.91591 1.73525,2.65938 0.93073,0.76386 2.31707,1.14429 4.15998,1.14429 2.79031,0 4.31247,-0.95773 5.23762,-2.87664 0.46721,-0.97894 0.69815,-2.47594 0.69815,-4.49312 l 0,-9.71047 -1.77869,0 0,9.6786 c 0,2.19518 -0.35389,3.92764 -1.06028,4.63217 -0.69897,0.69526 -2.09934,1.04288 -3.46761,1.04288 -1.35714,0 -2.38625,-0.34762 -3.08522,-1.04288 -0.71009,-0.70638 -1.06026,-2.43884 -1.06026,-4.63217 l 0,-9.6786 -1.74106,0 z m 16.6457,0 0,16.78764 1.47742,0 0,-13.80382 8.79216,13.78064 1.74683,0 0,-16.76446 -1.74683,0 0,13.82408 -8.63861,-13.82408 -1.63097,0 z m -23.67361,0.0783 a 1.0530868,1.0530868 0 0 0 -1.05449,1.05446 1.0530868,1.0530868 0 0 0 1.05449,1.05159 1.0530868,1.0530868 0 0 0 1.05157,-1.05159 1.0530868,1.0530868 0 0 0 -1.05157,-1.05446 z m 57.5067,0.0927 a 1.0512327,1.0512327 0 0 0 -1.051576,1.05158 1.0512327,1.0512327 0 0 0 1.051576,1.05156 1.0512327,1.0512327 0 0 0 1.051589,-1.05156 1.0512327,1.0512327 0 0 0 -1.051589,-1.05158 z m -11.29219,1.38472 c 0.75275,0 1.44429,0.15684 2.08579,0.46639 0.63593,0.31149 1.18565,0.76747 1.64545,1.36445 0.463509,0.59886 0.824926,1.32876 1.086344,2.18718 0.261418,0.86027 0.391085,1.83595 0.391085,2.93169 0,1.09387 -0.129591,2.0714 -0.391085,2.93167 -0.261418,0.85842 -0.626775,1.58833 -1.092144,2.18718 -0.4635,0.597 -1.01843,1.0532 -1.65993,1.37024 -0.64149,0.31704 -1.34301,0.4751 -2.10316,0.4751 -0.76386,0 -1.47037,-0.15817 -2.11186,-0.4751 -0.63964,-0.31704 -1.19642,-0.77614 -1.65993,-1.37313 -0.46721,-0.59886 -0.83074,-1.32877 -1.09214,-2.18717 -0.26882,-0.86028 -0.39686,-1.83492 -0.39686,-2.92879 0,-1.09574 0.13384,-2.07745 0.40265,-2.94328 0.26885,-0.86212 0.63281,-1.58809 1.10373,-2.18137 0.47092,-0.59329 1.02285,-1.04718 1.67732,-1.35867 0.6452,-0.31147 1.35089,-0.46639 2.11474,-0.46639 z m -47.47757,0.77638 c -0.40762,0.0459 -0.76699,0.32874 -0.88936,0.7445 -0.16686,0.55992 0.15055,1.1473 0.70685,1.31231 0.55806,0.16501 1.14254,-0.15279 1.30941,-0.71264 0.165,-0.55436 -0.15537,-1.1415 -0.70974,-1.30651 -0.13905,-0.0414 -0.2813,-0.0531 -0.41716,-0.0377 z m 59.911143,0.11587 a 1.0512327,1.0512327 0 0 0 -1.048682,1.05159 1.0512327,1.0512327 0 0 0 1.048682,1.05157 1.0512327,1.0512327 0 0 0 1.05159,-1.05157 1.0512327,1.0512327 0 0 0 -1.05159,-1.05159 z m -83.460193,0.83721 c -0.14462,0 -0.26942,0.11904 -0.26942,0.26361 l 0,2.81871 c 0,0.14461 -0.11622,0.26363 -0.2665,0.26361 l -2.8187,0 c -0.14462,0 -0.27232,0.11903 -0.27232,0.26363 l 0,2.89402 c 0,0.14461 0.11847,0.26362 0.27232,0.26362 l 2.8187,0 c 0.14462,0 0.2665,0.11905 0.2665,0.26362 l 0,2.81869 c 0,0.14462 0.11922,0.26362 0.26942,0.26362 l 2.89692,0 c 0.14091,0 0.26361,-0.11901 0.26361,-0.26362 l 0,-2.81869 c 0,-0.14461 0.11628,-0.26362 0.26652,-0.26362 l 2.81871,0 c 0.14461,0 0.26938,-0.11903 0.2694,-0.26362 l 0,-2.89402 c 0,-0.14461 -0.11733,-0.26363 -0.2694,-0.26363 l -2.81871,0 c -0.1409,0 -0.26652,-0.11901 -0.26652,-0.26361 l 0,-2.81871 c 0,-0.14461 -0.11716,-0.26361 -0.26361,-0.26361 l -2.89692,0 z m 23.05947,1.46584 c -0.5766,-0.0631 -1.09469,0.35805 -1.15587,0.9328 -0.0594,0.58217 0.35725,1.10049 0.9357,1.16167 0.57661,0.0612 1.09469,-0.3583 1.15588,-0.93861 0.0612,-0.57474 -0.36096,-1.09468 -0.93571,-1.15586 z m 61.113367,0.14774 a 1.0512327,1.0512327 0 0 0 -1.051575,1.05158 1.0512327,1.0512327 0 0 0 1.051575,1.04869 1.0512327,1.0512327 0 0 0 1.05159,-1.04869 1.0512327,1.0512327 0 0 0 -1.05159,-1.05158 z m -119.147317,1.72946 c -0.15389,0 -0.27232,0.11903 -0.27232,0.26362 l 0,2.89402 c 0,0.14461 0.12774,0.26362 0.27232,0.26362 l 9.5801,0 c 0.14833,0 0.26652,-0.11905 0.26652,-0.26362 l 0,-2.89402 c 0,-0.14461 -0.12199,-0.26362 -0.26652,-0.26362 l -9.5801,0 z m 57.66025,0.62574 a 1.0530868,1.0530868 0 0 0 -1.05159,1.05447 1.0530868,1.0530868 0 0 0 1.05159,1.05159 1.0530868,1.0530868 0 0 0 1.05447,-1.05159 1.0530868,1.0530868 0 0 0 -1.05447,-1.05447 z m 61.736203,0.17961 a 1.0512327,1.0512327 0 0 0 -1.051574,1.05157 1.0512327,1.0512327 0 0 0 1.051574,1.05159 1.0512327,1.0512327 0 0 0 1.05159,-1.05159 1.0512327,1.0512327 0 0 0 -1.05159,-1.05157 z m -61.539213,2.33491 a 1.0530868,1.0530868 0 0 0 -1.05159,1.05449 1.0530868,1.0530868 0 0 0 1.05159,1.05157 1.0530868,1.0530868 0 0 0 1.05448,-1.05157 1.0530868,1.0530868 0 0 0 -1.05448,-1.05449 z m 61.319044,0.20568 a 1.0512327,1.0512327 0 0 0 -1.051575,1.05159 1.0512327,1.0512327 0 0 0 1.051575,1.05157 1.0512327,1.0512327 0 0 0 1.051589,-1.05157 1.0512327,1.0512327 0 0 0 -1.051589,-1.05159 z m -60.664354,2.23063 a 1.0530868,1.0530868 0 0 0 -1.05157,1.05158 1.0530868,1.0530868 0 0 0 1.05157,1.05447 1.0530868,1.0530868 0 0 0 1.05449,-1.05447 1.0530868,1.0530868 0 0 0 -1.05449,-1.05158 z m 59.983585,0.22596 a 1.0512327,1.0512327 0 0 0 -1.051575,1.05158 1.0512327,1.0512327 0 0 0 1.051575,1.05158 1.0512327,1.0512327 0 0 0 1.051574,-1.05158 1.0512327,1.0512327 0 0 0 -1.051574,-1.05158 z m -58.900135,2.05101 a 1.0530868,1.0530868 0 0 0 -1.05158,1.05159 1.0530868,1.0530868 0 0 0 1.05158,1.05448 1.0530868,1.0530868 0 0 0 1.05449,-1.05448 1.0530868,1.0530868 0 0 0 -1.05449,-1.05159 z m 57.779027,0.23755 a 1.0512327,1.0512327 0 0 0 -1.051575,1.05157 1.0512327,1.0512327 0 0 0 1.051575,1.05159 1.0512327,1.0512327 0 0 0 1.05159,-1.05159 1.0512327,1.0512327 0 0 0 -1.05159,-1.05157 z m -56.368217,1.80478 a 1.0530868,1.0530868 0 0 0 -0.97916,1.05158 1.0530868,1.0530868 0 0 0 1.05158,1.05448 1.0530868,1.0530868 0 0 0 1.05447,-1.05448 1.0530868,1.0530868 0 0 0 -1.05447,-1.05158 1.0530868,1.0530868 0 0 0 -0.0724,0 z m 54.850228,0.24045 a 1.0530868,1.0530868 0 0 0 -1.054467,1.05447 1.0530868,1.0530868 0 0 0 1.054467,1.05159 1.0530868,1.0530868 0 0 0 1.051589,-1.05159 1.0530868,1.0530868 0 0 0 -1.051589,-1.05447 z m -52.946948,1.49481 a 1.0530868,1.0530868 0 0 0 -1.0516,1.05448 1.0530868,1.0530868 0 0 0 1.0516,1.05158 1.0530868,1.0530868 0 0 0 1.05447,-1.05158 1.0530868,1.0530868 0 0 0 -1.05447,-1.05448 z m 51.075537,0.24044 a 1.0512327,1.0512327 0 0 0 -1.048678,1.05158 1.0512327,1.0512327 0 0 0 1.048678,1.05159 1.0512327,1.0512327 0 0 0 1.05159,-1.05159 1.0512327,1.0512327 0 0 0 -1.05159,-1.05158 z m -48.960797,1.13269 a 1.0530868,1.0530868 0 0 0 -1.05157,1.05448 1.0530868,1.0530868 0 0 0 1.05157,1.05158 1.0530868,1.0530868 0 0 0 1.05448,-1.05158 1.0530868,1.0530868 0 0 0 -1.05448,-1.05448 z m 46.733068,0.22886 a 1.0530868,1.0530868 0 0 0 -0.979149,1.05158 1.0530868,1.0530868 0 0 0 1.054474,1.05448 1.0530868,1.0530868 0 0 0 1.051588,-1.05448 1.0530868,1.0530868 0 0 0 -1.051588,-1.05158 1.0530868,1.0530868 0 0 0 -0.07533,0 z m -44.401058,0.73582 a 1.0530868,1.0530868 0 0 0 -1.05157,1.05447 1.0530868,1.0530868 0 0 0 1.05157,1.05158 1.0530868,1.0530868 0 0 0 1.05448,-1.05158 1.0530868,1.0530868 0 0 0 -1.05448,-1.05447 z m 42.10671,0.20858 a 1.0512327,1.0512327 0 0 0 -1.05159,1.05158 1.0512327,1.0512327 0 0 0 1.05159,1.05158 1.0512327,1.0512327 0 0 0 1.051577,-1.05158 1.0512327,1.0512327 0 0 0 -1.051577,-1.05158 z m -39.63853,0.31576 a 1.0530868,1.0530868 0 0 0 -1.05447,1.05447 1.0530868,1.0530868 0 0 0 1.05447,1.0516 1.0530868,1.0530868 0 0 0 1.05158,-1.0516 1.0530868,1.0530868 0 0 0 -1.05158,-1.05447 z m 37.13849,0.1796 a 1.0512327,1.0512327 0 0 0 -0.74451,0.30708 1.0530868,1.0530868 0 0 0 -0.41426,0.83721 1.0530868,1.0530868 0 0 0 1.05448,1.05158 1.0530868,1.0530868 0 0 0 0.7474,-0.31287 1.0512327,1.0512327 0 0 0 0.40846,-0.83142 1.0512327,1.0512327 0 0 0 -1.05157,-1.05158 z m -34.25895,0.0898 a 1.0530868,1.0530868 0 0 0 -1.05158,1.05446 1.0530868,1.0530868 0 0 0 1.05158,1.05159 1.0530868,1.0530868 0 0 0 1.05447,-1.05159 1.0530868,1.0530868 0 0 0 -1.05447,-1.05446 z m 2.6246,0 a 1.0530868,1.0530868 0 0 0 -1.05158,1.05446 1.0530868,1.0530868 0 0 0 1.05158,1.05159 1.0530868,1.0530868 0 0 0 1.05448,-1.05159 1.0530868,1.0530868 0 0 0 -1.05448,-1.05446 z m 2.6304,0 a 1.0530868,1.0530868 0 0 0 -1.05448,1.05446 1.0530868,1.0530868 0 0 0 1.05448,1.05159 1.0530868,1.0530868 0 0 0 1.05449,-1.05159 1.0530868,1.0530868 0 0 0 -1.05449,-1.05446 z m 2.62461,0 a 1.0530868,1.0530868 0 0 0 -1.05157,1.05446 1.0530868,1.0530868 0 0 0 1.05157,1.05159 1.0530868,1.0530868 0 0 0 1.05448,-1.05159 1.0530868,1.0530868 0 0 0 -1.05448,-1.05446 z m 2.63041,0 a 1.0530868,1.0530868 0 0 0 -1.05449,1.05446 1.0530868,1.0530868 0 0 0 1.05449,1.05159 1.0530868,1.0530868 0 0 0 1.05159,-1.05159 1.0530868,1.0530868 0 0 0 -1.05159,-1.05446 z m 2.6246,0 a 1.0530868,1.0530868 0 0 0 -1.05448,1.05446 1.0530868,1.0530868 0 0 0 1.05448,1.05159 1.0530868,1.0530868 0 0 0 1.05158,-1.05159 1.0530868,1.0530868 0 0 0 -1.05158,-1.05446 z m 2.62752,0 a 1.0530868,1.0530868 0 0 0 -1.0516,1.05446 1.0530868,1.0530868 0 0 0 1.0516,1.05159 1.0530868,1.0530868 0 0 0 1.05446,-1.05159 1.0530868,1.0530868 0 0 0 -1.05446,-1.05446 z m 2.62749,0 a 1.0530868,1.0530868 0 0 0 -1.05157,1.05446 1.0530868,1.0530868 0 0 0 1.05157,1.05159 1.0530868,1.0530868 0 0 0 1.05448,-1.05159 1.0530868,1.0530868 0 0 0 -1.05448,-1.05446 z m 2.62751,0 a 1.0530868,1.0530868 0 0 0 -1.05159,1.05446 1.0530868,1.0530868 0 0 0 1.05159,1.05159 1.0530868,1.0530868 0 0 0 1.05446,-1.05159 1.0530868,1.0530868 0 0 0 -1.05446,-1.05446 z m 2.6275,0 a 1.0530868,1.0530868 0 0 0 -1.05158,1.05446 1.0530868,1.0530868 0 0 0 1.05158,1.05159 1.0530868,1.0530868 0 0 0 1.05448,-1.05159 1.0530868,1.0530868 0 0 0 -1.05448,-1.05446 z m 2.6275,0 a 1.0530868,1.0530868 0 0 0 -1.05447,1.05446 1.0530868,1.0530868 0 0 0 1.05447,1.05159 1.0530868,1.0530868 0 0 0 1.05448,-1.05159 1.0530868,1.0530868 0 0 0 -1.05448,-1.05446 z m 2.62751,0 a 1.0530868,1.0530868 0 0 0 -1.05448,1.05446 1.0530868,1.0530868 0 0 0 1.05448,1.05159 1.0530868,1.0530868 0 0 0 1.05158,-1.05159 1.0530868,1.0530868 0 0 0 -1.05158,-1.05446 z m 2.6275,0 a 1.0530868,1.0530868 0 0 0 -1.05447,1.05446 1.0530868,1.0530868 0 0 0 1.05447,1.05159 1.0530868,1.0530868 0 0 0 1.05159,-1.05159 1.0530868,1.0530868 0 0 0 -1.05159,-1.05446 z m -59.27672,5.78513 0,0.35632 1.07186,0 0,2.64489 0.39977,0 0,-2.64489 1.07186,0 0,-0.35632 -2.54349,0 z m 2.95195,0 0,3.00121 0.37081,0 0,-2.58696 0.82852,1.76133 0.23753,0 0.83432,-1.76133 0,2.58696 0.39977,0 0,-3.00121 -0.55329,0 -0.77349,1.67153 -0.80245,-1.67153 -0.54172,0 z m -40.92186,1.04869 0,2.68254 c -0.27705,-0.14405 -0.54255,-0.24924 -0.79376,-0.31576 -0.25121,-0.0702 -0.53822,-0.10715 -0.86328,-0.10715 -0.35834,0 -0.70674,0.0752 -1.04288,0.22306 -0.33248,0.14776 -0.62366,0.36236 -0.87487,0.64311 -0.2549,0.28817 -0.45688,0.63575 -0.60835,1.04579 -0.14777,0.41005 -0.22306,0.87756 -0.22306,1.40211 0,1.0085 0.21669,1.79789 0.64891,2.36677 0.43588,0.5689 1.02248,0.85461 1.76133,0.85461 0.38046,0 0.73227,-0.0732 1.05737,-0.21728 0.32507,-0.14405 0.6394,-0.34395 0.93859,-0.60256 l 0,0.64602 1.04,0 0,-8.62123 -1.04,0 z m 10.21743,0.31576 0,1.08055 1.17325,0 0,-1.08055 -1.17325,0 z m -24.68753,0.055 -3.00122,8.25042 1.11242,0 0.80824,-2.29726 3.56902,0 0.81113,2.29726 1.16746,0 -3.0041,-8.25042 -1.46295,0 z m 0.70395,0.95887 1.44845,4.04989 -2.89981,0 1.45136,-4.04989 z m 30.23802,0.92992 c -0.36569,0 -0.7217,0.0773 -1.06895,0.22884 -0.34726,0.15149 -0.68305,0.36186 -1.00812,0.63153 l 0,-0.68656 -1.04,0 0,6.18782 1.04,0 0,-4.6206 c 0.28443,-0.21795 0.58195,-0.39552 0.89224,-0.53592 0.3103,-0.14035 0.60781,-0.21147 0.89224,-0.21147 0.27707,0 0.50137,0.0382 0.67498,0.11587 0.17374,0.074 0.30745,0.18957 0.39978,0.34472 0.0886,0.14036 0.14932,0.33401 0.18251,0.5852 0.0332,0.2475 0.0493,0.51512 0.0493,0.79954 l 0,3.52266 1.0429,0 0,-4.01513 c 0,-0.75731 -0.17631,-1.33837 -0.52724,-1.74105 -0.35095,-0.40264 -0.86094,-0.60545 -1.52958,-0.60545 z m 6.48331,0 c -0.87549,0 -1.57148,0.29619 -2.08868,0.88356 -0.51349,0.58367 -0.77058,1.37856 -0.77058,2.38705 0,1.0085 0.25709,1.80341 0.77058,2.38706 0.5172,0.58367 1.21319,0.87778 2.08868,0.87778 0.86812,0 1.56281,-0.29411 2.07999,-0.87778 0.51717,-0.58365 0.77347,-1.37856 0.77347,-2.38706 0,-1.00849 -0.2563,-1.80338 -0.77347,-2.38705 -0.51718,-0.58737 -1.21187,-0.88356 -2.07999,-0.88356 z m -31.78788,0.17381 0,6.18782 1.03998,0 0,-4.39174 c 0.27708,-0.22531 0.56699,-0.41001 0.86619,-0.5504 0.29923,-0.14407 0.60854,-0.21438 0.92991,-0.21438 0.19949,0 0.37159,0.008 0.51565,0.0261 0.14777,0.0149 0.29968,0.0414 0.45482,0.0783 l 0.055,0 0,-1.06895 c -0.16242,-0.0258 -0.2837,-0.0419 -0.36502,-0.0493 -0.0812,-0.0111 -0.21295,-0.0174 -0.39398,-0.0174 -0.32877,0 -0.65277,0.0712 -0.97047,0.21147 -0.31394,0.13666 -0.6784,0.3686 -1.09215,0.70106 l 0,-0.91253 -1.03998,0 z m 11.88027,0 0,4.01803 c 0,0.76838 0.17982,1.35076 0.54171,1.74974 0.36204,0.39525 0.86783,0.59387 1.51799,0.59387 0.38789,0 0.74468,-0.0752 1.06607,-0.22307 0.3214,-0.14777 0.65717,-0.36026 1.00813,-0.63732 l 0,0.68657 1.03999,0 0,-6.18782 -1.03999,0 0,4.62058 c -0.27707,0.21795 -0.57668,0.39845 -0.89805,0.53883 -0.3177,0.14035 -0.61101,0.20857 -0.88066,0.20857 -0.30294,0 -0.53352,-0.0362 -0.69237,-0.11007 -0.15888,-0.074 -0.28844,-0.1909 -0.38819,-0.35344 -0.0961,-0.15888 -0.15869,-0.34903 -0.1883,-0.57068 -0.0295,-0.22535 -0.0463,-0.49715 -0.0463,-0.81115 l 0,-3.52264 -1.03998,0 z m 7.23649,0 0,6.18782 1.04,0 0,-6.18782 -1.04,0 z m 12.67112,0.72422 c 0.55782,0 0.99541,0.1965 1.30941,0.58809 0.31399,0.38786 0.4693,0.98285 0.4693,1.78449 0,0.78314 -0.1574,1.37395 -0.4751,1.77292 -0.314,0.39525 -0.74948,0.59387 -1.30361,0.59387 -0.56149,0 -0.9983,-0.2007 -1.3123,-0.59966 -0.314,-0.40266 -0.4722,-0.99137 -0.4722,-1.76713 0,-0.80164 0.15611,-1.39663 0.4664,-1.78449 0.31399,-0.39159 0.75292,-0.58809 1.3181,-0.58809 z m -24.43551,0.055 c 0.26228,0 0.50548,0.0242 0.72714,0.0724 0.22162,0.048 0.47246,0.13515 0.75319,0.26071 l 0,3.55165 c -0.26226,0.20684 -0.54588,0.37684 -0.8488,0.50984 -0.30291,0.12923 -0.6025,0.19409 -0.89803,0.19409 -0.55411,0 -0.95685,-0.19021 -1.20803,-0.57069 -0.25119,-0.3842 -0.37659,-0.94217 -0.37659,-1.67732 0,-0.7462 0.16169,-1.3231 0.48668,-1.72945 0.3251,-0.40634 0.78078,-0.61126 1.36444,-0.61126 z"
       style="font-size:6.12090015px;font-family:OCRA;fill:#ffffff" />
    <path
       style="fill:#404040"
       d="m -180.84517,344.63072 0,7.19844 57.60004,0 0,-7.19844 -57.60004,0 z m 64.80161,0 0,7.19844 43.198463,0 0,-7.19844 -43.198463,0 z"
       id="path59509"
       inkscape:connector-curvature="0" />
    <path
       style="fill:#404040"
       d="m -78.088844,265.52598 -1.510945,1.5125 0,3.92969 1.510945,1.51094 3.93281,0 3.340627,0 3.934378,0 1.510937,-1.51094 0,-3.92969 -1.510937,-1.5125 -3.934378,0 -3.340627,0 -3.93281,0 z m 0,7.18282 -1.510945,1.50937 0,3.93125 1.510945,1.51407 3.93281,0 3.340627,0 3.934378,0 1.510937,-1.51407 0,-3.93125 -1.510937,-1.50937 -3.934378,0 -3.340627,0 -3.93281,0 z m 0,7.17656 -1.510945,1.51251 0,3.93437 1.510945,1.50781 3.93281,0 3.340627,0 3.934378,0 1.510937,-1.50781 0,-3.93437 -1.510937,-1.51251 -3.934378,0 -3.340627,0 -3.93281,0 z"
       id="path59511"
       inkscape:connector-curvature="0" />
    <path
       style="fill:#404040"
       d="m -206.82643,207.83063 0,7.19844 72.00004,0 0,-7.19844 -72.00004,0 z m 76.38129,0 0,7.2 57.600043,0 0,-7.2 -57.600043,0 z"
       id="path59513"
       inkscape:connector-curvature="0" />
    <path
       style="fill:#232323"
       d="m -261.25616,320.53383 0,25.51252 7.68751,0 0,-0.88907 29.75158,0 0,-6.25469 0.975,0 0,-2.75625 0.72656,0 0,-5.71251 -0.72656,0 0,-2.75937 -0.975,0 0,-6.24845 -29.75158,0 0,-0.89218 -7.68751,0 z"
       id="path59539"
       inkscape:connector-curvature="0" />
    <path
       style="fill:#999999"
       d="m -255.8374,227.11345 c -0.0355,0 -0.0656,0.0163 -0.1,0.0203 l 0,-0.0172 c -0.0636,0 -0.14732,0.0239 -0.23751,0.0656 -0.0617,0.0248 -0.11153,0.0675 -0.16562,0.10469 -0.0352,0.0237 -0.0697,0.0409 -0.10312,0.0687 -0.0281,0.0255 -0.0503,0.054 -0.075,0.0828 -0.12459,0.12664 -0.22541,0.27371 -0.225,0.43594 l 0,0.14062 c -3e-5,0.003 -0.002,0.005 -0.002,0.008 l 0,3.1625 -9.9125,0 0,0.002 -7.56251,0 0,32.47972 7.56407,0 0,-0.002 9.90782,0 0,3.17188 0,0.14687 c 0,0.16538 0.10346,0.31598 0.23125,0.44375 0.0211,0.024 0.0406,0.0471 0.0641,0.0688 0.0548,0.0464 0.1103,0.0793 0.16875,0.11406 0.0344,0.0197 0.0629,0.0473 0.1,0.0625 0.0919,0.0431 0.17909,0.0687 0.24375,0.0687 l 0,-0.0203 c 0.0344,0.004 0.0645,0.0203 0.1,0.0203 l 1.02031,0 2.95625,0 0,-2.03907 0,-2.0375 21.88908,0 0,-32.47971 -21.88595,0 0,-2.02969 0,-2.03906 -2.95625,0 c 0,-0.002 -1.02031,-0.003 -1.02031,-0.003 z"
       id="path59541"
       inkscape:connector-curvature="0" />
    <path
       style="fill:#cccccc"
       d="m -249.84209,205.23844 0,2.01875 -2.59531,0 0,2.25156 2.59531,0 0,3.20782 -2.59531,0 0,3.41719 2.59531,0 0,3.375 -2.59531,0 0,2.25 2.59531,0 0,2.01875 6.24688,0 0,-0.36875 8.26407,0 0,0.36875 6.24531,0 0,-2.67969 0,-13.3 0,-2.55938 -6.24531,0 0,0.36875 -8.26407,0 0,-0.36875 -6.24688,0 z m 20.7797,2.01875 0,2.25156 2.75001,0 0,-2.25156 -2.75001,0 z m 0,12.25157 0,2.25 2.75001,0 0,-2.25 -2.75001,0 z"
       id="path59543"
       inkscape:connector-curvature="0" />
    <circle
       id="circle59545"
       r="4.9289999"
       cy="-239.46184"
       cx="-214.62529"
       style="fill:#852725"
       transform="matrix(0,-1,1,0,0,0)" />
    <path
       style="fill:#404040"
       d="m -213.75144,217.27595 -1.51094,1.51093 0,3.93282 0,3.34063 0,3.93281 1.51094,1.51094 3.93125,0 1.50938,-1.51094 0,-3.93281 0,-3.34063 0,-3.93282 -1.50938,-1.51093 -3.93125,0 z m 7.17969,0 -1.50937,1.51093 0,3.93282 0,3.34063 0,3.93281 1.50937,1.51094 3.93282,0 1.5125,-1.51094 0,-3.93281 0,-3.34063 0,-3.93282 -1.5125,-1.51093 -3.93282,0 z m 7.1797,0 -1.51094,1.51093 0,3.93282 0,3.34063 0,3.93281 1.51094,1.51094 3.93437,0 1.50781,-1.51094 0,-3.93281 0,-3.34063 0,-3.93282 -1.50781,-1.51093 -3.93437,0 z"
       id="path59547"
       inkscape:connector-curvature="0" />
    <path
       style="fill:#232323;fill-opacity:1"
       d="m -41.721235,252.01327 0,19.12345 -19.121888,0 0,17.38283 19.121888,0 0,19.12345 17.384386,0 0,-19.12345 19.1218875,0 0,-17.38283 -19.1218875,0 0,-19.12345 -17.384386,0 z"
       id="path59553"
       inkscape:connector-curvature="0" />
  </g>
</svg>
