<?xml version="1.0" encoding="UTF-8" standalone="no"?>
<!-- Created with Inkscape (http://www.inkscape.org/) -->

<svg
   xmlns:dc="http://purl.org/dc/elements/1.1/"
   xmlns:cc="http://creativecommons.org/ns#"
   xmlns:rdf="http://www.w3.org/1999/02/22-rdf-syntax-ns#"
   xmlns:svg="http://www.w3.org/2000/svg"
   xmlns="http://www.w3.org/2000/svg"
   xmlns:sodipodi="http://sodipodi.sourceforge.net/DTD/sodipodi-0.dtd"
   xmlns:inkscape="http://www.inkscape.org/namespaces/inkscape"
   width="210mm"
   height="297mm"
   viewBox="0 0 744.09448819 1052.3622047"
   id="svg5309"
   version="1.1"
   inkscape:version="0.91 r13725"
   sodipodi:docname="ConnectTheDotsLogo.svg">
  <defs
     id="defs5311" />
  <sodipodi:namedview
     id="base"
     pagecolor="#ffffff"
     bordercolor="#666666"
     borderopacity="1.0"
     inkscape:pageopacity="0.0"
     inkscape:pageshadow="2"
     inkscape:zoom="0.32233677"
     inkscape:cx="278.32198"
     inkscape:cy="442.59042"
     inkscape:document-units="px"
     inkscape:current-layer="layer1"
     showgrid="false"
     inkscape:window-width="1366"
     inkscape:window-height="705"
     inkscape:window-x="1912"
     inkscape:window-y="-8"
     inkscape:window-maximized="1"
     inkscape:snap-bbox="true"
     inkscape:snap-intersection-paths="true"
     inkscape:object-paths="true"
     inkscape:object-nodes="true"
     inkscape:snap-smooth-nodes="true"
     inkscape:snap-global="false" />
  <metadata
     id="metadata5314">
    <rdf:RDF>
      <cc:Work
         rdf:about="">
        <dc:format>image/svg+xml</dc:format>
        <dc:type
           rdf:resource="http://purl.org/dc/dcmitype/StillImage" />
        <dc:title></dc:title>
      </cc:Work>
    </rdf:RDF>
  </metadata>
  <g
     inkscape:label="Layer 1"
     inkscape:groupmode="layer"
     id="layer1">
    <g
       id="g7427">
      <path
         inkscape:connector-curvature="0"
         id="path6812"
         d="m 92.162844,59.342723 a 23.011585,23.011585 0 0 0 -23.01121,23.01121 23.011585,23.011585 0 0 0 23.01121,23.011187 23.011585,23.011585 0 0 0 13.189876,-4.16969 l 19.67625,21.67723 a 73.617303,73.617303 0 0 1 3.59347,-3.00343 L 108.89093,98.132813 a 23.011585,23.011585 0 0 0 6.28314,-15.77888 23.011585,23.011585 0 0 0 -23.011226,-23.01121 z m 36.459596,60.526507 47.11761,51.90496 a 16.264411,16.264411 0 0 1 9.02215,-2.7469 16.264411,16.264411 0 0 1 7.91116,2.06018 l 32.05703,-46.61245 a 73.617303,73.617303 0 0 0 -50.74266,-20.41625 73.617303,73.617303 0 0 0 -45.36529,15.81046 z m 96.10795,4.60579 a 73.617303,73.617303 0 0 1 3.31325,3.43955 l 10.99747,-15.99202 a 15.61215,15.61215 0 0 0 6.59689,1.48002 15.61215,15.61215 0 0 0 15.61117,-15.611147 15.61215,15.61215 0 0 0 -15.61117,-15.61312 15.61215,15.61215 0 0 0 -15.61312,15.61312 15.61215,15.61215 0 0 0 5.12281,11.538157 l -10.4173,15.14544 z m 3.31325,3.43955 -31.64657,46.01649 a 16.264411,16.264411 0 0 1 4.39464,8.60775 l 82.68524,-2.19831 a 20.124005,20.124005 0 0 1 9.51549,-16.12817 50.028211,50.028211 0 0 0 -37.21142,-16.73991 50.028211,50.028211 0 0 0 -13.87067,1.98518 73.617303,73.617303 0 0 0 -13.86671,-21.54303 z m -103.01467,-5.04191 a 73.617303,73.617303 0 0 0 -24.4123,49.90991 39.056634,39.056634 0 0 0 -36.800966,38.97756 39.056634,39.056634 0 0 0 2.01479,12.2841 l 8.99451,0 a 17.388674,17.388674 0 0 1 17.20958,-15.04481 17.388674,17.388674 0 0 1 14.867206,8.40055 l 62.43278,-27.02303 a 16.264411,16.264411 0 0 1 -0.83669,-5.08531 16.264411,16.264411 0 0 1 3.75922,-10.39166 l -47.22813,-52.02731 z m 178.52285,43.29131 a 15.1611,15.1611 0 0 0 -15.16123,15.16123 15.1611,15.1611 0 0 0 15.16123,15.16123 15.1611,15.1611 0 0 0 15.16124,-15.16123 15.1611,15.1611 0 0 0 -15.16124,-15.16123 z m -118.78962,8.00587 a 11.122432,11.122432 0 0 0 -11.12375,11.12179 11.122432,11.122432 0 0 0 11.12375,11.12375 11.122432,11.122432 0 0 0 11.12179,-11.12375 11.122432,11.122432 0 0 0 -11.12179,-11.12179 z m 99.01865,10.84355 -82.88061,2.20225 a 16.264411,16.264411 0 0 1 -7.78486,12.01177 l 10.35021,24.81682 94.69307,0 a 50.028211,50.028211 0 0 0 7.46517,-22.72508 20.124005,20.124005 0 0 1 -2.07201,0.13025 20.124005,20.124005 0 0 1 -19.77097,-16.43601 z m -80.31526,39.03084 -5.06953,0 8.68865,20.83263 a 15.43173,15.43173 0 0 0 -7.30335,13.09515 15.43173,15.43173 0 0 0 15.43157,15.43355 15.43173,15.43173 0 0 0 15.43158,-15.43355 15.43173,15.43173 0 0 0 -15.43158,-15.4316 15.43173,15.43173 0 0 0 -3.82434,0.50125 l -7.923,-18.99743 z m -5.06953,0 -9.59638,-23.00924 a 16.264411,16.264411 0 0 1 -4.03748,0.52097 16.264411,16.264411 0 0 1 -13.33785,-6.98566 l -62.64985,27.11973 a 17.388674,17.388674 0 0 1 0.47163,2.3542 l 89.14993,0 z M 92.034584,214.09264 a 12.295164,12.295164 0 0 0 -12.29396,12.29591 12.295164,12.295164 0 0 0 12.29396,12.29396 12.295164,12.295164 0 0 0 12.295936,-12.29396 12.295164,12.295164 0 0 0 -12.295936,-12.29591 z"
         style="opacity:1;fill:#393939;fill-opacity:1;stroke:none;stroke-width:10;stroke-miterlimit:4;stroke-dasharray:none" />
      <text
         xml:space="preserve"
         style="font-style:normal;font-weight:normal;font-size:105.11377716px;line-height:125%;font-family:sans-serif;letter-spacing:0px;word-spacing:0px;fill:#393939;fill-opacity:1;stroke:none;stroke-width:1px;stroke-linecap:butt;stroke-linejoin:miter;stroke-opacity:1"
         x="335.25641"
         y="148.93631"
         id="text5340"
         sodipodi:linespacing="125%"><tspan
           sodipodi:role="line"
           id="tspan5342"
           x="335.25641"
           y="148.93631"
           style="font-style:normal;font-variant:normal;font-weight:normal;font-stretch:normal;font-family:'Segoe UI Light';-inkscape-font-specification:'Segoe UI Light, ';fill:#393939;fill-opacity:1">Connect</tspan></text>
      <text
         sodipodi:linespacing="125%"
         id="text5344"
         y="244.44771"
         x="470.67667"
         style="font-style:normal;font-weight:normal;font-size:105.11377716px;line-height:125%;font-family:sans-serif;letter-spacing:0px;word-spacing:0px;fill:#393939;fill-opacity:1;stroke:none;stroke-width:1px;stroke-linecap:butt;stroke-linejoin:miter;stroke-opacity:1"
         xml:space="preserve"><tspan
           style="font-style:normal;font-variant:normal;font-weight:normal;font-stretch:normal;font-family:'Segoe UI Light';-inkscape-font-specification:'Segoe UI Light, ';fill:#393939;fill-opacity:1"
           y="244.44771"
           x="470.67667"
           id="tspan5346"
           sodipodi:role="line">Dots</tspan></text>
      <text
         sodipodi:linespacing="125%"
         id="text5348"
         y="201.56"
         x="404.60806"
         style="font-style:normal;font-weight:normal;font-size:42.52774048px;line-height:125%;font-family:sans-serif;letter-spacing:0px;word-spacing:0px;fill:#393939;fill-opacity:1;stroke:none;stroke-width:1px;stroke-linecap:butt;stroke-linejoin:miter;stroke-opacity:1"
         xml:space="preserve"><tspan
           style="font-style:normal;font-variant:normal;font-weight:normal;font-stretch:normal;font-family:'Segoe UI Light';-inkscape-font-specification:'Segoe UI Light, ';fill:#393939;fill-opacity:1"
           y="201.56"
           x="404.60806"
           id="tspan5350"
           sodipodi:role="line">the</tspan></text>
    </g>
    <g
       transform="matrix(0.49245549,0,0,0.49245549,495.38004,607.52052)"
       id="g5381" />
  </g>
</svg>
