<?xml version="1.0" encoding="UTF-8" standalone="no"?>
<!-- Created with Inkscape (http://www.inkscape.org/) -->

<svg
   xmlns:dc="http://purl.org/dc/elements/1.1/"
   xmlns:cc="http://creativecommons.org/ns#"
   xmlns:rdf="http://www.w3.org/1999/02/22-rdf-syntax-ns#"
   xmlns:svg="http://www.w3.org/2000/svg"
   xmlns="http://www.w3.org/2000/svg"
   xmlns:sodipodi="http://sodipodi.sourceforge.net/DTD/sodipodi-0.dtd"
   xmlns:inkscape="http://www.inkscape.org/namespaces/inkscape"
   width="210mm"
   height="297mm"
   viewBox="0 0 744.09448819 1052.3622047"
   id="svg5309"
   version="1.1"
   inkscape:version="0.91 r13725"
   sodipodi:docname="ConnectTheDotsLogo.svg">
  <defs
     id="defs5311" />
  <sodipodi:namedview
     id="base"
     pagecolor="#ffffff"
     bordercolor="#666666"
     borderopacity="1.0"
     inkscape:pageopacity="0.0"
     inkscape:pageshadow="2"
     inkscape:zoom="0.24748737"
     inkscape:cx="256.79239"
     inkscape:cy="220.95201"
     inkscape:document-units="px"
     inkscape:current-layer="layer1"
     showgrid="false"
     inkscape:window-width="1920"
     inkscape:window-height="1017"
     inkscape:window-x="1912"
     inkscape:window-y="-8"
     inkscape:window-maximized="1" />
  <metadata
     id="metadata5314">
    <rdf:RDF>
      <cc:Work
         rdf:about="">
        <dc:format>image/svg+xml</dc:format>
        <dc:type
           rdf:resource="http://purl.org/dc/dcmitype/StillImage" />
        <dc:title></dc:title>
      </cc:Work>
    </rdf:RDF>
  </metadata>
  <g
     inkscape:label="Layer 1"
     inkscape:groupmode="layer"
     id="layer1">
    <g
       id="g5420">
      <path
         style="fill:#393939"
         d="m 208.37569,270.60734 c -5.69059,-2.84363 -8.73985,-8.14272 -8.34016,-14.49378 0.25073,-3.98404 1.44238,-6.67859 4.34728,-9.83003 1.06416,-1.15447 1.93379,-2.29587 1.93252,-2.53643 -0.001,-0.24056 -1.68214,-4.42627 -3.73526,-9.30158 -2.05312,-4.87531 -3.85076,-9.25201 -3.99476,-9.726 -0.24681,-0.81237 -2.7832,-0.8618 -44.22172,-0.8618 -42.68717,0 -43.96694,-0.0269 -44.2032,-0.93039 -0.48303,-1.84713 -2.32696,-0.92702 29.18331,-14.56229 7.71924,-3.34031 17.9023,-7.75829 22.62902,-9.81774 4.72672,-2.05945 8.89746,-3.74445 9.2683,-3.74445 0.37085,0 1.71125,0.87438 2.97867,1.94307 3.51806,2.96643 6.59167,4.16877 10.807,4.22751 1.96793,0.0274 3.77818,0.25689 4.02279,0.50994 0.2446,0.25305 2.49103,5.39079 4.99206,11.41722 l 4.54732,10.95713 2.38703,0 c 1.31286,0 2.38702,-0.18863 2.38702,-0.41918 0,-0.23055 -2.22967,-5.78174 -4.95483,-12.33598 l -4.95484,-11.91679 2.65566,-2.86843 c 1.77545,-1.91769 3.02957,-3.86824 3.78375,-5.88488 0.62044,-1.65904 1.15645,-3.03429 1.19114,-3.05611 0.16529,-0.10394 28.7683,-0.97638 46.35389,-1.41387 10.83402,-0.26953 23.17779,-0.64068 27.4306,-0.82479 l 7.73237,-0.33475 0.58591,1.42965 c 2.81985,6.88064 5.39367,10.03809 10.123,12.41847 2.61852,1.31796 6.29932,2.35168 9.52936,2.67623 1.1485,0.11541 1.22417,0.28899 1.12733,2.58599 -0.16965,4.02335 -1.94857,10.03143 -4.44724,15.01989 l -2.34333,4.67833 -45.9379,0.12565 c -39.61047,0.10835 -45.97568,0.22408 -46.21212,0.84024 -0.26016,0.67797 5.08304,14.21495 6.41052,16.24102 0.50698,0.77379 1.25537,0.97038 3.92854,1.03197 6.82227,0.15717 12.57762,4.71284 14.38384,11.38558 0.99916,3.69119 0.72476,6.58258 -0.97759,10.30101 -3.4801,7.60153 -12.8394,10.84609 -20.39528,7.07037 z M 90.094963,237.67881 c -6.797279,-2.06764 -10.605728,-8.79471 -8.688387,-15.34678 1.568091,-5.35859 6.240218,-8.82547 11.866109,-8.80506 3.828679,0.0139 6.403679,1.18689 8.946115,4.07525 5.95302,6.76298 3.06745,17.27441 -5.438768,19.81217 -2.611837,0.77922 -4.718714,0.86256 -6.685069,0.26442 z M 67.548977,222.5223 c -1.556302,-4.07999 -1.798064,-5.68574 -1.800812,-11.96088 -0.0025,-5.56843 0.182559,-7.24798 1.139099,-10.34156 4.588617,-14.84013 16.768563,-25.16563 31.824395,-26.97898 l 2.950271,-0.35533 0.38757,-2.46076 c 2.15421,-13.67763 4.89198,-21.87762 10.19346,-30.53073 2.63899,-4.30738 7.5789,-10.6356 10.55545,-13.52195 1.24524,-1.2075 2.26408,-2.51125 2.26408,-2.89721 0,-0.38596 -2.07522,-2.94368 -4.61161,-5.68382 -2.53638,-2.74014 -6.64955,-7.25352 -9.14036,-10.02974 -2.49081,-2.77622 -4.82011,-5.04767 -5.17622,-5.04767 -0.35612,0 -1.89638,0.55233 -3.42283,1.22739 -17.56112,7.76637 -36.385477,-8.032523 -31.575201,-26.500401 1.078586,-4.14097 2.491283,-6.593187 5.758252,-9.995399 10.990474,-11.445434 29.884719,-8.34229 36.926589,6.064732 1.59152,3.256096 1.63732,3.523775 1.6379,9.572798 l 4.9e-4,6.223037 -2.40851,4.757883 -2.4085,4.757889 1.21056,1.330471 c 9.84228,10.81694 17.83066,19.30509 18.16854,19.30509 0.23321,0 2.25988,-1.19214 4.50372,-2.6492 8.45543,-5.49061 18.15379,-9.28508 27.8713,-10.90461 7.62932,-1.27151 21.07389,-0.83796 28.25752,0.91123 11.39457,2.77453 22.05899,8.14777 30.32932,15.28134 1.43035,1.23375 2.88827,2.1328 3.23983,1.9979 0.35155,-0.1349 2.80908,-3.44055 5.46118,-7.34589 l 4.82198,-7.10059 -1.556,-2.34915 c -4.27608,-6.4557 -3.73781,-13.933185 1.40459,-19.512026 2.85571,-3.098077 6.22389,-4.492578 10.8666,-4.499 6.08417,-0.0084 10.82021,2.879343 13.68822,8.346259 1.1014,2.099471 1.29099,3.079053 1.28669,6.648149 -0.006,4.905748 -1.07677,7.654028 -4.19883,10.776088 -3.37993,3.37993 -5.78907,4.24309 -11.84388,4.24347 l -5.25367,3.3e-4 -5.21101,7.48402 c -2.86605,4.11621 -5.21101,7.70004 -5.21101,7.96406 0,0.26403 1.42025,2.36312 3.15611,4.66466 3.47361,4.60558 6.8349,10.13002 8.36213,13.74358 0.57601,1.3629 1.30751,2.33851 1.75268,2.33759 0.42024,-9.8e-4 2.75851,-0.35697 5.19616,-0.79134 11.51281,-2.05148 24.93356,0.74742 35.05114,7.30995 3.81337,2.47344 9.02363,7.07297 9.02363,7.96589 0,0.32744 -1.09937,1.73592 -2.44304,3.12996 -2.72859,2.83085 -4.60991,6.18824 -5.48091,9.78115 -0.31994,1.31974 -0.75737,2.59423 -0.97206,2.83221 -0.32366,0.35876 -47.5527,1.85367 -73.85201,2.33759 l -7.12511,0.13111 -1.23114,-2.47173 c -0.67712,-1.35944 -1.63773,-3.08576 -2.13468,-3.83624 -0.52858,-0.79826 -0.78811,-1.80508 -0.62539,-2.42616 0.15298,-0.5839 2.33242,-3.9893 4.84319,-7.56755 4.39369,-6.26173 14.74488,-21.20939 21.67786,-31.30398 1.82824,-2.66196 3.32408,-5.12191 3.32408,-5.46656 0,-0.97234 -2.32788,-2.92509 -3.12319,-2.6199 -0.39107,0.15007 -2.89433,3.44678 -5.56281,7.32603 -2.66849,3.87924 -5.62847,8.17572 -6.57776,9.54773 -0.94927,1.372 -5.59496,8.0939 -10.32373,14.93756 -9.53382,13.79768 -8.2388,12.69148 -13.3165,11.37482 -2.77471,-0.7195 -6.86328,-0.2854 -9.37348,0.9952 -1.05257,0.53699 -2.22044,0.97633 -2.59528,0.97633 -0.59117,0 -5.35593,-5.0897 -13.14647,-14.04302 -1.21883,-1.40075 -6.5634,-7.40129 -11.87682,-13.33454 -5.31343,-5.93326 -12.13498,-13.5578 -15.15899,-16.94343 -3.02402,-3.38564 -5.67515,-6.21707 -5.8914,-6.29209 -0.64241,-0.22284 -3.02204,1.87096 -3.02204,2.65904 0,0.62574 9.67546,11.65407 38.52205,43.90842 3.46027,3.86904 6.2914,7.33254 6.2914,7.69666 0,0.36412 -0.59627,1.96305 -1.32504,3.55317 -1.11481,2.4324 -1.31824,3.53291 -1.28209,6.93587 0.0269,2.53801 -0.17176,4.22294 -0.53343,4.5231 -0.31701,0.2631 -6.44362,3.01802 -13.61469,6.12205 -7.17107,3.10402 -18.24602,7.9082 -24.61101,10.67593 -18.09746,7.86946 -21.57952,9.35229 -21.96158,9.35229 -0.19585,0 -1.64404,-1.22849 -3.2182,-2.72999 -4.08508,-3.89651 -6.512371,-4.88674 -12.00061,-4.89578 -3.783486,-0.006 -4.842635,0.18515 -7.237372,1.30766 -4.716419,2.21078 -8.753791,7.16157 -9.723667,11.92357 l -0.312665,1.53515 -3.976337,0.14194 c -3.949842,0.14099 -3.979823,0.13279 -4.500092,-1.23114 z M 180.4436,195.11464 c -7.46693,-3.47706 -8.69912,-13.24404 -2.33332,-18.49513 4.43889,-3.66161 10.30066,-3.30556 14.48612,0.87989 4.56893,4.56894 4.57019,10.91126 0.003,15.34292 -3.66182,3.55319 -7.76001,4.31927 -12.15583,2.27232 z m 117.13543,0.28196 c -3.4284,-1.22527 -6.52259,-3.85913 -8.29687,-7.06254 -1.31965,-2.38259 -1.46279,-3.07626 -1.4596,-7.07374 0.003,-3.64656 0.19983,-4.80062 1.11105,-6.51134 1.73478,-3.25686 3.88581,-5.39758 6.9215,-6.88833 2.36243,-1.16012 3.41116,-1.37251 6.73758,-1.36447 3.29919,0.008 4.33993,0.22121 6.40192,1.3117 3.1872,1.68556 5.83114,4.45688 7.1963,7.54298 1.49308,3.37527 1.48913,8.41118 -0.009,11.86759 -2.98806,6.89257 -11.60275,10.67979 -18.60259,8.17815 z"
         id="path5330"
         inkscape:connector-curvature="0"
         sodipodi:nodetypes="ssscssssssssssscssscsscsscssssscssssssssssssssssscsssssssssssccccsssssssscssssssscsssscssssssscsssssssssssssssssssssssssssssscsscssscccscsssssscc" />
      <text
         xml:space="preserve"
         style="font-style:normal;font-weight:normal;font-size:105.11377716px;line-height:125%;font-family:sans-serif;letter-spacing:0px;word-spacing:0px;fill:#393939;fill-opacity:1;stroke:none;stroke-width:1px;stroke-linecap:butt;stroke-linejoin:miter;stroke-opacity:1"
         x="335.25641"
         y="148.93631"
         id="text5340"
         sodipodi:linespacing="125%"><tspan
           sodipodi:role="line"
           id="tspan5342"
           x="335.25641"
           y="148.93631"
           style="font-style:normal;font-variant:normal;font-weight:normal;font-stretch:normal;font-family:'Segoe UI Light';-inkscape-font-specification:'Segoe UI Light, ';fill:#393939;fill-opacity:1">Connect</tspan></text>
      <text
         sodipodi:linespacing="125%"
         id="text5344"
         y="244.44771"
         x="470.67667"
         style="font-style:normal;font-weight:normal;font-size:105.11377716px;line-height:125%;font-family:sans-serif;letter-spacing:0px;word-spacing:0px;fill:#393939;fill-opacity:1;stroke:none;stroke-width:1px;stroke-linecap:butt;stroke-linejoin:miter;stroke-opacity:1"
         xml:space="preserve"><tspan
           style="font-style:normal;font-variant:normal;font-weight:normal;font-stretch:normal;font-family:'Segoe UI Light';-inkscape-font-specification:'Segoe UI Light, ';fill:#393939;fill-opacity:1"
           y="244.44771"
           x="470.67667"
           id="tspan5346"
           sodipodi:role="line">Dots</tspan></text>
      <text
         sodipodi:linespacing="125%"
         id="text5348"
         y="201.56"
         x="404.60806"
         style="font-style:normal;font-weight:normal;font-size:42.52774048px;line-height:125%;font-family:sans-serif;letter-spacing:0px;word-spacing:0px;fill:#393939;fill-opacity:1;stroke:none;stroke-width:1px;stroke-linecap:butt;stroke-linejoin:miter;stroke-opacity:1"
         xml:space="preserve"><tspan
           style="font-style:normal;font-variant:normal;font-weight:normal;font-stretch:normal;font-family:'Segoe UI Light';-inkscape-font-specification:'Segoe UI Light, ';fill:#393939;fill-opacity:1"
           y="201.56"
           x="404.60806"
           id="tspan5350"
           sodipodi:role="line">the</tspan></text>
    </g>
    <g
       transform="matrix(0.49245549,0,0,0.49245549,495.38004,607.52052)"
       id="g5381" />
  </g>
</svg>
