<?xml version="1.0" encoding="UTF-8" standalone="no"?>
<!DOCTYPE svg PUBLIC "-//W3C//DTD SVG 1.1//EN" "http://www.w3.org/Graphics/SVG/1.1/DTD/svg11.dtd">
<!-- Generated by Microsoft Visio, SVG Export Azure Logos.svg Page-1 -->
<svg xmlns="http://www.w3.org/2000/svg" xmlns:xlink="http://www.w3.org/1999/xlink" xmlns:ev="http://www.w3.org/2001/xml-events"
		xmlns:v="http://schemas.microsoft.com/visio/2003/SVGExtensions/" width="8.5in" height="11in" viewBox="0 0 612 792"
		xml:space="preserve" color-interpolation-filters="sRGB" class="st8">
	<v:documentProperties v:langID="1033" v:viewMarkup="false">
		<v:userDefs>
			<v:ud v:nameU="msvNoAutoConnect" v:val="VT0(1):26"/>
		</v:userDefs>
	</v:documentProperties>

	<style type="text/css">
	<![CDATA[
		.st1 {fill:#000000;stroke:none;stroke-linecap:butt;stroke-width:0.6375}
		.st2 {fill:#000000;font-family:Segoe UI;font-size:0.75em}
		.st3 {fill:#006fd4;stroke:none;stroke-linecap:butt;stroke-width:0.772727}
		.st4 {fill:#0078d7;font-family:Segoe UI;font-size:0.75em}
		.st5 {fill:#0078d7;stroke:none;stroke-linecap:butt;stroke-width:0.75}
		.st6 {font-size:1em}
		.st7 {fill:#0078d7;stroke:none;stroke-linecap:butt;stroke-width:0.6375}
		.st8 {fill:none;fill-rule:evenodd;font-size:12px;overflow:visible;stroke-linecap:square;stroke-miterlimit:3}
	]]>
	</style>

	<g v:mID="0" v:index="1" v:groupContext="foregroundPage">
		<title>Page-1</title>
		<v:pageProperties v:drawingScale="1" v:pageScale="1" v:drawingUnits="19" v:shadowOffsetX="9" v:shadowOffsetY="-9"/>
		<g id="group541-1" transform="translate(45.8318,-710.795)" v:mID="541" v:groupContext="group">
			<title>Microsoft Azure</title>
			<desc>Microsoft Azure</desc>
			<g id="shape542-2" v:mID="542" v:groupContext="shape" transform="translate(-2.07834E-013,-6.33181)">
				<title>Sheet.542</title>
				<path d="M25.11 786.59 C24 786.59 23.08 787.25 22.64 788.21 L6.92 788.21 C4.27 788.21 2.1 786.07 2.1 783.39 C2.1
							 780.74 4.23 778.56 6.92 778.56 L6.96 778.56 L6.99 778.56 L9.17 778.56 C9.28 778.01 9.42 777.46 9.64
							 776.98 C9.72 776.8 9.83 776.61 9.94 776.43 C11.04 774.51 13.11 773.23 15.5 773.23 C17.6 773.23 19.47
							 774.26 20.65 775.84 C21.31 775.54 22.01 775.29 22.75 775.14 C21.24 772.71 18.55 771.13 15.5 771.13 C11.93
							 771.13 8.84 773.34 7.58 776.46 C7.58 776.46 7.58 776.5 7.58 776.5 C7.58 776.5 7.58 776.46 7.58 776.46
							 L6.96 776.46 C3.13 776.46 0 779.56 0 783.42 C0 787.29 3.09 790.38 6.96 790.38 L22.68 790.38 C23.08 791.34
							 24.04 792 25.14 792 C26.62 792 27.83 790.82 27.83 789.31 C27.83 787.8 26.58 786.59 25.11 786.59 Z"
						class="st1"/>
			</g>
			<g id="shape543-4" v:mID="543" v:groupContext="shape" transform="translate(9.01914,1.13687E-013)">
				<title>Sheet.543</title>
				<path d="M24.7 774.96 C23.12 771.79 19.84 769.58 16.09 769.58 C11.49 769.58 7.66 772.78 6.7 777.09 C4.45 777.31 2.54
							 778.49 1.29 780.26 L12.74 780.26 C13.51 779.26 14.73 778.64 16.09 778.64 C18.44 778.64 20.36 780.55
							 20.36 782.91 C20.36 785.26 18.44 787.18 16.09 787.18 C14.73 787.18 13.55 786.55 12.74 785.56 L0 785.56
							 C0.52 789.2 3.64 792 7.4 792 C7.4 792 7.44 792 7.44 792 L24.59 792 C24.59 792 24.63 792 24.63 792 C29.34
							 792 33.17 788.17 33.17 783.46 C33.17 778.78 29.38 774.99 24.7 774.96 Z" class="st1"/>
			</g>
			<g id="shape541-6" v:mID="541" v:groupContext="groupContent">
				<v:textBlock v:margins="rect(0,0,0,0)" v:verticalAlign="0"/>
				<v:textRect cx="21.0937" cy="810.92" width="72" height="29.25"/>
				<text x="-10.43" y="803.05" class="st2" v:langID="1033"><v:paragraph v:spLine="-1" v:horizAlign="1"/><v:tabList/>Microsoft Azure</text>			</g>
		</g>
		<g id="group591-8" transform="translate(45.8318,-650.275)" v:mID="591" v:groupContext="group">
			<title>Event Hubs</title>
			<desc>Event Hubs</desc>
			<g id="shape592-9" v:mID="592" v:groupContext="shape" transform="translate(13.7545,-16.7682)">
				<title>Sheet.592</title>
				<path d="M5.18 791.46 C5.18 791.77 4.95 792 4.64 792 L0.54 792 C0.23 792 0 791.77 0 791.46 L0 788.45 C0 788.14 0.23
							 787.9 0.54 787.9 L4.64 787.9 C4.95 787.9 5.18 788.14 5.18 788.45 L5.18 791.46 Z" class="st3"/>
			</g>
			<g id="shape593-11" v:mID="593" v:groupContext="shape" transform="translate(21.1727,-13.6)">
				<title>Sheet.593</title>
				<path d="M5.1 791.46 C5.1 791.77 4.87 792 4.56 792 L0.54 792 C0.23 792 0 791.77 0 791.46 L0 788.45 C0 788.14 0.23
							 787.9 0.54 787.9 L4.64 787.9 C4.95 787.9 5.18 788.14 5.18 788.45 L5.18 791.46 L5.1 791.46 Z"
						class="st3"/>
			</g>
			<g id="shape594-13" v:mID="594" v:groupContext="shape" transform="translate(13.7545,-10.4318)">
				<title>Sheet.594</title>
				<path d="M5.18 791.46 C5.18 791.77 4.95 792 4.64 792 L0.54 792 C0.23 792 0 791.77 0 791.46 L0 788.45 C0 788.14 0.23
							 787.9 0.54 787.9 L4.64 787.9 C4.95 787.9 5.18 788.14 5.18 788.45 L5.18 791.46 Z" class="st3"/>
			</g>
			<g id="shape595-15" v:mID="595" v:groupContext="shape" transform="translate(6.33636,-19.9364)">
				<title>Sheet.595</title>
				<path d="M5.25 791.46 C5.25 791.77 5.02 792 4.71 792 L0.54 792 C0.23 792 0 791.77 0 791.46 L0 788.29 C0 787.98 0.23
							 787.75 0.54 787.75 L4.64 787.75 C5.02 787.75 5.25 787.98 5.25 788.29 L5.25 791.46 Z" class="st3"/>
			</g>
			<g id="shape596-17" v:mID="596" v:groupContext="shape" transform="translate(0,-24.1091)">
				<title>Sheet.596</title>
				<path d="M29.98 784.66 L29.9 784.66 L26.89 784.66 L3.71 784.66 L1.62 784.66 L0.54 784.66 C0.23 784.66 0 784.89 0
							 785.2 L0 791.46 C0 791.77 0.23 792 0.54 792 L3.71 792 C4.02 792 4.25 791.77 4.25 791.46 L4.25 788.83
							 L26.27 788.83 L26.27 791.46 C26.27 791.77 26.5 792 26.89 792 L29.9 792 C30.21 792 30.45 791.77 30.45
							 791.46 L30.45 788.29 L30.45 785.2 C30.52 784.89 30.29 784.66 29.98 784.66 Z" class="st3"/>
			</g>
			<g id="shape597-19" v:mID="597" v:groupContext="shape" transform="translate(0.154545,-1.13687E-013)">
				<title>Sheet.597</title>
				<path d="M29.83 784.74 L26.81 784.74 C26.5 784.74 26.27 784.97 26.27 785.28 L26.27 787.83 L4.17 787.83 L4.17 785.2
							 C4.17 784.89 3.94 784.66 3.55 784.66 L0.54 784.66 C0.23 784.66 0 784.89 0 785.28 L0 791.46 C0 791.77
							 0.23 792 0.54 792 L1.62 792 L3.71 792 L26.89 792 L29.83 792 L29.9 792 C30.21 792 30.45 791.77 30.45
							 791.46 L30.45 785.28 C30.37 784.97 30.14 784.74 29.83 784.74 Z" class="st3"/>
			</g>
			<g id="shape598-21" v:mID="598" v:groupContext="shape" transform="translate(6.41364,-13.6773)">
				<title>Sheet.598</title>
				<path d="M5.18 791.46 C5.18 791.77 4.95 792 4.64 792 L0.54 792 C0.23 792 0 791.77 0 791.46 L0 788.45 C0 788.14 0.23
							 787.9 0.54 787.9 L4.64 787.9 C4.95 787.9 5.18 788.14 5.18 788.45 L5.18 791.46 Z" class="st3"/>
			</g>
			<g id="shape599-23" v:mID="599" v:groupContext="shape" transform="translate(6.33636,-7.34091)">
				<title>Sheet.599</title>
				<path d="M5.18 791.46 C5.18 791.77 4.95 792 4.64 792 L0.54 792 C0.23 792 0 791.77 0 791.46 L0 788.45 C0 788.14 0.23
							 787.9 0.54 787.9 L4.64 787.9 C4.95 787.9 5.18 788.14 5.18 788.45 L5.18 791.46 Z" class="st3"/>
			</g>
			<g id="shape591-25" v:mID="591" v:groupContext="groupContent">
				<v:textBlock v:margins="rect(0,0,0,0)" v:verticalAlign="0"/>
				<v:textRect cx="15.3" cy="809.709" width="69.75" height="32.1328"/>
				<text x="-7.09" y="801.74" class="st4" v:langID="1033"><v:paragraph v:horizAlign="1"/><v:tabList/>Event Hubs</text>			</g>
		</g>
		<g id="group600-27" transform="translate(45.8318,-589.832)" v:mID="600" v:groupContext="group">
			<title>Stream Analytics</title>
			<desc>Stream Analytics</desc>
			<g id="shape601-28" v:mID="601" v:groupContext="shape" transform="translate(11.9773,0)">
				<title>Sheet.601</title>
				<path d="M23.1 781.95 L24.19 779.48 L28.59 777.94 L28.59 774.38 L28.13 774.23 L24.26 772.91 L23.18 770.44 L25.19
							 766.27 L22.72 763.8 L22.18 764.1 L18.55 765.96 L16.07 764.88 L14.45 760.63 L10.82 760.63 L10.66 761.09
							 L9.2 764.8 L6.72 765.88 L2.47 764.03 L0 766.5 L0.23 766.96 L1.39 769.13 C3.4 767.97 5.56 767.5 7.88
							 767.5 C11.05 767.66 13.99 768.82 16.23 770.9 C16.69 771.29 17.31 771.6 17.77 772.22 C18 772.45 18.24
							 772.84 18.39 773.15 C19.94 775.85 19.32 779.25 16.77 781.26 C14.91 782.8 12.29 783.04 10.28 782.19 C10.05
							 782.03 9.89 782.03 9.81 781.95 C9.35 781.72 8.81 781.34 8.42 780.95 C8.27 780.95 8.19 780.8 7.96 780.8
							 C7.5 780.8 6.88 781.03 6.57 781.41 L6.41 781.57 C4.87 783.11 3.09 784.27 1.24 784.89 L0.31 786.28 L2.7
							 788.68 L2.86 788.83 L3.32 788.6 L6.95 786.75 L9.43 787.75 L10.82 792 L14.45 792 L14.6 791.54 L15.92
							 787.75 L18.39 786.67 L22.64 788.52 L25.11 786.05 L24.88 785.59 L23.1 781.95 Z" class="st3"/>
			</g>
			<g id="shape602-30" v:mID="602" v:groupContext="shape" transform="translate(2.08636,-11.5136)">
				<title>Sheet.602</title>
				<path d="M11.28 787.13 C8.5 790.07 4.1 790.07 1.39 786.98 C1.16 786.59 0.46 786.59 0.23 786.98 C0.08 787.13 0 787.36
							 0 787.6 C0 787.83 0.15 788.06 0.23 788.21 C3.55 791.85 8.96 792 12.36 788.45 L12.36 788.29 C15.15 785.51
							 19.47 785.51 22.1 788.52 C22.49 788.91 23.03 788.91 23.26 788.52 C23.41 788.37 23.49 788.14 23.49 787.9
							 C23.49 787.67 23.34 787.44 23.26 787.29 C20.09 783.65 14.68 783.58 11.28 787.13 Z" class="st3"/>
			</g>
			<g id="shape603-32" v:mID="603" v:groupContext="shape" transform="translate(-2.01839E-013,-8.19091)">
				<title>Sheet.603</title>
				<path d="M19.4 785.28 C17.85 785.28 16.61 785.74 15.53 786.9 L15.38 787.05 L15.22 787.21 C13.37 789.22 10.74 790.3
							 8.11 790.15 C5.41 790.15 3.01 788.83 1.16 786.82 C0.77 786.44 0.23 786.44 0 786.82 C0 786.98 0 787.21
							 0 787.44 C0 787.67 0.15 787.9 0.23 788.06 C2.4 790.45 5.25 791.85 8.35 791.85 C11.44 792 14.22 790.69
							 16.61 788.29 L16.77 788.14 L16.92 787.98 C17.62 787.29 18.55 786.82 19.63 786.82 C20.71 786.82 21.48
							 787.29 22.33 788.14 C22.72 788.52 23.26 788.52 23.49 788.14 C23.65 787.98 23.72 787.75 23.72 787.52
							 C23.72 787.29 23.57 787.05 23.49 786.9 C22.33 785.9 20.94 785.28 19.4 785.28 Z" class="st3"/>
			</g>
			<g id="shape604-34" v:mID="604" v:groupContext="shape" transform="translate(4.25,-16.3045)">
				<title>Sheet.604</title>
				<path d="M23.41 789.06 C21.25 786.67 18.31 785.28 15.3 785.28 C12.29 785.28 9.43 786.44 7.03 788.83 L6.88 788.99
							 L6.72 789.14 C6.03 789.84 5.1 790.3 4.02 790.3 C2.94 790.3 2.24 789.76 1.39 788.99 C1 788.6 0.46 788.6
							 0.23 788.99 C0.08 789.14 0 789.37 0 789.6 C0 789.84 0.15 790.07 0.23 790.22 C1.31 791.38 2.63 792 4.02
							 792 C5.56 792 6.8 791.54 7.88 790.38 L8.04 790.22 C8.04 790.22 8.19 790.22 8.19 790.07 C10.05 788.06
							 12.67 786.98 15.3 786.98 C18 786.98 20.4 788.29 22.1 790.3 C22.49 790.69 23.03 790.69 23.26 790.3 C23.41
							 790.15 23.49 789.91 23.49 789.68 C23.49 789.45 23.49 789.3 23.41 789.06 Z" class="st3"/>
			</g>
			<g id="shape600-36" v:mID="600" v:groupContext="groupContent">
				<v:textBlock v:margins="rect(0,0,0,0)" v:verticalAlign="0"/>
				<v:textRect cx="20.2841" cy="809.719" width="72" height="31.9352"/>
				<text x="-12.56" y="801.85" class="st4" v:langID="1033"><v:paragraph v:horizAlign="1"/><v:tabList/>Stream Analytics</text>			</g>
		</g>
		<g id="group605-38" transform="translate(45.8318,-535.718)" v:mID="605" v:groupContext="group">
			<title>Storage blob</title>
			<desc>Storage blob</desc>
			<g id="shape606-39" v:mID="606" v:groupContext="shape">
				<title>Sheet.606</title>
				<path d="M21.69 766.96 L7.23 766.96 L0 779.48 L7.23 792 L21.69 792 L28.92 779.48 L21.69 766.96 ZM21.73 785.07 C21.73
							 786.15 20.85 787.03 19.77 787.03 L9.15 787.03 C8.07 787.03 7.19 786.15 7.19 785.07 L7.19 773.88 C7.19
							 772.8 8.07 771.93 9.15 771.93 L17.03 771.93 C17.81 771.93 18.49 771.93 18.49 771.93 L18.71 771.93 L21.73
							 774.91 L21.73 776.5 L21.73 785.07 Z" class="st5"/>
			</g>
			<g id="shape607-41" v:mID="607" v:groupContext="shape" transform="translate(12.1013,-8.085)">
				<title>Sheet.607</title>
				<path d="M1.23 789.57 C1.21 789.46 1.18 789.36 1.15 789.28 C1.11 789.2 1.07 789.14 1.02 789.09 C0.98 789.05 0.92
							 789.01 0.86 788.99 C0.8 788.97 0.73 788.96 0.66 788.96 C0.53 788.96 0.42 788.99 0.33 789.06 C0.25 789.12
							 0.18 789.21 0.13 789.34 C0.08 789.46 0.05 789.62 0.03 789.81 C0.01 789.99 0 790.21 0 790.46 C0 790.76
							 0.01 791.01 0.04 791.21 C0.06 791.41 0.1 791.56 0.15 791.68 C0.2 791.8 0.27 791.88 0.35 791.93 C0.43
							 791.98 0.53 792 0.64 792 C0.73 792 0.8 791.99 0.87 791.96 C0.93 791.93 0.99 791.89 1.04 791.84 C1.09
							 791.78 1.13 791.71 1.16 791.63 C1.2 791.55 1.22 791.45 1.24 791.34 C1.26 791.23 1.28 791.11 1.29 790.97
							 C1.29 790.83 1.3 790.68 1.3 790.51 C1.3 790.31 1.29 790.13 1.28 789.97 C1.27 789.82 1.26 789.69 1.23
							 789.57 Z" class="st5"/>
			</g>
			<g id="shape608-43" v:mID="608" v:groupContext="shape" transform="translate(15.5167,-13.9237)">
				<title>Sheet.608</title>
				<path d="M1.23 789.57 C1.21 789.46 1.18 789.36 1.15 789.28 C1.11 789.2 1.07 789.14 1.02 789.09 C0.98 789.05 0.92
							 789.01 0.86 788.99 C0.8 788.97 0.73 788.96 0.65 788.96 C0.53 788.96 0.42 788.99 0.33 789.06 C0.25 789.12
							 0.18 789.21 0.13 789.34 C0.08 789.46 0.05 789.62 0.03 789.81 C0.01 789.99 0 790.21 0 790.46 C0 790.76
							 0.01 791.01 0.04 791.21 C0.06 791.41 0.1 791.56 0.15 791.68 C0.2 791.8 0.27 791.88 0.35 791.93 C0.43
							 791.98 0.53 792 0.64 792 C0.73 792 0.8 791.99 0.87 791.96 C0.93 791.93 0.99 791.89 1.04 791.84 C1.09
							 791.78 1.13 791.71 1.16 791.63 C1.2 791.55 1.22 791.45 1.24 791.34 C1.26 791.23 1.28 791.11 1.29 790.97
							 C1.29 790.83 1.3 790.68 1.3 790.51 C1.3 790.31 1.29 790.13 1.28 789.97 C1.27 789.82 1.25 789.69 1.23
							 789.57 Z" class="st5"/>
			</g>
			<g id="shape609-45" v:mID="609" v:groupContext="shape" transform="translate(8.2605,-6.04125)">
				<title>Sheet.609</title>
				<path d="M9.98 779.05 C9.71 779.04 9.26 779.04 8.76 779.04 L0.88 779.04 C0.39 779.04 0 779.44 0 779.92 L0 791.12
							 C0 791.61 0.39 792 0.88 792 L11.51 792 C11.99 792 12.4 791.6 12.4 791.12 L12.4 781.5 L9.98 781.5 L9.98
							 779.05 L9.98 779.05 ZM3.27 781.27 C3.27 781.24 3.28 781.21 3.29 781.19 C3.3 781.16 3.31 781.14 3.32
							 781.13 C3.34 781.11 3.36 781.09 3.39 781.08 L4.3 780.48 C4.31 780.48 4.33 780.47 4.34 780.46 C4.36 780.46
							 4.38 780.45 4.41 780.45 C4.43 780.45 4.47 780.44 4.51 780.44 C4.55 780.44 4.61 780.44 4.68 780.44 C4.76
							 780.44 4.83 780.44 4.88 780.45 C4.93 780.45 4.97 780.46 5 780.46 C5.02 780.47 5.04 780.48 5.05 780.5
							 C5.06 780.51 5.06 780.52 5.06 780.54 L5.06 784.06 L5.76 784.06 C5.78 784.06 5.79 784.07 5.81 784.08
							 C5.83 784.09 5.84 784.11 5.85 784.14 C5.87 784.16 5.87 784.2 5.88 784.24 C5.88 784.28 5.89 784.34 5.89
							 784.4 C5.89 784.46 5.88 784.51 5.88 784.56 C5.87 784.6 5.86 784.63 5.85 784.66 C5.84 784.68 5.82 784.7
							 5.81 784.71 C5.79 784.72 5.78 784.73 5.76 784.73 L3.41 784.73 C3.39 784.73 3.37 784.72 3.36 784.71 C3.34
							 784.7 3.33 784.68 3.32 784.66 C3.3 784.63 3.29 784.6 3.29 784.56 C3.28 784.51 3.28 784.46 3.28 784.4
							 C3.28 784.34 3.28 784.28 3.29 784.24 C3.29 784.2 3.3 784.16 3.31 784.14 C3.33 784.11 3.34 784.09 3.35
							 784.08 C3.37 784.07 3.39 784.06 3.41 784.06 L4.2 784.06 L4.2 781.29 L3.52 781.67 C3.47 781.69 3.42 781.71
							 3.39 781.71 C3.36 781.72 3.34 781.71 3.32 781.69 C3.3 781.68 3.29 781.64 3.28 781.6 C3.27 781.55 3.27
							 781.49 3.27 781.4 C3.27 781.35 3.27 781.31 3.27 781.27 ZM5.93 789.34 C5.88 789.62 5.79 789.85 5.66 790.04
							 C5.54 790.24 5.38 790.39 5.18 790.49 C4.98 790.59 4.74 790.64 4.45 790.64 C4.16 790.64 3.92 790.59 3.73
							 790.49 C3.54 790.39 3.38 790.25 3.27 790.06 C3.16 789.87 3.08 789.65 3.04 789.37 C2.99 789.1 2.97 788.8
							 2.97 788.45 C2.97 788.12 3 787.81 3.05 787.54 C3.11 787.26 3.2 787.03 3.32 786.83 C3.45 786.64 3.61
							 786.49 3.81 786.39 C4.01 786.29 4.25 786.23 4.53 786.23 C4.82 786.23 5.07 786.28 5.26 786.38 C5.45 786.48
							 5.6 786.63 5.71 786.82 C5.83 787 5.9 787.23 5.95 787.5 C5.99 787.77 6.01 788.08 6.01 788.42 C6.01 788.76
							 5.99 789.07 5.93 789.34 ZM9.29 790.4 C9.29 790.44 9.28 790.47 9.26 790.5 C9.25 790.52 9.24 790.54 9.22
							 790.55 C9.21 790.56 9.19 790.57 9.17 790.57 L6.82 790.57 C6.8 790.57 6.79 790.56 6.77 790.55 C6.76 790.54
							 6.74 790.52 6.73 790.5 C6.72 790.47 6.71 790.44 6.7 790.4 C6.7 790.35 6.69 790.3 6.69 790.24 C6.69 790.18
							 6.7 790.12 6.7 790.08 C6.71 790.04 6.72 790 6.73 789.98 C6.74 789.95 6.75 789.93 6.77 789.92 C6.78 789.91
							 6.8 789.9 6.82 789.9 L7.61 789.9 L7.61 787.13 L6.93 787.51 C6.88 787.53 6.84 787.55 6.81 787.55 C6.78
							 787.56 6.75 787.55 6.73 787.53 C6.71 787.51 6.7 787.48 6.69 787.44 C6.69 787.39 6.68 787.33 6.68 787.24
							 C6.68 787.19 6.69 787.15 6.69 787.11 C6.69 787.08 6.7 787.05 6.7 787.03 C6.71 787 6.73 786.98 6.74 786.97
							 C6.76 786.95 6.78 786.93 6.8 786.92 L7.72 786.32 C7.73 786.31 7.74 786.31 7.76 786.3 C7.77 786.3 7.8
							 786.29 7.82 786.29 C7.85 786.29 7.88 786.28 7.93 786.28 C7.97 786.28 8.02 786.28 8.09 786.28 C8.18 786.28
							 8.24 786.28 8.3 786.29 C8.35 786.29 8.39 786.3 8.41 786.3 C8.44 786.31 8.46 786.32 8.46 786.33 C8.47
							 786.35 8.48 786.36 8.48 786.38 L8.48 789.9 L9.17 789.9 C9.19 789.9 9.21 789.91 9.23 789.92 C9.24 789.93
							 9.26 789.95 9.27 789.98 C9.28 790 9.29 790.04 9.3 790.08 C9.3 790.12 9.3 790.18 9.3 790.24 C9.3 790.3
							 9.3 790.35 9.29 790.4 ZM9.35 783.5 C9.29 783.78 9.2 784.01 9.08 784.21 C8.95 784.4 8.79 784.55 8.59
							 784.65 C8.39 784.75 8.15 784.8 7.87 784.8 C7.57 784.8 7.33 784.75 7.14 784.65 C6.95 784.55 6.8 784.41
							 6.69 784.22 C6.58 784.04 6.5 783.81 6.45 783.53 C6.41 783.26 6.38 782.96 6.38 782.62 C6.38 782.28 6.41
							 781.97 6.47 781.7 C6.52 781.42 6.61 781.19 6.74 780.99 C6.86 780.8 7.02 780.65 7.22 780.55 C7.42 780.45
							 7.66 780.4 7.95 780.4 C8.24 780.4 8.48 780.45 8.67 780.55 C8.87 780.65 9.02 780.79 9.13 780.98 C9.24
							 781.16 9.32 781.39 9.36 781.66 C9.41 781.93 9.43 782.24 9.43 782.58 C9.43 782.92 9.4 783.23 9.35 783.5
							 Z" class="st5"/>
			</g>
			<g id="shape605-47" v:mID="605" v:groupContext="groupContent">
				<v:textBlock v:margins="rect(0,0,0,0)" v:verticalAlign="0"/>
				<v:textRect cx="14.46" cy="810" width="72" height="31.5"/>
				<text x="-11.2" y="802.35" class="st4" v:langID="1033"><v:paragraph v:horizAlign="1"/><v:tabList/>Storage blob</text>			</g>
		</g>
		<g id="shape610-49" v:mID="610" v:groupContext="shape" transform="translate(46.3418,-482.043)">
			<title>Storage table</title>
			<desc>Storage table</desc>
			<v:textBlock v:margins="rect(0,0,0,0)" v:verticalAlign="0"/>
			<v:textRect cx="14.91" cy="810.2" width="72" height="31.5"/>
			<path d="M21.31 767.4 L7.1 767.4 L0 779.7 L7.1 792 L21.31 792 L28.41 779.7 L21.31 767.4 ZM13.52 773.84 L16.79 773.84
						 L16.79 777.12 L13.52 777.12 L13.52 773.84 ZM13.52 777.96 L16.79 777.96 L16.79 781.24 L13.52 781.24 L13.52
						 777.96 ZM13.52 782.08 L16.79 782.08 L16.79 785.36 L13.52 785.36 L13.52 782.08 ZM9.38 773.84 L12.65 773.84
						 L12.65 777.12 L9.38 777.12 L9.38 773.84 ZM9.38 777.96 L12.65 777.96 L12.65 781.24 L9.38 781.24 L9.38 777.96
						 ZM9.38 782.08 L12.65 782.08 L12.65 785.36 L9.38 785.36 L9.38 782.08 ZM20.9 787.17 L7.48 787.17 L7.48 773.75
						 L8.35 773.75 L8.35 786.26 L8.38 786.26 L8.38 786.27 L20.9 786.27 L20.9 787.17 ZM20.93 785.36 L17.66 785.36
						 L17.66 782.08 L20.93 782.08 L20.93 785.36 ZM20.93 781.24 L17.66 781.24 L17.66 777.96 L20.93 777.96 L20.93
						 781.24 ZM20.93 777.12 L17.66 777.12 L17.66 773.84 L20.93 773.84 L20.93 777.12 Z" class="st5"/>
			<text x="-11.64" y="802.55" class="st4" v:langID="1033"><v:paragraph v:horizAlign="1"/><v:tabList/>Storage table</text>		</g>
		<g id="group611-52" transform="translate(53.1076,-424.108)" v:mID="611" v:groupContext="group">
			<title>SQL database (generic)</title>
			<desc>SQL database (generic)</desc>
			<g id="shape612-53" v:mID="612" v:groupContext="shape" transform="translate(9.86025,-11.9452)">
				<title>Sheet.612</title>
				<path d="M1.88 789.44 C1.81 789.3 1.69 789.19 1.56 789.1 C1.44 789.02 1.28 788.98 1.1 788.98 C0.91 788.98 0.74 789.02
							 0.6 789.1 C0.46 789.19 0.35 789.29 0.25 789.43 C0.16 789.57 0.1 789.73 0.06 789.92 C0.02 790.1 0 790.29
							 0 790.5 C0 790.77 0.03 790.99 0.09 791.18 C0.15 791.37 0.23 791.53 0.32 791.65 C0.42 791.77 0.53 791.86
							 0.66 791.91 C0.79 791.97 0.93 792 1.08 792 C1.21 792 1.34 791.97 1.47 791.91 C1.6 791.86 1.71 791.77
							 1.8 791.64 C1.91 791.53 1.99 791.37 2.05 791.18 C2.1 791 2.13 790.79 2.13 790.52 C2.13 790.32 2.12 790.12
							 2.07 789.93 C2.03 789.74 1.97 789.58 1.88 789.44 Z" class="st5"/>
			</g>
			<g id="shape613-55" v:mID="613" v:groupContext="shape">
				<title>Sheet.613</title>
				<path d="M10.81 763.14 C4.84 763.14 0 765.17 0 767.41 L0 787.65 C0 789.89 4.84 792 10.81 792 C16.79 792 21.64 789.99
							 21.64 787.75 L21.64 767.53 C21.64 765.28 16.79 763.14 10.81 763.14 ZM7.57 780.1 C7.54 780.25 7.49 780.39
							 7.41 780.53 C7.34 780.67 7.24 780.8 7.12 780.92 C7 781.04 6.84 781.15 6.65 781.25 C6.47 781.34 6.24
							 781.41 5.99 781.46 C5.73 781.52 5.43 781.55 5.1 781.55 C4.91 781.55 4.74 781.54 4.58 781.52 C4.41 781.5
							 4.26 781.48 4.12 781.45 C3.98 781.42 3.85 781.39 3.73 781.35 C3.61 781.32 3.52 781.27 3.43 781.24 L3.43
							 779.65 C3.53 779.72 3.64 779.8 3.77 779.87 C3.89 779.94 4.03 780 4.17 780.06 C4.31 780.11 4.45 780.15
							 4.61 780.19 C4.76 780.23 4.9 780.25 5.05 780.25 C5.17 780.25 5.28 780.23 5.36 780.21 C5.43 780.19 5.49
							 780.15 5.54 780.11 C5.58 780.08 5.62 780.03 5.63 779.99 C5.65 779.94 5.66 779.89 5.66 779.84 C5.66 779.75
							 5.63 779.68 5.59 779.61 C5.55 779.55 5.49 779.49 5.41 779.43 C5.32 779.38 5.23 779.33 5.12 779.29 C5.01
							 779.23 4.88 779.19 4.75 779.14 C4.5 779.04 4.28 778.93 4.1 778.8 C3.92 778.67 3.78 778.54 3.66 778.39
							 C3.55 778.24 3.47 778.08 3.42 777.92 C3.37 777.75 3.34 777.58 3.34 777.39 C3.34 777.11 3.4 776.86 3.51
							 776.62 C3.63 776.4 3.79 776.21 3.99 776.04 C4.2 775.88 4.45 775.75 4.74 775.68 C5.02 775.59 5.35 775.55
							 5.7 775.55 C5.9 775.55 6.07 775.55 6.24 775.56 C6.4 775.58 6.55 775.6 6.68 775.62 C6.81 775.64 6.92
							 775.67 7.03 775.69 C7.13 775.72 7.23 775.75 7.31 775.77 L7.31 777.25 C7.22 777.2 7.13 777.15 7.02 777.11
							 C6.91 777.06 6.8 777.01 6.68 776.98 C6.56 776.93 6.43 776.91 6.29 776.88 C6.15 776.86 6.01 776.85 5.87
							 776.85 C5.67 776.85 5.52 776.88 5.4 776.95 C5.27 777.03 5.21 777.13 5.21 777.26 C5.21 777.32 5.23 777.38
							 5.26 777.43 C5.28 777.48 5.33 777.53 5.38 777.57 C5.44 777.61 5.52 777.66 5.61 777.71 C5.71 777.76 5.82
							 777.81 5.96 777.86 C6.2 777.96 6.42 778.06 6.63 778.18 C6.83 778.29 7 778.42 7.15 778.57 C7.3 778.7
							 7.41 778.87 7.49 779.05 C7.57 779.23 7.62 779.45 7.62 779.69 C7.62 779.82 7.6 779.96 7.57 780.1 ZM11.97
							 782.92 L10.69 781.55 C10.32 781.52 9.97 781.44 9.65 781.3 C9.32 781.15 9.03 780.96 8.79 780.71 C8.55
							 780.46 8.36 780.16 8.21 779.81 C8.07 779.46 8 779.06 8 778.63 C8 778.17 8.07 777.75 8.22 777.38 C8.37
							 776.99 8.57 776.67 8.83 776.4 C9.09 776.13 9.41 775.92 9.77 775.77 C10.14 775.62 10.54 775.54 10.98
							 775.54 C11.39 775.54 11.78 775.61 12.13 775.75 C12.48 775.89 12.78 776.09 13.03 776.35 C13.29 776.6
							 13.49 776.92 13.63 777.29 C13.77 777.65 13.84 778.07 13.84 778.53 C13.84 778.86 13.81 779.17 13.72 779.46
							 C13.64 779.75 13.53 780.01 13.38 780.23 C13.24 780.47 13.07 780.67 12.88 780.84 C12.68 781.01 12.47
							 781.15 12.24 781.26 L14.19 782.92 L11.97 782.92 L11.97 782.92 ZM18.42 781.45 L14.67 781.45 L14.67 775.64
							 L16.42 775.64 L16.42 780.08 L18.42 780.08 L18.42 781.45 L18.42 781.45 ZM10.81 769.41 C6.55 769.41 3.1
							 768.36 3.1 767.05 C3.1 765.74 6.55 764.69 10.81 764.69 C15.07 764.69 18.52 765.74 18.52 767.05 C18.52
							 768.36 15.07 769.41 10.81 769.41 Z" class="st5"/>
			</g>
			<g id="shape611-57" v:mID="611" v:groupContext="groupContent">
				<v:textBlock v:margins="rect(0,0,0,0)" v:verticalAlign="0"/>
				<v:textRect cx="10.8221" cy="810" width="72" height="31.5"/>
				<text x="-16.26" y="802.35" class="st4" v:langID="1033"><v:paragraph v:horizAlign="1"/><v:tabList/>SQL database <tspan
							x="-6.53" dy="1.2em" class="st6">(</tspan>generic)  </text>			</g>
		</g>
		<g id="shape614-60" v:mID="614" v:groupContext="shape" transform="translate(115.32,1023.24) scale(1,-1)">
			<title>Storage (Azure)</title>
			<desc>Storage (Azure)</desc>
			<v:textBlock v:margins="rect(0,0,0,0)" v:verticalAlign="0"/>
			<v:textRect cx="16.0013" cy="747.281" width="72" height="30.9375"/>
			<path d="M27.28 781.29 L25.18 781.29 L25.18 791.04 C25.18 791.55 24.73 792 24.22 792 L0.96 792 C0.45 792 0 791.55 0 791.04
						 L0 771.47 C-0 770.96 0.45 770.52 0.96 770.52 L14.15 770.52 L17.59 764.52 L27.22 764.52 L32 772.87 L27.28
						 781.29 ZM18.68 786.39 L23.33 786.39 L23.33 783.58 L18.68 783.58 L18.68 786.39 ZM23.33 782.69 L23.33 781.29
						 L18.68 781.29 L18.68 782.69 L23.33 782.69 ZM13.07 786.39 L17.72 786.39 L17.72 783.58 L13.07 783.58 L13.07
						 786.39 ZM13.07 782.69 L17.72 782.69 L17.72 781.29 L17.66 781.29 L16.83 779.89 L13.07 779.89 L13.07 782.69
						 ZM13.07 778.93 L16.26 778.93 L14.66 776.13 L13.07 776.13 L13.07 778.93 ZM14.15 775.23 L13.07 773.39 L13.07
						 775.23 L14.15 775.23 ZM6.57 772.43 L1.91 772.43 L1.91 775.23 L6.57 775.23 L6.57 772.43 ZM6.57 776.13 L1.91
						 776.13 L1.91 778.93 L6.57 778.93 L6.57 776.13 ZM6.57 779.89 L1.91 779.89 L1.91 782.69 L6.57 782.69 L6.57
						 779.89 ZM6.57 783.58 L1.91 783.58 L1.91 786.39 L6.57 786.39 L6.57 783.58 ZM12.18 772.43 L7.52 772.43 L7.52
						 775.23 L12.18 775.23 L12.18 772.43 ZM12.18 776.13 L7.52 776.13 L7.52 778.93 L12.18 778.93 L12.18 776.13
						 ZM12.18 779.89 L7.52 779.89 L7.52 782.69 L12.18 782.69 L12.18 779.89 ZM12.18 783.58 L7.52 783.58 L7.52 786.39
						 L12.18 786.39 L12.18 783.58 ZM13.07 772.43 L13.07 772.49 L13.07 772.43 Z" class="st5"/>
			<text x="-14.76" y="-754.65" transform="scale(1,-1)" class="st4" v:langID="1033"><v:paragraph v:horizAlign="1"/><v:tabList/>Storage (Azure)</text>		</g>
		<g id="group615-63" transform="translate(42.7148,-342)" v:mID="615" v:groupContext="group">
			<title>Web App (was websites)</title>
			<desc>Web App</desc>
			<g id="group616-64" v:mID="616" v:groupContext="group">
				<title>Sheet.616</title>
				<g id="shape617-65" v:mID="617" v:groupContext="shape">
					<title>Sheet.617</title>
					<path d="M23.51 787.61 C21.28 789.32 18.64 790.16 16.03 790.16 C12.31 790.16 8.65 788.49 6.22 785.32 C2.08 779.9
								 3.1 772.17 8.52 768.02 C10.76 766.3 13.39 765.48 16.01 765.48 C19.72 765.48 23.39 767.15 25.82 770.32
								 C29.96 775.73 28.93 783.47 23.51 787.61 ZM27.28 769.19 C24.49 765.54 20.27 763.63 16.01 763.63 C13.01
								 763.63 9.96 764.58 7.39 766.55 C1.18 771.32 -0 780.22 4.76 786.44 C7.55 790.09 11.77 792 16.03 792
								 C19.04 792 22.07 791.05 24.64 789.08 C30.86 784.32 32.04 775.41 27.28 769.19 Z" class="st5"/>
				</g>
			</g>
			<g id="group618-67" transform="translate(5.09156,-4.39894)" v:mID="618" v:groupContext="group">
				<title>Sheet.618</title>
				<g id="group619-68" transform="translate(0.351188,-0.176625)" v:mID="619" v:groupContext="group">
					<title>Sheet.619</title>
					<g id="group620-69" transform="translate(0.44925,3.41061E-013)" v:mID="620" v:groupContext="group">
						<title>Sheet.620</title>
						<g id="shape621-70" v:mID="621" v:groupContext="shape">
							<title>Sheet.621</title>
							<path d="M3.72 784.97 C2.9 784.16 2.24 783.38 1.71 782.62 C0.52 785.04 0.1 787.52 0 789.51 C0.12 789.66
										 0.12 789.79 0.23 789.95 C0.83 790.7 1.57 791.42 2.29 792 C2.18 790.38 2.34 787.72 3.72 784.97
										 Z" class="st5"/>
						</g>
					</g>
					<g id="shape622-72" v:mID="622" v:groupContext="shape" transform="translate(3.3825,-8.98425)">
						<title>Sheet.622</title>
						<path d="M5.07 784.5 C3.96 785.27 2.81 786.25 1.66 787.48 C1.02 788.15 0.48 788.84 0 789.53 C0.49 790.33
									 1.14 791.15 1.95 792 C2.56 791.14 3.31 790.28 4.21 789.43 C5.35 788.37 6.42 787.51 7.43 786.83
									 C6.6 786.06 5.81 785.29 5.07 784.5 Z" class="st5"/>
					</g>
					<g id="group623-74" transform="translate(10.2079,-15.2081)" v:mID="623" v:groupContext="group">
						<title>Sheet.623</title>
						<g id="shape624-75" v:mID="624" v:groupContext="shape">
							<title>Sheet.624</title>
							<path d="M10.04 789.92 C9.5 789.24 8.9 788.64 8.26 788.1 C6.35 787.81 3.39 787.84 0 789.64 C0.78 790.48
										 1.55 791.26 2.3 792 C6.82 789.56 10.04 789.92 10.04 789.92 Z" class="st5"/>
						</g>
					</g>
					<g id="group625-77" transform="translate(1.1291E-013,-9.38775)" v:mID="625" v:groupContext="group">
						<title>Sheet.625</title>
						<g id="shape626-78" v:mID="626" v:groupContext="shape">
							<title>Sheet.626</title>
							<path d="M2.16 792 C2.5 791.31 2.91 790.62 3.38 789.93 C1.44 786.86 1.53 784.32 1.74 783.13 C1.26 783.65
										 0.8 784.17 0.41 784.74 C0.02 786.35 0 788.91 2.16 792 Z" class="st5"/>
						</g>
					</g>
					<g id="group627-80" transform="translate(4.16269,-0.740812)" v:mID="627" v:groupContext="group">
						<title>Sheet.627</title>
						<g id="shape628-81" v:mID="628" v:groupContext="shape">
							<title>Sheet.628</title>
							<path d="M3.51 785.89 C2.6 785.17 1.83 784.45 1.17 783.75 C0.7 784.41 0.32 785.06 0 785.7 C0.62 786.33
										 1.33 786.96 2.14 787.61 C7.2 791.62 12.23 792 15.05 792 C15.24 792 16.12 790.8 16.63 790.06
										 C15.37 790.32 9.97 791 3.51 785.89 Z" class="st5"/>
						</g>
					</g>
					<g id="group629-83" transform="translate(2.16112,-7.03612)" v:mID="629" v:groupContext="group">
						<title>Sheet.629</title>
						<g id="shape630-84" v:mID="630" v:groupContext="shape">
							<title>Sheet.630</title>
							<path d="M0 789.65 C0.53 790.41 1.18 791.19 2 792 C2.32 791.36 2.71 790.7 3.17 790.05 C2.36 789.19 1.72
										 788.38 1.22 787.58 C0.74 788.27 0.34 788.96 0 789.65 Z" class="st5"/>
						</g>
					</g>
					<g id="group631-86" transform="translate(10.8082,-5.32762)" v:mID="631" v:groupContext="group">
						<title>Sheet.631</title>
						<g id="shape632-87" v:mID="632" v:groupContext="shape">
							<title>Sheet.632</title>
							<path d="M0 783.17 C4.61 787.43 10.07 791.05 11.46 792 C11.6 791.65 11.69 791.3 11.79 790.95 C10.3 789.84
										 6.39 786.79 1.7 782.12 C1.16 782.41 0.59 782.77 0 783.17 Z" class="st5"/>
						</g>
					</g>
					<g id="group633-89" transform="translate(5.12419,-16.4848)" v:mID="633" v:groupContext="group">
						<title>Sheet.633</title>
						<g id="shape634-90" v:mID="634" v:groupContext="shape">
							<title>Sheet.634</title>
							<path d="M5.08 790.91 C3.95 789.73 2.81 788.47 1.63 787.11 C1.07 787.29 0.53 787.51 0 787.77 C0.86 789.19
										 2.03 790.61 3.33 792 C3.93 791.58 4.5 791.22 5.08 790.91 Z" class="st5"/>
						</g>
					</g>
					<g id="shape635-92" v:mID="635" v:groupContext="shape" transform="translate(8.361,-14.0617)">
						<title>Sheet.635</title>
						<path d="M1.92 788.45 C1.34 788.76 0.59 789.22 0 789.64 C0.74 790.43 1.49 791.24 2.31 792 C2.9 791.6 3.69
									 791.11 4.23 790.81 C3.48 790.08 2.7 789.29 1.92 788.45 Z" class="st5"/>
					</g>
					<g id="shape636-94" v:mID="636" v:groupContext="shape" transform="translate(8.36025,-14.0152)">
						<title>Sheet.636</title>
						<path d="M1.71 788.3 C1.13 788.61 0.59 789.01 0 789.43 C0.74 790.21 1.79 791.24 2.61 792 C3.2 791.6 3.69
									 791.19 4.23 790.89 C3.48 790.16 2.49 789.14 1.71 788.3 Z" class="st5"/>
					</g>
				</g>
				<g id="group637-96" transform="translate(15.2696,-6.24169)" v:mID="637" v:groupContext="group">
					<title>Sheet.637</title>
					<g id="shape638-97" v:mID="638" v:groupContext="shape">
						<title>Sheet.638</title>
						<path d="M1.38 786.91 C0.23 787.8 0 789.46 0.89 790.62 C1.78 791.79 3.45 792 4.61 791.12 C5.77 790.23 5.99
									 788.57 5.11 787.4 C4.21 786.25 2.55 786.01 1.38 786.91 Z" class="st5"/>
					</g>
				</g>
				<g id="group639-99" transform="translate(9.9159,-2.27374E-013)" v:mID="639" v:groupContext="group">
					<title>Sheet.639</title>
					<g id="shape640-100" v:mID="640" v:groupContext="shape">
						<title>Sheet.640</title>
						<path d="M1.27 787.29 C0.2 788.11 0 789.66 0.81 790.73 C1.64 791.8 3.18 792 4.26 791.18 C5.33 790.36 5.53
									 788.82 4.71 787.75 C3.89 786.67 2.35 786.47 1.27 787.29 Z" class="st5"/>
					</g>
				</g>
				<g id="group641-102" transform="translate(0,-5.36869)" v:mID="641" v:groupContext="group">
					<title>Sheet.641</title>
					<g id="shape642-103" v:mID="642" v:groupContext="shape">
						<title>Sheet.642</title>
						<path d="M1.94 784.83 C0.31 786.09 0 788.42 1.25 790.05 C2.5 791.69 4.85 792 6.48 790.74 C8.11 789.5 8.42
									 787.16 7.17 785.51 C5.92 783.9 3.57 783.58 1.94 784.83 Z" class="st5"/>
					</g>
				</g>
			</g>
			<g id="shape615-105" v:mID="615" v:groupContext="groupContent">
				<v:textBlock v:margins="rect(0,0,0,0)" v:verticalAlign="0"/>
				<v:textRect cx="16.0185" cy="809.878" width="72" height="31.5"/>
				<text x="-2.61" y="802.23" class="st4" v:langID="1033"><v:paragraph v:horizAlign="1"/><v:tabList/>Web App</text>			</g>
		</g>
		<g id="group643-107" transform="translate(43.4393,-260.835)" v:mID="643" v:groupContext="group">
			<title>Unidentified feature object</title>
			<desc>Unidentified feature object</desc>
			<g id="shape644-108" v:mID="644" v:groupContext="shape" transform="translate(0,-5.1675)">
				<title>Sheet.644</title>
				<path d="M25.09 787.05 L25.09 778.86 C25.09 773.92 20.76 769.74 15.65 769.74 C10.54 769.74 6.22 773.92 6.22 778.86
							 L6.22 787.05 C1.25 789.04 0 791.95 0 791.95 L0.06 792 L31.24 792 L31.31 791.95 C31.31 791.95 30.06 789.04
							 25.09 787.05 ZM7.34 786.62 L7.34 778.86 C7.34 774.52 11.14 770.86 15.65 770.86 C20.16 770.86 23.97 774.52
							 23.97 778.86 L23.97 786.62 L23.89 786.62 C23.75 786.58 23.61 786.52 23.47 786.48 L17.91 786.48 C19.21
							 785.94 21.02 784.82 21.57 782.66 C21.61 782.51 21.56 782.35 21.42 782.29 C21.3 782.21 21.13 782.22 21.02
							 782.33 C21 782.35 18.91 784.35 17.21 784.37 C17.19 784.36 17.18 784.38 17.16 784.38 C17.85 783.21 18.63
							 782.05 19.5 780.36 C21.25 777 18.85 773.51 15.56 773.43 C12.28 773.37 9.71 776.73 11.31 780.18 C12.13
							 781.94 12.86 783.15 13.51 784.36 C11.81 784.3 9.76 782.35 9.74 782.33 C9.64 782.22 9.47 782.21 9.34
							 782.29 C9.2 782.35 9.14 782.51 9.18 782.66 C9.74 784.82 11.55 785.94 12.86 786.48 L7.83 786.48 C7.69
							 786.52 7.55 786.58 7.41 786.62 L7.34 786.62 L7.34 786.62 ZM18.92 779.69 C18.91 779.95 17.15 782.19 15.53
							 782.15 C13.9 782.11 12.44 779.95 12.46 779.69 C12.47 779.43 18.92 779.43 18.92 779.69 ZM16.14 778.14
							 C16.16 777.52 16.86 776.61 17.21 776.62 C17.55 776.62 18.09 777.61 18.08 778.23 C18.06 778.84 17.55
							 778.95 17.21 778.95 C16.86 778.93 16.13 778.75 16.14 778.14 ZM14.16 778.95 C13.82 778.95 13.31 778.83
							 13.29 778.23 C13.28 777.61 13.82 776.62 14.16 776.62 C14.51 776.61 15.21 777.52 15.23 778.14 C15.24
							 778.75 14.51 778.93 14.16 778.95 Z" class="st5"/>
			</g>
			<g id="shape645-110" v:mID="645" v:groupContext="shape" transform="translate(1.59825,0)">
				<title>Sheet.645</title>
				<path d="M14.06 792 C22.72 792 27.53 788.84 28.11 787.72 L0 787.72 C0.58 788.84 5.39 792 14.06 792 Z" class="st5"/>
			</g>
			<g id="shape643-112" v:mID="643" v:groupContext="groupContent">
				<v:textBlock v:margins="rect(0,0,0,0)" v:verticalAlign="0"/>
				<v:textRect cx="15.6563" cy="814.449" width="72" height="31.5"/>
				<text x="-8.74" y="806.8" class="st4" v:langID="1033"><v:paragraph v:horizAlign="1"/><v:tabList/>Unidentified <tspan
							x="-11.95" dy="1.2em" class="st6">feature object</tspan></text>			</g>
		</g>
		<g id="shape646-115" v:mID="646" v:groupContext="shape" transform="translate(47.5249,-182.553)">
			<title>Machine Learning</title>
			<desc>Machine Learning</desc>
			<v:textBlock v:margins="rect(0,0,0,0)" v:verticalAlign="0"/>
			<v:textRect cx="11.5706" cy="807.75" width="67.5" height="24.5437"/>
			<path d="M16.13 774.47 L16.13 770.26 L17.53 770.26 L17.53 767.46 L5.61 767.46 L5.61 770.26 L7.01 770.26 L7.01 774.47
						 L0 788.49 L2.1 792 L21.04 792 L23.14 788.49 L16.13 774.47 ZM10.52 777.97 L4.91 789.19 L3.57 789.19 L2.81
						 788.49 L9.82 775.17 L9.82 770.26 L13.32 770.26 L13.32 775.17 L14.73 777.97 L10.52 777.97 Z" class="st7"/>
			<text x="-5.37" y="802.23" class="st4" v:langID="1033"><v:paragraph v:spLine="-1" v:horizAlign="1"/><v:tabList/>Machine <tspan
						x="-5.59" dy="1em" class="st6">Learning</tspan></text>		</g>
		<g id="group647-119" transform="translate(40.0024,-100.764)" v:mID="647" v:groupContext="group">
			<title>HDInsight</title>
			<desc>HDInsight</desc>
			<g id="shape648-120" v:mID="648" v:groupContext="shape" transform="translate(20.0175,-1.275)">
				<title>Sheet.648</title>
				<path d="M3.89 788.05 C3.7 787.47 3.06 786.39 3.06 786.39 C3.06 786.39 2.93 787.98 1.85 789.58 C0.77 791.17 0.06
							 791.43 0.06 791.43 C0.06 791.43 0 791.94 0.57 792 C0.76 792 3.19 792 3.57 792 C4.02 792 4.34 791.62
							 4.34 791.17 C4.34 790.72 3.95 790.21 3.95 790.21 C3.95 790.21 4.02 788.56 3.89 788.05 Z" class="st7"/>
			</g>
			<g id="shape649-122" v:mID="649" v:groupContext="shape" transform="translate(0.44625,-3.25125)">
				<title>Sheet.649</title>
				<path d="M2.04 786.33 C2.04 786.33 2.04 786.33 2.04 786.33 C2.04 786.33 1.15 787.35 0.57 788.11 C-0 788.88 0.38 789.39
							 0.38 789.39 C0.38 789.39 1.98 792 3.32 791.62 C3.76 791.49 4.14 790.79 4.14 790.79 C4.14 790.79 3.57
							 790.02 3.12 789.07 C2.61 788.05 2.17 786.52 2.04 786.33 Z" class="st7"/>
			</g>
			<g id="shape650-124" v:mID="650" v:groupContext="shape">
				<title>Sheet.650</title>
				<path d="M37.93 771.6 C37.74 766.56 36.34 765.22 35.95 765.22 C35.44 765.29 35.25 766.12 34.68 766.5 C33.91 767.07
							 33.4 766.95 32.96 767.39 C32.51 767.84 33.4 768.99 33.28 771.98 C33.15 774.72 31.36 775.74 31.36 775.74
							 C31.36 775.74 32.19 774.53 32.32 773.7 C32.45 773.07 32.07 772.94 31.81 772.75 C31.3 772.3 30.28 773.45
							 30.03 773.7 C30.47 773.19 31.17 772.62 30.92 772.11 C30.41 771.28 29.32 771.85 29.07 771.92 C29.32 771.79
							 29.84 771.6 29.71 771.09 C29.52 770.2 28.62 770.39 28.5 770.45 C28.88 770.26 29.07 770.07 30.09 770.13
							 C30.66 770.13 30.54 769.56 30.15 769.11 C29.58 768.41 29.2 768.16 28.75 768.03 C28.24 767.84 27.22 767.97
							 27.22 767.97 C27.22 767.97 27.92 767.52 28.31 767.58 C27.79 766.88 26.14 764.33 23.27 764.2 C18.04 763.95
							 16.51 767.33 16.51 767.33 L19.06 767.2 C19.06 767.2 18.3 767.52 16.77 767.77 C15.55 767.97 15.62 767.97
							 15.24 768.03 C14.66 768.16 13.2 769.94 11.86 771.47 C10.52 773 9.12 774.91 9.12 775.68 C9.12 776.44
							 9.88 776.95 10.33 777.59 C10.77 778.23 10.9 778.55 10.9 778.55 L12.75 776.38 L10.58 780.84 C10.58 780.84
							 11.6 782.18 12.69 782.05 C13.52 781.93 15.36 780.46 16.51 780.27 C17.72 780.01 18.23 780.21 18.23 780.21
							 C18.23 780.21 19.06 778.04 18.68 776.51 C17.98 773.77 18.49 772.3 19.06 771.41 C18.62 775.04 19.83 775.3
							 19.76 777.66 C19.7 779.44 19.12 781.35 19.12 781.35 C19.12 781.35 17.4 780.78 16.07 781.48 C14.73 782.18
							 13.58 783.14 12.3 783.14 C10.97 783.14 9.18 780.84 9.18 780.84 L10.14 779.44 C10.14 779.44 10.01 778.99
							 9.63 778.55 C9.05 777.85 8.1 776.83 8.03 776 C7.97 774.6 9.37 773.07 9.88 772.49 C10.39 771.85 11.92
							 770.2 11.92 770.2 C11.92 770.2 7.46 770.83 5.61 773 C3.38 775.68 3.06 776.44 2.23 776.57 C1.4 776.7
							 1.08 775.81 1.08 775.81 C1.08 775.81 1.72 775.74 1.66 774.98 C1.53 773.77 1.85 773.07 1.85 773.07 C1.85
							 773.07 0.51 773.9 0.25 774.72 C0 775.55 0.57 775.81 0.57 775.81 C0.57 775.81 0.57 777.34 1.47 777.66
							 C2.36 778.04 3.06 777.72 3.06 777.72 C3.06 777.72 2.49 780.52 3.25 782.56 C4.02 784.6 5.55 786.84 5.55
							 786.84 C5.55 786.84 5.42 788.37 5.23 788.75 C5.1 789.13 4.53 790.02 5.42 790.66 C6.31 791.3 8.54 791.55
							 9.05 791.23 C9.56 790.92 9.44 790.02 9.5 789.7 C9.56 789.39 10.26 788.11 10.39 787.79 C10.45 787.41
							 10.45 785.5 10.33 784.86 C10.45 785.18 11.03 786.64 13.13 786.71 C15.04 786.77 15.68 785.75 15.68 785.05
							 C15.68 785.37 15.81 786.77 15.62 787.03 C15.43 787.28 14.85 787.47 14.28 787.79 C13.71 788.17 12.94
							 788.56 14.22 790.09 C15.62 791.87 15.87 792 17.08 791.04 C18.3 790.09 19.57 789.19 20.46 788.05 C21.36
							 786.9 22.95 782.69 22.95 782.69 C22.95 782.69 21.99 782.05 21.36 781.23 C20.91 780.59 20.78 780.21 20.78
							 780.21 C20.78 780.21 22.06 781.48 23.4 781.8 C23.91 782.37 24.74 783.2 25.44 783.46 C28.05 784.54 28.88
							 781.29 28.88 781.29 L28.5 781.23 C28.5 781.23 27.79 782.88 26.65 782.76 C24.35 782.5 25.05 777.78 25.05
							 777.78 C25.05 777.78 27.35 781.1 32 780.97 C34.87 781.03 38.19 777.72 37.93 771.6 ZM21.74 771.41 C21.74
							 771.41 21.93 769.24 22.38 768.92 C22.95 768.54 24.48 769.05 24.48 769.05 C24.48 769.05 23.52 769.05
							 22.95 769.56 C22.44 770.01 21.74 771.41 21.74 771.41 ZM25.44 773.32 C24.74 773.9 24.1 774.6 24.1 774.6
							 C24.1 774.6 24.22 774.28 24.35 774.09 C24.48 773.83 24.67 773.58 24.67 773.58 C24.67 773.58 24.42 773.51
							 24.1 773.19 C23.91 773 23.84 772.81 23.78 772.68 C23.78 772.68 23.65 772.75 23.46 772.94 C23.27 773.07
							 23.01 773.38 23.01 773.38 C23.01 773.38 23.65 772.17 24.54 771.54 C25.5 770.9 26.46 770.9 26.46 770.9
							 C26.46 770.9 26.33 770.9 26.01 771.09 C25.69 771.28 25.69 771.28 25.69 771.28 C25.69 771.28 26.01 771.41
							 26.26 771.66 C26.52 771.98 26.58 772.36 26.58 772.36 C26.58 772.36 26.65 772.36 26.97 772.24 C27.28
							 772.11 27.6 772.11 27.6 772.11 C27.6 772.11 26.46 772.49 25.44 773.32 ZM35.06 767.58 C34.3 768.16 33.47
							 768.22 33.4 767.97 C33.28 767.71 33.47 767.71 33.47 767.71 C33.47 767.71 34.3 767.39 34.74 767.07 C35.32
							 766.63 35.83 765.61 36.02 765.86 C36.21 766.18 35.7 767.14 35.06 767.58 Z" class="st7"/>
			</g>
			<g id="shape647-126" v:mID="647" v:groupContext="groupContent">
				<v:textBlock v:margins="rect(0,0,0,0)" v:verticalAlign="0"/>
				<v:textRect cx="19.0931" cy="810.406" width="72" height="29.25"/>
				<text x="-0.72" y="802.53" class="st4" v:langID="1033"><v:paragraph v:spLine="-1" v:horizAlign="1"/><v:tabList/>HDInsight</text>			</g>
		</g>
		<g id="group651-128" transform="translate(234,-710.795)" v:mID="651" v:groupContext="group">
			<title>GitHub</title>
			<desc>GitHub code</desc>
			<g id="shape652-129" v:mID="652" v:groupContext="shape">
				<title>Sheet.652</title>
				<path d="M14.25 763.49 C6.38 763.49 0 769.88 0 777.75 C0 785.63 6.38 792 14.25 792 C22.12 792 28.5 785.63 28.5 777.75
							 C28.5 769.88 22.12 763.49 14.25 763.49 ZM18.02 790.12 L18.02 787.69 C18.02 786.75 17.51 785.92 16.72
							 785.39 C16.77 785.38 16.84 785.37 16.9 785.37 C18.26 785.2 19.48 784.77 19.48 784.77 C19.48 784.77 21.25
							 784.23 22.2 783.12 C23.2 781.94 23.46 780.2 23.46 780.2 C23.46 780.2 23.79 778.3 23.46 776.83 C23.12
							 775.39 22.07 774.38 22.07 774.38 C22.07 774.38 22.43 773.44 22.4 772.46 C22.37 771.52 21.93 770.54 21.93
							 770.54 C21.93 770.54 21.1 770.47 20.21 770.81 C19.13 771.22 17.96 772.07 17.96 772.07 C17.96 772.07
							 17.14 771.8 16.17 771.67 C15.29 771.54 14.25 771.53 14.25 771.53 C14.25 771.53 13.22 771.54 12.33 771.67
							 C11.37 771.8 10.55 772.07 10.55 772.07 C10.55 772.07 9.38 771.22 8.3 770.81 C7.42 770.47 6.58 770.54
							 6.58 770.54 C6.58 770.54 6.15 771.52 6.12 772.46 C6.09 773.44 6.45 774.38 6.45 774.38 C6.45 774.38 5.38
							 775.39 5.06 776.83 C4.72 778.3 5.06 780.2 5.06 780.2 C5.06 780.2 5.32 781.94 6.31 783.12 C7.26 784.23
							 9.03 784.77 9.03 784.77 C9.03 784.77 10.25 785.2 11.61 785.37 C11.67 785.37 11.73 785.38 11.8 785.39
							 C11.01 785.92 10.48 786.75 10.48 787.69 L10.48 790.12 C5.18 788.51 1.32 783.58 1.32 777.75 C1.32 770.61
							 7.11 764.82 14.25 764.82 C21.4 764.82 27.19 770.6 27.19 777.75 C27.19 783.58 23.33 788.51 18.02 790.12
							 Z" class="st5"/>
			</g>
			<g id="shape651-131" v:mID="651" v:groupContext="groupContent">
				<v:textBlock v:margins="rect(0,0,0,0)" v:verticalAlign="0"/>
				<v:textRect cx="14.2522" cy="811.076" width="72" height="31.5"/>
				<text x="-10.79" y="803.43" class="st4" v:langID="1033"><v:paragraph v:horizAlign="1"/><v:tabList/>GitHub code</text>			</g>
		</g>
		<g id="group653-133" transform="translate(234,-650.275)" v:mID="653" v:groupContext="group">
			<title>Git repository</title>
			<desc>Git repository</desc>
			<g id="shape654-134" v:mID="654" v:groupContext="shape">
				<title>Sheet.654</title>
				<path d="M30 775.3 L16.7 762 C15.96 761.26 14.78 761.26 14.04 762 L11.19 764.86 L14.62 768.29 C14.88 768.19 15.15
							 768.13 15.46 768.13 C16.73 768.13 17.76 769.16 17.76 770.45 C17.76 770.74 17.71 771.03 17.61 771.28
							 L20.97 774.64 C21.22 774.53 21.52 774.47 21.8 774.47 C23.08 774.47 24.11 775.52 24.11 776.79 C24.11
							 778.08 23.08 779.1 21.8 779.1 C20.53 779.1 19.49 778.08 19.49 776.79 C19.49 776.5 19.55 776.21 19.65
							 775.95 L16.48 772.78 L16.48 781.05 C17.25 781.44 17.75 782.22 17.75 783.11 C17.75 784.4 16.73 785.43
							 15.46 785.43 C14.17 785.43 13.14 784.4 13.14 783.11 C13.14 782.13 13.75 781.29 14.63 780.96 L14.63 772.59
							 C13.75 772.26 13.14 771.42 13.14 770.44 C13.14 770.14 13.2 769.87 13.3 769.6 L9.87 766.18 L0.74 775.3
							 C0 776.04 -0 777.22 0.74 777.96 L14.04 791.26 C14.77 792 15.96 792 16.7 791.26 L30 777.96 C30.74 777.22
							 30.74 776.04 30 775.3 Z" class="st5"/>
			</g>
			<g id="shape653-136" v:mID="653" v:groupContext="groupContent">
				<v:textBlock v:margins="rect(0,0,0,0)" v:verticalAlign="0"/>
				<v:textRect cx="15.3694" cy="811.093" width="72" height="31.5"/>
				<text x="-11.67" y="803.44" class="st4" v:langID="1033"><v:paragraph v:horizAlign="1"/><v:tabList/>Git repository</text>			</g>
		</g>
	</g>
</svg>
